{
.appVersion = "1313";
classes = (
{
automatic = 1;

glyphs = (
{
glyphname = A;
layers = (
{
anchors = (
{
name = bottom;
position = "{672, 0}";
},
{
name = ogonek;
position = "{1096, 24}";
},
{
name = top;
position = "{672, 3200}";
}
);
background = {
paths = (
{
closed = 1;
nodes = (
"324 0 LINE",
"412 1036 LINE",
"932 1036 LINE",
"1020 0 LINE",
"1184 0 LINE",
"896 3200 LINE",
"448 3200 LINE",
"160 0 LINE"
);
},
{
closed = 1;
nodes = (
"480 1844 LINE",
"592 3048 LINE",
"752 3048 LINE",
"864 1848 LINE",
"920 1188 LINE",
"424 1188 LINE"
);
}
);
};
layerId = "3B122060-26E0-4730-9241-82784E6CB359";
paths = (
{
closed = 1;
nodes = (
"192.36 0 LINE",
"476 3172 LINE",
"868 3172 LINE",
"1151.64 0 LINE",
"1184 0 LINE",
"896 3200 LINE",
"448 3200 LINE",
"160 0 LINE"
);
},
{
closed = 1;
nodes = (
"320 0 LINE",
"412 1042 LINE",
"932 1042 LINE",
"1024 0 LINE",
"1056 0 LINE",
"960 1070 LINE",
"384 1070 LINE",
"288 0 LINE"
);
},
{
closed = 1;
nodes = (
"256 0 LINE",
"356 1096 LINE",
"988 1096 LINE",
"1088 0 LINE",
"1120 0 LINE",
"836 3144 LINE",
"508 3144 LINE",
"224 0 LINE"
);
},
{
closed = 1;
nodes = (
"438.124 2027.092 LINE",
"536 3116 LINE",
"808 3116 LINE",
"904.192 2027.092 LINE",
"984 1124 LINE",
"356 1124 LINE"
);
},
{
closed = 1;
nodes = (
"952 1154 LINE",
"873.784 2027.092 LINE",
"780 3088 LINE",
"564 3088 LINE",
"470.488 2027.092 LINE",
"392 1154 LINE"
);
},
{
closed = 1;
nodes = (
"503.672 2027.092 LINE",
"596 3060 LINE",
"748 3060 LINE",
"840.576 2027.092 LINE",
"916 1182 LINE",
"428 1182 LINE"
);
}
);
width = 1344;
},
{
anchors = (
{
name = bottom;
position = "{1036, 0}";
},
{
name = ogonek;
position = "{1600, 0}";
},
{
name = top;
position = "{1036, 3200}";
}
);
background = {
paths = (
{
closed = 1;
nodes = (
"696 0 LINE",
"764 668 LINE",
"1308 668 LINE",
"1376 0 LINE",
"1992 0 LINE",
"1548 3200 LINE",
"524 3200 LINE",
"80 0 LINE"
);
},
{
closed = 1;
nodes = (
"892 1904 LINE",
"940 2672 LINE",
"1132 2672 LINE",
"1180 1904 LINE",
"1252 1196 LINE",
"820 1196 LINE"
);
}
);
};
color = -1;
layerId = "1DFA7D5B-2E97-4B89-827F-FB43F8066DC1";
paths = (
{
closed = 1;
nodes = (
"202.212 0 LINE",
"628 3102.5 LINE",
"1444 3102.5 LINE",
"1869.788 0 LINE",
"1992 0 LINE",
"1548 3200 LINE",
"524 3200 LINE",
"80 0 LINE"
);
},
{
closed = 1;
nodes = (
"688 0 LINE",
"768 688 LINE",
"1304 688 LINE",
"1384 0 LINE",
"1508 0 LINE",
"1400 784 LINE",
"672 784 LINE",
"564 0 LINE"
);
},
{
closed = 1;
nodes = (
"444 0 LINE",
"556 880 LINE",
"1516 880 LINE",
"1628 0 LINE",
"1752 0 LINE",
"1372 3005 LINE",
"700 3005 LINE",
"320 0 LINE"
);
},
{
closed = 1;
nodes = (
"669.552 1900.888 LINE",
"804 2907.5 LINE",
"1268 2907.5 LINE",
"1398.448 1900.888 LINE",
"1504 976 LINE",
"564 976 LINE"
);
},
{
closed = 1;
nodes = (
"1372 1072 LINE",
"1291.192 1900.888 LINE",
"1188 2817.5 LINE",
"884 2817.5 LINE",
"784.808 1900.888 LINE",
"700 1072 LINE"
);
},
{
closed = 1;
nodes = (
"892.412 1900.888 LINE",
"972 2720 LINE",
"1100 2720 LINE",
"1179.588 1900.888 LINE",
"1248 1168 LINE",
"824 1168 LINE"
);
}
);
width = 2072;
},
{
anchors = (
{
name = bottom;
position = "{996, 0}";
},
{
name = ogonek;
position = "{1523.58, 0}";
},
{
name = top;
position = "{996, 3200}";
}
);
background = {
paths = (
{
closed = 1;
nodes = (
"696 0 LINE",
"764 668 LINE",
"1228 668 LINE",
"1296 0 LINE",
"1912 0 LINE",
"1468 3200 LINE",
"524 3200 LINE",
"80 0 LINE"
);
},
{
closed = 1;
nodes = (
"892 1904 LINE",
"940 2672 LINE",
"1052 2672 LINE",
"1100 1904 LINE",
"1172 1196 LINE",
"820 1196 LINE"
);
}
);
};
color = -1;
layerId = "5013C991-8699-46CB-BB1C-82E334DBD38B";
paths = (
{
closed = 1;
nodes = (
"202.212 0 LINE",
"628 3102.5 LINE",
"1364 3102.5 LINE",
"1789.788 0 LINE",
"1912 0 LINE",
"1468 3200 LINE",
"524 3200 LINE",
"80 0 LINE"
);
},
{
closed = 1;
nodes = (
"688 0 LINE",
"768 688 LINE",
"1224 688 LINE",
"1304 0 LINE",
"1428 0 LINE",
"1320 784 LINE",
"672 784 LINE",
"564 0 LINE"
);
},
{
closed = 1;
nodes = (
"444 0 LINE",
"556 880 LINE",
"1436 880 LINE",
"1548 0 LINE",
"1672 0 LINE",
"1292 3005 LINE",
"700 3005 LINE",
"320 0 LINE"
);
},
{
closed = 1;
nodes = (
"669.552 1900.888 LINE",
"804 2907.5 LINE",
"1188 2907.5 LINE",
"1318.448 1900.888 LINE",
"1424 976 LINE",
"564 976 LINE"
);
},
{
closed = 1;
nodes = (
"1292 1072 LINE",
"1211.192 1900.888 LINE",
"1108 2817.5 LINE",
"884 2817.5 LINE",
"784.808 1900.888 LINE",
"700 1072 LINE"
);
},
{
closed = 1;
nodes = (
"892.412 1900.888 LINE",
"972 2720 LINE",
"1020 2720 LINE",
"1099.588 1900.888 LINE",
"1168 1168 LINE",
"824 1168 LINE"
);
}
);
width = 1992;
},
{
anchors = (
{
name = bottom;
position = "{532, 0}";
},
{
name = ogonek;
position = "{904, 0}";
},
{
name = top;
position = "{532, 3200}";
}
);
background = {
paths = (
{
closed = 1;
nodes = (
"200 0 LINE",
"292 1072 LINE",
"764 1072 LINE",
"856 0 LINE",
"936 0 LINE",
"652 3200 LINE",
"404 3200 LINE",
"120 0 LINE"
);
},
{
closed = 1;
nodes = (
"360 1844 LINE",
"472 3120 LINE",
"584 3120 LINE",
"696 1848 LINE",
"756 1152 LINE",
"300 1152 LINE"
);
}
);
};
layerId = "3D06B89B-468F-44E0-A3D7-A5BC6911123E";
paths = (
{
closed = 1;
nodes = (
"136 0 LINE",
"420 3184 LINE",
"636 3184 LINE",
"920 0 LINE",
"936 0 LINE",
"652 3200 LINE",
"404 3200 LINE",
"120 0 LINE"
);
},
{
closed = 1;
nodes = (
"200 0 LINE",
"296 1072 LINE",
"760 1072 LINE",
"856 0 LINE",
"872 0 LINE",
"776 1088 LINE",
"280 1088 LINE",
"184 0 LINE"
);
},
{
closed = 1;
nodes = (
"168 0 LINE",
"268 1104 LINE",
"788 1104 LINE",
"888 0 LINE",
"904 0 LINE",
"624 3168 LINE",
"432 3168 LINE",
"152 0 LINE"
);
},
{
closed = 1;
nodes = (
"341.104 1945.264 LINE",
"448 3152 LINE",
"608 3152 LINE",
"714.576 1944.796 LINE",
"788 1120 LINE",
"268 1120 LINE"
);
},
{
closed = 1;
nodes = (
"772 1136 LINE",
"699.192 1944.796 LINE",
"592 3136 LINE",
"464 3136 LINE",
"356.784 1944.796 LINE",
"284 1136 LINE"
);
},
{
closed = 1;
nodes = (
"373.584 1944.796 LINE",
"480 3120 LINE",
"576 3120 LINE",
"682.392 1944.796 LINE",
"752 1152 LINE",
"304 1152 LINE"
);
}
);
width = 1056;
}
);
leftKerningGroup = A;
rightKerningGroup = A;
unicode = 0041;
},
{
glyphname = AE;
layers = (
{
anchors = (
{
name = bottom;
position = "{948, 0}";
},
{
name = ogonek;
position = "{1772, 8}";
},
{
name = top;
position = "{1116, 3200}";
},
{
name = topleft;
position = "{1020, 3200}";
}
);
background = {
paths = (
{
closed = 0;
nodes = (
"1816 3200 LINE",
"696 3200 LINE",
"160 0 LINE"
);
},
{
closed = 1;
nodes = (
"636 1828 LINE",
"828 3052 LINE",
"980 3052 LINE",
"980 1160 LINE",
"524 1160 LINE"
);
},
{
closed = 0;
nodes = (
"160 0 LINE",
"328 0 LINE",
"496 1008 LINE",
"980 1008 LINE",
"980 0 LINE",
"1816 0 LINE",
"1816 152 LINE",
"1140 152 LINE",
"1140 1524 LINE",
"1776 1524 LINE",
"1776 1676 LINE",
"1140 1676 LINE",
"1140 3048 LINE",
"1816 3048 LINE",
"1816 3200 LINE"
);
}
);
};
layerId = "3B122060-26E0-4730-9241-82784E6CB359";
paths = (
{
closed = 1;
nodes = (
"192 0 LINE",
"724 3172 LINE",
"1816 3172 LINE",
"1816 3200 LINE",
"696 3200 LINE",
"160 0 LINE"
);
},
{
closed = 1;
nodes = (
"260 0 LINE",
"440 1096 LINE",
"1044 1096 LINE",
"1044 56 LINE",
"1816 56 LINE",
"1816 84 LINE",
"1076 84 LINE",
"1076 1586 LINE",
"1776 1586 LINE",
"1776 1614 LINE",
"1076 1614 LINE",
"1076 3116 LINE",
"1816 3116 LINE",
"1816 3144 LINE",
"752 3144 LINE",
"228 0 LINE"
);
},
{
closed = 1;
nodes = (
"320 0 LINE",
"492 1042 LINE",
"980 1042 LINE",
"980 0 LINE",
"1816 0 LINE",
"1816 28 LINE",
"1012 28 LINE",
"1012 1070 LINE",
"468 1070 LINE",
"292 0 LINE"
);
},
{
closed = 1;
nodes = (
"776 3116 LINE",
"1044 3116 LINE",
"1044 1124 LINE",
"448 1124 LINE"
);
},
{
closed = 1;
nodes = (
"1012 1154 LINE",
"1012 3088 LINE",
"804 3088 LINE",
"484 1154 LINE"
);
},
{
closed = 1;
nodes = (
"832 3060 LINE",
"980 3060 LINE",
"980 1182 LINE",
"520 1182 LINE"
);
},
{
closed = 1;
nodes = (
"1776 1642 LINE",
"1776 1670 LINE",
"1140 1670 LINE",
"1140 3060 LINE",
"1816 3060 LINE",
"1816 3088 LINE",
"1108 3088 LINE",
"1108 1642 LINE"
);
},
{
closed = 1;
nodes = (
"1816 112 LINE",
"1816 140 LINE",
"1140 140 LINE",
"1140 1530 LINE",
"1776 1530 LINE",
"1776 1558 LINE",
"1108 1558 LINE",
"1108 112 LINE"
);
}
);
width = 2016;
},
{
anchors = (
{
name = bottom;
position = "{1524, 0}";
},
{
name = ogonek;
position = "{2832, 40}";
},
{
name = top;
position = "{1724, 3200}";
},
{
name = topleft;
position = "{1384, 3200}";
}
);
background = {
paths = (
{
closed = 1;
nodes = (
"2848 3200 LINE",
"744 3200 LINE",
"80 0 LINE",
"736 0 LINE",
"880 668 LINE",
"1384 668 LINE",
"1384 0 LINE",
"2848 0 LINE",
"2848 528 LINE",
"1984 528 LINE",
"1984 1364 LINE",
"2808 1364 LINE",
"2808 1892 LINE",
"1984 1892 LINE",
"1984 2672 LINE",
"2848 2672 LINE"
);
},
{
closed = 1;
nodes = (
"1112 1744 LINE",
"1200 2672 LINE",
"1384 2672 LINE",
"1384 1196 LINE",
"992 1196 LINE"
);
}
);
};
color = -1;
layerId = "1DFA7D5B-2E97-4B89-827F-FB43F8066DC1";
paths = (
{
closed = 1;
nodes = (
"200.98 0 LINE",
"840 3096 LINE",
"2848 3096 LINE",
"2848 3200 LINE",
"744 3200 LINE",
"80 0 LINE"
);
},
{
closed = 1;
nodes = (
"448 0 LINE",
"632 896 LINE",
"1624 896 LINE",
"1624 208 LINE",
"2848 208 LINE",
"2848 312 LINE",
"1744 312 LINE",
"1744 1576 LINE",
"2808 1576 LINE",
"2808 1680 LINE",
"1744 1680 LINE",
"1744 2888 LINE",
"2848 2888 LINE",
"2848 2992 LINE",
"940 2992 LINE",
"324 0 LINE"
);
},
{
closed = 1;
nodes = (
"692 0 LINE",
"828 688 LINE",
"1384 688 LINE",
"1384 0 LINE",
"2848 0 LINE",
"2848 104 LINE",
"1504 104 LINE",
"1504 792 LINE",
"728 792 LINE",
"568 0 LINE"
);
},
{
closed = 1;
nodes = (
"1036 2888 LINE",
"1624 2888 LINE",
"1624 1000 LINE",
"656 1000 LINE"
);
},
{
closed = 1;
nodes = (
"1504 1104 LINE",
"1504 2784 LINE",
"1136 2784 LINE",
"804 1104 LINE"
);
},
{
closed = 1;
nodes = (
"1232 2680 LINE",
"1384 2680 LINE",
"1384 1208 LINE",
"952 1208 LINE"
);
},
{
closed = 1;
nodes = (
"2808 1784 LINE",
"2808 1888 LINE",
"1984 1888 LINE",
"1984 2680 LINE",
"2848 2680 LINE",
"2848 2784 LINE",
"1864 2784 LINE",
"1864 1784 LINE"
);
},
{
closed = 1;
nodes = (
"2848 416 LINE",
"2848 520 LINE",
"1984 520 LINE",
"1984 1368 LINE",
"2808 1368 LINE",
"2808 1472 LINE",
"1864 1472 LINE",
"1864 416 LINE"
);
}
);
width = 2928;
},
{
anchors = (
{
name = bottom;
position = "{1444, 0}";
},
{
name = ogonek;
position = "{2684, 40}";
},
{
name = top;
position = "{1644, 3200}";
},
{
name = topleft;
position = "{1224, 3200}";
}
);
background = {
paths = (
{
closed = 1;
nodes = (
"2688 3200 LINE",
"744 3200 LINE",
"80 0 LINE",
"736 0 LINE",
"880 668 LINE",
"1304 668 LINE",
"1304 0 LINE",
"2688 0 LINE",
"2688 528 LINE",
"1904 528 LINE",
"1904 1364 LINE",
"2648 1364 LINE",
"2648 1892 LINE",
"1904 1892 LINE",
"1904 2672 LINE",
"2688 2672 LINE"
);
},
{
closed = 1;
nodes = (
"1112 1744 LINE",
"1200 2672 LINE",
"1304 2672 LINE",
"1304 1196 LINE",
"992 1196 LINE"
);
}
);
};
color = -1;
layerId = "5013C991-8699-46CB-BB1C-82E334DBD38B";
paths = (
{
closed = 1;
nodes = (
"200 0 LINE",
"840 3096 LINE",
"2688 3096 LINE",
"2688 3200 LINE",
"744 3200 LINE",
"80 0 LINE"
);
},
{
closed = 1;
nodes = (
"448 0 LINE",
"632 896 LINE",
"1544 896 LINE",
"1544 208 LINE",
"2688 208 LINE",
"2688 312 LINE",
"1664 312 LINE",
"1664 1576 LINE",
"2648 1576 LINE",
"2648 1680 LINE",
"1664 1680 LINE",
"1664 2888 LINE",
"2688 2888 LINE",
"2688 2992 LINE",
"940 2992 LINE",
"324 0 LINE"
);
},
{
closed = 1;
nodes = (
"692 0 LINE",
"828 688 LINE",
"1304 688 LINE",
"1304 0 LINE",
"2688 0 LINE",
"2688 104 LINE",
"1424 104 LINE",
"1424 792 LINE",
"728 792 LINE",
"568 0 LINE"
);
},
{
closed = 1;
nodes = (
"1036 2888 LINE",
"1544 2888 LINE",
"1544 1000 LINE",
"656 1000 LINE"
);
},
{
closed = 1;
nodes = (
"1424 1104 LINE",
"1424 2784 LINE",
"1136 2784 LINE",
"804 1104 LINE"
);
},
{
closed = 1;
nodes = (
"1232 2680 LINE",
"1304 2680 LINE",
"1304 1208 LINE",
"952 1208 LINE"
);
},
{
closed = 1;
nodes = (
"2648 1784 LINE",
"2648 1888 LINE",
"1904 1888 LINE",
"1904 2680 LINE",
"2688 2680 LINE",
"2688 2784 LINE",
"1784 2784 LINE",
"1784 1784 LINE"
);
},
{
closed = 1;
nodes = (
"2688 416 LINE",
"2688 520 LINE",
"1904 520 LINE",
"1904 1368 LINE",
"2648 1368 LINE",
"2648 1472 LINE",
"1784 1472 LINE",
"1784 416 LINE"
);
}
);
width = 2768;
},
{
anchors = (
{
name = bottom;
position = "{680, 0}";
},
{
name = ogonek;
position = "{1312, 4}";
},
{
name = top;
position = "{820, 3200}";
},
{
name = topleft;
position = "{632, 3200}";
}
);
background = {
paths = (
{
closed = 0;
nodes = (
"1348 3200 LINE",
"564 3200 LINE",
"120 0 LINE"
);
},
{
closed = 1;
nodes = (
"452 1844 LINE",
"632 3120 LINE",
"712 3120 LINE",
"712 1152 LINE",
"356 1152 LINE"
);
},
{
closed = 0;
nodes = (
"120 0 LINE",
"200 0 LINE",
"348 1072 LINE",
"712 1072 LINE",
"712 0 LINE",
"1348 0 LINE",
"1348 80 LINE",
"792 80 LINE",
"792 1560 LINE",
"1308 1560 LINE",
"1308 1640 LINE",
"792 1640 LINE",
"792 3120 LINE",
"1348 3120 LINE",
"1348 3200 LINE"
);
}
);
};
layerId = "3D06B89B-468F-44E0-A3D7-A5BC6911123E";
paths = (
{
closed = 1;
nodes = (
"136.552 0 LINE",
"576 3184 LINE",
"1344 3184 LINE",
"1344 3200 LINE",
"564 3200 LINE",
"120 0 LINE"
);
},
{
closed = 1;
nodes = (
"169.092 0 LINE",
"320 1104 LINE",
"740 1104 LINE",
"740 32 LINE",
"1344 32 LINE",
"1344 48 LINE",
"756 48 LINE",
"756 1592 LINE",
"1304 1592 LINE",
"1304 1608 LINE",
"756 1608 LINE",
"756 3152 LINE",
"1344 3152 LINE",
"1344 3168 LINE",
"592 3168 LINE",
"152.556 0 LINE"
);
},
{
closed = 1;
nodes = (
"201.64 0 LINE",
"348 1072 LINE",
"708 1072 LINE",
"708 0 LINE",
"1344 0 LINE",
"1344 16 LINE",
"724 16 LINE",
"724 1088 LINE",
"336 1088 LINE",
"185.108 0 LINE"
);
},
{
closed = 1;
nodes = (
"604 3152 LINE",
"740 3152 LINE",
"740 1120 LINE",
"324 1120 LINE"
);
},
{
closed = 1;
nodes = (
"724 1136 LINE",
"724 3136 LINE",
"620 3136 LINE",
"344 1136 LINE"
);
},
{
closed = 1;
nodes = (
"632 3120 LINE",
"708 3120 LINE",
"708 1152 LINE",
"360 1152 LINE"
);
},
{
closed = 1;
nodes = (
"1304 1624 LINE",
"1304 1640 LINE",
"788 1640 LINE",
"788 3120 LINE",
"1344 3120 LINE",
"1344 3136 LINE",
"772 3136 LINE",
"772 1624 LINE"
);
},
{
closed = 1;
nodes = (
"1344 64 LINE",
"1344 80 LINE",
"788 80 LINE",
"788 1560 LINE",
"1304 1560 LINE",
"1304 1576 LINE",
"772 1576 LINE",
"772 64 LINE"
);
}
);
width = 1504;
}
);
leftKerningGroup = A;
rightKerningGroup = E;
unicode = 00C6;
},
{
glyphname = B;
layers = (
{
background = {
paths = (
{
closed = 1;
nodes = (
"771.92 0 LINE SMOOTH",
"1095.92 0 OFFCURVE",
"1227.92 112 OFFCURVE",
"1235.92 392 CURVE SMOOTH",
"1243.92 704 OFFCURVE",
"1247.92 932 OFFCURVE",
"1235.92 1248 CURVE SMOOTH",
"1227.92 1436 OFFCURVE",
"1155.92 1540 OFFCURVE",
"979.92 1580 CURVE",
"979.92 1620 LINE",
"1147.92 1656 OFFCURVE",
"1211.92 1760 OFFCURVE",
"1219.92 1952 CURVE SMOOTH",
"1227.92 2204 OFFCURVE",
"1223.92 2436 OFFCURVE",
"1219.92 2808 CURVE SMOOTH",
"1215.92 3088 OFFCURVE",
"1083.92 3200 OFFCURVE",
"755.92 3200 CURVE SMOOTH",
"279.92 3200 LINE",
"279.92 0 LINE"
);
},
{
closed = 1;
nodes = (
"439.92 1520 LINE",
"787.92 1520 LINE SMOOTH",
"1003.92 1520 OFFCURVE",
"1067.92 1460 OFFCURVE",
"1075.92 1248 CURVE SMOOTH",
"1087.92 936 OFFCURVE",
"1087.92 704 OFFCURVE",
"1075.92 392 CURVE SMOOTH",
"1067.92 208 OFFCURVE",
"1007.92 160 OFFCURVE",
"771.92 160 CURVE SMOOTH",
"439.92 160 LINE"
);
},
{
closed = 1;
nodes = (
"439.92 3048 LINE",
"755.92 3048 LINE SMOOTH",
"991.92 3048 OFFCURVE",
"1055.92 2996 OFFCURVE",
"1059.92 2808 CURVE SMOOTH",
"1067.92 2496 OFFCURVE",
"1071.92 2264 OFFCURVE",
"1059.92 1952 CURVE SMOOTH",
"1051.92 1740 OFFCURVE",
"1003.92 1680 OFFCURVE",
"803.92 1680 CURVE SMOOTH",
"439.92 1680 LINE"
);
}
);
};
layerId = "3B122060-26E0-4730-9241-82784E6CB359";
paths = (
{
closed = 1;
nodes = (
"733.92 0 LINE SMOOTH",
"1085.336 0 OFFCURVE",
"1229.908 123.816 OFFCURVE",
"1239.92 433.352 CURVE SMOOTH",
"1251.912 804.168 OFFCURVE",
"1250.416 996.092 OFFCURVE",
"1239.92 1248 CURVE SMOOTH",
"1233.124 1411.148 OFFCURVE",
"1140.472 1561.124 OFFCURVE",
"1007.732 1599.688 CURVE",
"1007.92 1607.688 LINE",
"1137.404 1650.204 OFFCURVE",
"1209.964 1771.58 OFFCURVE",
"1219.484 1952.016 CURVE SMOOTH",
"1232.144 2191.984 OFFCURVE",
"1232.172 2403.004 OFFCURVE",
"1219.696 2768 CURVE SMOOTH",
"1209.148 3076.572 OFFCURVE",
"1065.212 3200 OFFCURVE",
"715.92 3200 CURVE SMOOTH",
"279.98 3200 LINE",
"279.98 0 LINE"
);
},
{
closed = 1;
nodes = (
"311.98 3172 LINE",
"715.92 3172 LINE SMOOTH",
"1045.128 3172 OFFCURVE",
"1179.924 3056.456 OFFCURVE",
"1187.704 2767.596 CURVE SMOOTH",
"1197.516 2403.304 OFFCURVE",
"1202.72 2191.16 OFFCURVE",
"1187.94 1953.172 CURVE SMOOTH",
"1175.772 1757.276 OFFCURVE",
"1099.848 1642.416 OFFCURVE",
"934.236 1606.444 CURVE",
"934.236 1598.444 LINE",
"1079.964 1574.94 OFFCURVE",
"1199.728 1439.344 OFFCURVE",
"1207.94 1246.828 CURVE SMOOTH",
"1218.648 995.868 OFFCURVE",
"1219.92 804.56 OFFCURVE",
"1207.924 433.352 CURVE SMOOTH",
"1198.568 143.816 OFFCURVE",
"1063.14 28 OFFCURVE",
"733.92 28 CURVE SMOOTH",
"311.98 28 LINE"
);
},
{
closed = 1;
nodes = (
"733.92 57.316 LINE SMOOTH",
"1038.132 57.316 OFFCURVE",
"1163.276 164.756 OFFCURVE",
"1171.924 433.352 CURVE SMOOTH",
"1183.928 806.284 OFFCURVE",
"1182.38 997.128 OFFCURVE",
"1171.964 1247.156 CURVE SMOOTH",
"1164.536 1425.412 OFFCURVE",
"1058.912 1578.872 OFFCURVE",
"882.496 1597.504 CURVE",
"882.496 1605.504 LINE",
"1048.036 1630.848 OFFCURVE",
"1145.34 1770.984 OFFCURVE",
"1155.56 1954.36 CURVE SMOOTH",
"1168.828 2192.424 OFFCURVE",
"1168.16 2401.604 OFFCURVE",
"1155.716 2767.196 CURVE SMOOTH",
"1146.556 3036.34 OFFCURVE",
"1020.9 3144 OFFCURVE",
"715.92 3144 CURVE SMOOTH",
"343.98 3144 LINE",
"343.98 57.316 LINE"
);
},
{
closed = 1;
nodes = (
"375.98 3116 LINE",
"715.92 3116 LINE SMOOTH",
"998.74 3116 OFFCURVE",
"1115.26 3016.228 OFFCURVE",
"1123.732 2766.796 CURVE SMOOTH",
"1136.144 2401.412 OFFCURVE",
"1136.272 2192.676 OFFCURVE",
"1123.58 1955.536 CURVE SMOOTH",
"1114.568 1787.14 OFFCURVE",
"1012.06 1614.816 OFFCURVE",
"821 1615 CURVE SMOOTH",
"376 1615 LINE"
);
},
{
closed = 1;
nodes = (
"820.42 1642.316 LINE SMOOTH",
"994.072 1642.316 OFFCURVE",
"1083.544 1802.664 OFFCURVE",
"1091.628 1956.708 CURVE SMOOTH",
"1104.024 2192.916 OFFCURVE",
"1104.14 2400.084 OFFCURVE",
"1091.744 2766.396 CURVE SMOOTH",
"1083.972 2996.112 OFFCURVE",
"976.592 3088 OFFCURVE",
"715.92 3088 CURVE SMOOTH",
"407.98 3088 LINE",
"407.98 1642.324 LINE"
);
},
{
closed = 1;
nodes = (
"439.98 3060 LINE",
"715.92 3060 LINE SMOOTH",
"954.428 3060 OFFCURVE",
"1052.668 2976 OFFCURVE",
"1059.76 2765.996 CURVE SMOOTH",
"1072.124 2399.724 OFFCURVE",
"1072.008 2194.008 OFFCURVE",
"1059.68 1957.88 CURVE SMOOTH",
"1052.544 1821.18 OFFCURVE",
"977.9 1670.084 OFFCURVE",
"820.42 1670.084 CURVE SMOOTH",
"439.98 1670.084 LINE"
);
},
{
closed = 1;
nodes = (
"375.98 1586.78 LINE",
"824.42 1586.78 LINE SMOOTH",
"1015.74 1586.78 OFFCURVE",
"1132.784 1418.756 OFFCURVE",
"1139.984 1245.984 CURVE SMOOTH",
"1150.364 996.896 OFFCURVE",
"1151.936 806.684 OFFCURVE",
"1139.928 433.352 CURVE SMOOTH",
"1131.932 184.756 OFFCURVE",
"1015.932 85.316 OFFCURVE",
"733.92 85.316 CURVE SMOOTH",
"375.98 85.316 LINE"
);
},
{
closed = 1;
nodes = (
"731.92 112 LINE SMOOTH",
"993.096 112 OFFCURVE",
"1100.528 203.888 OFFCURVE",
"1107.932 433.604 CURVE SMOOTH",
"1119.932 805.792 OFFCURVE",
"1118.348 995.164 OFFCURVE",
"1108.008 1243.304 CURVE SMOOTH",
"1101.584 1397.452 OFFCURVE",
"1006.072 1557.708 OFFCURVE",
"832.42 1557.708 CURVE SMOOTH",
"407.98 1557.708 LINE",
"407.98 112 LINE"
);
},
{
closed = 1;
nodes = (
"440 1530 LINE",
"837 1530 LINE SMOOTH",
"993.9 1529.748 OFFCURVE",
"1070.328 1378.92 OFFCURVE",
"1076.028 1242.132 CURVE SMOOTH",
"1086.328 994.932 OFFCURVE",
"1087.936 806.24 OFFCURVE",
"1075.932 434.004 CURVE SMOOTH",
"1069.16 224 OFFCURVE",
"970.872 140 OFFCURVE",
"731.92 140 CURVE SMOOTH",
"439.98 140 LINE"
);
}
);
width = 1488.36;
},
{
background = {
paths = (
{
closed = 1;
nodes = (
"980 0 LINE SMOOTH",
"1576 0 OFFCURVE",
"1816 224 OFFCURVE",
"1840 780 CURVE SMOOTH",
"1844 872 OFFCURVE",
"1844 940 OFFCURVE",
"1840 1028 CURVE SMOOTH",
"1828 1328 OFFCURVE",
"1720 1496 OFFCURVE",
"1476 1576 CURVE",
"1476 1672 LINE",
"1712 1752 OFFCURVE",
"1816 1916 OFFCURVE",
"1836 2208 CURVE SMOOTH",
"1840 2276 OFFCURVE",
"1840 2344 OFFCURVE",
"1840 2420 CURVE SMOOTH",
"1840 2976 OFFCURVE",
"1576 3200 OFFCURVE",
"980 3200 CURVE SMOOTH",
"160 3200 LINE",
"160 0 LINE"
);
},
{
closed = 1;
nodes = (
"760 1364 LINE",
"980 1364 LINE SMOOTH",
"1164 1364 OFFCURVE",
"1240 1264 OFFCURVE",
"1240 1000 CURVE SMOOTH",
"1240 928 OFFCURVE",
"1240 860 OFFCURVE",
"1240 788 CURVE SMOOTH",
"1240 620 OFFCURVE",
"1148 528 OFFCURVE",
"980 528 CURVE SMOOTH",
"760 528 LINE"
);
},
{
closed = 1;
nodes = (
"760 2672 LINE",
"980 2672 LINE SMOOTH",
"1148 2672 OFFCURVE",
"1240 2592 OFFCURVE",
"1240 2452 CURVE SMOOTH",
"1240 2376 OFFCURVE",
"1240 2300 OFFCURVE",
"1240 2224 CURVE SMOOTH",
"1240 2012 OFFCURVE",
"1148 1892 OFFCURVE",
"980 1892 CURVE SMOOTH",
"760 1892 LINE"
);
},
{
closed = 0;
nodes = (
"1556.096 2420 LINE SMOOTH",
"1523.56 2804.36 OFFCURVE",
"1382.856 2960 OFFCURVE",
"940 2960 CURVE SMOOTH"
);
},
{
closed = 0;
nodes = (
"940 2840 LINE SMOOTH",
"1297.144 2840 OFFCURVE",
"1415.412 2719.22 OFFCURVE",
"1437.2 2420 CURVE SMOOTH"
);
},
{
closed = 0;
nodes = (
"980 0 LINE SMOOTH",
"1574.472 0 OFFCURVE",
"1805.604 230.008 OFFCURVE",
"1840 836.436 CURVE SMOOTH"
);
},
{
closed = 0;
nodes = (
"1720.136 836.436 LINE SMOOTH",
"1693.064 317.076 OFFCURVE",
"1491.664 120 OFFCURVE",
"980 120 CURVE SMOOTH"
);
}
);
};
layerId = "1DFA7D5B-2E97-4B89-827F-FB43F8066DC1";
paths = (
{
closed = 1;
nodes = (
"996 0 LINE SMOOTH",
"1556.412 0 OFFCURVE",
"1801.14 214.06 OFFCURVE",
"1852.548 749.216 CURVE SMOOTH",
"1862.14 849.064 OFFCURVE",
"1862.14 897.924 OFFCURVE",
"1860 1028 CURVE SMOOTH",
"1855.02 1330.788 OFFCURVE",
"1720.736 1546.568 OFFCURVE",
"1484 1632.18 CURVE",
"1484 1652.98 LINE",
"1717.156 1755.6 OFFCURVE",
"1800.792 1900.436 OFFCURVE",
"1824 2156.884 CURVE SMOOTH",
"1830.856 2232.636 OFFCURVE",
"1832 2296.34 OFFCURVE",
"1832 2369.856 CURVE SMOOTH",
"1832 2962.816 OFFCURVE",
"1588.572 3200 OFFCURVE",
"980 3200 CURVE SMOOTH",
"160 3200 LINE",
"160 0 LINE"
);
},
{
closed = 1;
nodes = (
"280 3096 LINE",
"980 3096 LINE SMOOTH",
"1502.856 3096 OFFCURVE",
"1712 2888.532 OFFCURVE",
"1712 2369.856 CURVE SMOOTH",
"1712 2297.908 OFFCURVE",
"1710.928 2234.984 OFFCURVE",
"1704.244 2159.62 CURVE SMOOTH",
"1681.444 1902.536 OFFCURVE",
"1586.712 1761.26 OFFCURVE",
"1351.032 1654.376 CURVE",
"1351.032 1626.64 LINE",
"1607.212 1521.468 OFFCURVE",
"1734.236 1349.632 OFFCURVE",
"1740.108 1022.876 CURVE SMOOTH",
"1742.288 901.572 OFFCURVE",
"1742.288 838.172 OFFCURVE",
"1732.176 749.284 CURVE SMOOTH",
"1679.74 288.368 OFFCURVE",
"1469.404 104 OFFCURVE",
"996 104 CURVE SMOOTH",
"280 104 LINE"
);
},
{
closed = 1;
nodes = (
"996 208 LINE SMOOTH",
"1404.188 208 OFFCURVE",
"1580.548 362.616 OFFCURVE",
"1613.26 749.152 CURVE SMOOTH",
"1621.028 840.944 OFFCURVE",
"1622.168 902.88 OFFCURVE",
"1620.22 1017.756 CURVE SMOOTH",
"1614.64 1346.716 OFFCURVE",
"1490.388 1521.628 OFFCURVE",
"1218.064 1630.964 CURVE",
"1218.06 1644.832 LINE",
"1464.632 1753.724 OFFCURVE",
"1564.212 1896.876 OFFCURVE",
"1584.488 2156.884 CURVE SMOOTH",
"1590.996 2240.332 OFFCURVE",
"1592 2304.04 OFFCURVE",
"1592 2369.856 CURVE SMOOTH",
"1592 2814.244 OFFCURVE",
"1417.144 2992 OFFCURVE",
"980 2992 CURVE SMOOTH",
"400 2992 LINE",
"400 208 LINE"
);
},
{
closed = 1;
nodes = (
"520 2888 LINE",
"980 2888 LINE SMOOTH",
"1331.428 2888 OFFCURVE",
"1472 2739.96 OFFCURVE",
"1472 2369.856 CURVE SMOOTH",
"1472 2302.808 OFFCURVE",
"1471.068 2239.1 OFFCURVE",
"1464.732 2156.884 CURVE SMOOTH",
"1438.236 1813.056 OFFCURVE",
"1282.8 1680 OFFCURVE",
"905.012 1680 CURVE SMOOTH",
"520 1680 LINE"
);
},
{
closed = 1;
nodes = (
"905.012 1784 LINE SMOOTH",
"1204.312 1784 OFFCURVE",
"1323.336 1887.52 OFFCURVE",
"1344.964 2156.884 CURVE SMOOTH",
"1351.132 2233.704 OFFCURVE",
"1352 2297.408 OFFCURVE",
"1352 2369.856 CURVE SMOOTH",
"1352 2665.672 OFFCURVE",
"1245.716 2784 OFFCURVE",
"980 2784 CURVE SMOOTH",
"640 2784 LINE",
"640 1784 LINE"
);
},
{
closed = 1;
nodes = (
"760 2680 LINE",
"980 2680 LINE SMOOTH",
"1160 2680 OFFCURVE",
"1232 2591.388 OFFCURVE",
"1232 2369.856 CURVE SMOOTH",
"1232 2300.084 OFFCURVE",
"1231.2 2236.376 OFFCURVE",
"1225.196 2156.884 CURVE SMOOTH",
"1210.464 1961.816 OFFCURVE",
"1125.668 1888 OFFCURVE",
"905.012 1888 CURVE SMOOTH",
"760 1888 LINE"
);
},
{
closed = 1;
nodes = (
"520 1576 LINE",
"945.012 1576 LINE SMOOTH",
"1325.564 1576 OFFCURVE",
"1494.104 1415.308 OFFCURVE",
"1500.328 1012.632 CURVE SMOOTH",
"1502.04 901.84 OFFCURVE",
"1500.9 841.368 OFFCURVE",
"1493.532 749.136 CURVE SMOOTH",
"1468.588 436.896 OFFCURVE",
"1326.436 312 OFFCURVE",
"996 312 CURVE SMOOTH",
"520 312 LINE"
);
},
{
closed = 1;
nodes = (
"996 416 LINE SMOOTH",
"1246.456 416 OFFCURVE",
"1354.34 511.184 OFFCURVE",
"1373.592 749.14 CURVE SMOOTH",
"1381.184 842.964 OFFCURVE",
"1382.324 901.972 OFFCURVE",
"1380.44 1007.508 CURVE SMOOTH",
"1374.512 1339.576 OFFCURVE",
"1240.976 1472 OFFCURVE",
"945.012 1472 CURVE SMOOTH",
"640 1472 LINE",
"640 416 LINE"
);
},
{
closed = 1;
nodes = (
"760 1368 LINE",
"945.012 1368 LINE SMOOTH",
"1159.94 1368 OFFCURVE",
"1257.048 1263.724 OFFCURVE",
"1260.548 1002.388 CURVE SMOOTH",
"1261.836 906.188 OFFCURVE",
"1260.7 848.644 OFFCURVE",
"1254.224 749.088 CURVE SMOOTH",
"1243.58 585.452 OFFCURVE",
"1169.804 520 OFFCURVE",
"996 520 CURVE SMOOTH",
"760 520 LINE"
);
}
);
width = 1961.16;
},
{
background = {
paths = (
{
closed = 1;
nodes = (
"900 0 LINE SMOOTH",
"1496 0 OFFCURVE",
"1736 224 OFFCURVE",
"1760 780 CURVE SMOOTH",
"1764 872 OFFCURVE",
"1764 940 OFFCURVE",
"1760 1028 CURVE SMOOTH",
"1748 1328 OFFCURVE",
"1640 1496 OFFCURVE",
"1396 1576 CURVE",
"1396 1672 LINE",
"1632 1752 OFFCURVE",
"1736 1916 OFFCURVE",
"1756 2208 CURVE SMOOTH",
"1760 2276 OFFCURVE",
"1760 2344 OFFCURVE",
"1760 2420 CURVE SMOOTH",
"1760 2976 OFFCURVE",
"1496 3200 OFFCURVE",
"900 3200 CURVE SMOOTH",
"160 3200 LINE",
"160 0 LINE"
);
},
{
closed = 1;
nodes = (
"760 1364 LINE",
"900 1364 LINE SMOOTH",
"1084 1364 OFFCURVE",
"1160 1264 OFFCURVE",
"1160 1000 CURVE SMOOTH",
"1160 928 OFFCURVE",
"1160 860 OFFCURVE",
"1160 788 CURVE SMOOTH",
"1160 620 OFFCURVE",
"1068 528 OFFCURVE",
"900 528 CURVE SMOOTH",
"760 528 LINE"
);
},
{
closed = 1;
nodes = (
"760 2672 LINE",
"900 2672 LINE SMOOTH",
"1068 2672 OFFCURVE",
"1160 2592 OFFCURVE",
"1160 2452 CURVE SMOOTH",
"1160 2376 OFFCURVE",
"1160 2300 OFFCURVE",
"1160 2224 CURVE SMOOTH",
"1160 2012 OFFCURVE",
"1068 1892 OFFCURVE",
"900 1892 CURVE SMOOTH",
"760 1892 LINE"
);
}
);
};
layerId = "5013C991-8699-46CB-BB1C-82E334DBD38B";
paths = (
{
closed = 1;
nodes = (
"916 0 LINE SMOOTH",
"1506.164 0 OFFCURVE",
"1722.752 230.844 OFFCURVE",
"1772.548 749.216 CURVE SMOOTH",
"1782.14 849.064 OFFCURVE",
"1782.14 897.924 OFFCURVE",
"1780 1028 CURVE SMOOTH",
"1774.992 1332.384 OFFCURVE",
"1632.576 1543.12 OFFCURVE",
"1404 1632.18 CURVE",
"1404 1652.98 LINE",
"1618.076 1749.804 OFFCURVE",
"1742.136 1899.2 OFFCURVE",
"1752 2160.884 CURVE SMOOTH",
"1754.856 2236.636 OFFCURVE",
"1760 2296.34 OFFCURVE",
"1760 2369.856 CURVE SMOOTH",
"1760 2962.816 OFFCURVE",
"1514.284 3200 OFFCURVE",
"900 3200 CURVE SMOOTH",
"160 3200 LINE",
"160 0 LINE"
);
},
{
closed = 1;
nodes = (
"280 3096 LINE",
"900 3096 LINE SMOOTH",
"1428.572 3096 OFFCURVE",
"1640 2888.532 OFFCURVE",
"1640 2369.856 CURVE SMOOTH",
"1640 2297.908 OFFCURVE",
"1634.928 2238.984 OFFCURVE",
"1632.244 2163.62 CURVE SMOOTH",
"1623.06 1905.692 OFFCURVE",
"1506.712 1761.26 OFFCURVE",
"1271.032 1654.376 CURVE",
"1271.032 1626.64 LINE",
"1527.212 1521.468 OFFCURVE",
"1654.236 1349.632 OFFCURVE",
"1660.108 1022.876 CURVE SMOOTH",
"1662.288 901.572 OFFCURVE",
"1662.288 838.172 OFFCURVE",
"1652.176 749.284 CURVE SMOOTH",
"1601.7 305.584 OFFCURVE",
"1420.832 104 OFFCURVE",
"916 104 CURVE SMOOTH",
"280 104 LINE"
);
},
{
closed = 1;
nodes = (
"916 208 LINE SMOOTH",
"1340.86 208 OFFCURVE",
"1501.888 378.444 OFFCURVE",
"1533.26 749.152 CURVE SMOOTH",
"1541.028 840.944 OFFCURVE",
"1542.168 902.88 OFFCURVE",
"1540.22 1017.756 CURVE SMOOTH",
"1534.64 1346.716 OFFCURVE",
"1410.388 1521.628 OFFCURVE",
"1138.064 1630.964 CURVE",
"1138.06 1644.832 LINE",
"1384.632 1753.724 OFFCURVE",
"1504.652 1900.204 OFFCURVE",
"1512.488 2160.884 CURVE SMOOTH",
"1514.996 2244.332 OFFCURVE",
"1520 2304.04 OFFCURVE",
"1520 2369.856 CURVE SMOOTH",
"1520 2814.244 OFFCURVE",
"1342.856 2992 OFFCURVE",
"900 2992 CURVE SMOOTH",
"400 2992 LINE",
"400 208 LINE"
);
},
{
closed = 1;
nodes = (
"520 2888 LINE",
"900 2888 LINE SMOOTH",
"1257.144 2888 OFFCURVE",
"1400 2739.96 OFFCURVE",
"1400 2369.856 CURVE SMOOTH",
"1400 2302.808 OFFCURVE",
"1395.068 2243.1 OFFCURVE",
"1392.732 2160.884 CURVE SMOOTH",
"1382.936 1816.176 OFFCURVE",
"1202.8 1680 OFFCURVE",
"825.012 1680 CURVE SMOOTH",
"520 1680 LINE"
);
},
{
closed = 1;
nodes = (
"825.012 1784 LINE SMOOTH",
"1124.312 1784 OFFCURVE",
"1265.34 1890.76 OFFCURVE",
"1272.964 2160.884 CURVE SMOOTH",
"1275.132 2237.704 OFFCURVE",
"1280 2297.408 OFFCURVE",
"1280 2369.856 CURVE SMOOTH",
"1280 2665.672 OFFCURVE",
"1171.428 2784 OFFCURVE",
"900 2784 CURVE SMOOTH",
"640 2784 LINE",
"640 1784 LINE"
);
},
{
closed = 1;
nodes = (
"760 2680 LINE",
"900 2680 LINE SMOOTH",
"1085.716 2680 OFFCURVE",
"1160 2591.388 OFFCURVE",
"1160 2369.856 CURVE SMOOTH",
"1160 2300.084 OFFCURVE",
"1155.2 2240.376 OFFCURVE",
"1153.196 2160.884 CURVE SMOOTH",
"1148.264 1965.324 OFFCURVE",
"1045.668 1888 OFFCURVE",
"825.012 1888 CURVE SMOOTH",
"760 1888 LINE"
);
},
{
closed = 1;
nodes = (
"520 1576 LINE",
"865.012 1576 LINE SMOOTH",
"1245.564 1576 OFFCURVE",
"1414.104 1415.308 OFFCURVE",
"1420.328 1012.632 CURVE SMOOTH",
"1422.04 901.84 OFFCURVE",
"1420.9 841.368 OFFCURVE",
"1413.532 749.136 CURVE SMOOTH",
"1389.828 452.42 OFFCURVE",
"1258.676 312 OFFCURVE",
"916 312 CURVE SMOOTH",
"520 312 LINE"
);
},
{
closed = 1;
nodes = (
"916 416 LINE SMOOTH",
"1175.452 416 OFFCURVE",
"1275.58 526.524 OFFCURVE",
"1293.592 749.14 CURVE SMOOTH",
"1301.184 842.964 OFFCURVE",
"1302.324 901.972 OFFCURVE",
"1300.44 1007.508 CURVE SMOOTH",
"1294.512 1339.576 OFFCURVE",
"1160.976 1472 OFFCURVE",
"865.012 1472 CURVE SMOOTH",
"640 1472 LINE",
"640 416 LINE"
);
},
{
closed = 1;
nodes = (
"760 1368 LINE",
"865.012 1368 LINE SMOOTH",
"1079.94 1368 OFFCURVE",
"1177.048 1263.724 OFFCURVE",
"1180.548 1002.388 CURVE SMOOTH",
"1181.836 906.188 OFFCURVE",
"1180.7 848.644 OFFCURVE",
"1174.224 749.088 CURVE SMOOTH",
"1164.56 600.512 OFFCURVE",
"1094.688 520 OFFCURVE",
"916 520 CURVE SMOOTH",
"760 520 LINE"
);
}
);
width = 1881.16;
},
{
background = {
paths = (
{
closed = 1;
nodes = (
"572 0 LINE SMOOTH",
"808 0 OFFCURVE",
"908 108 OFFCURVE",
"916 372 CURVE SMOOTH",
"924 684 OFFCURVE",
"924 932 OFFCURVE",
"916 1248 CURVE SMOOTH",
"912 1428 OFFCURVE",
"860 1528 OFFCURVE",
"740 1568 CURVE",
"740 1628 LINE",
"856 1672 OFFCURVE",
"908 1768 OFFCURVE",
"912 1952 CURVE SMOOTH",
"920 2204 OFFCURVE",
"920 2456 OFFCURVE",
"912 2828 CURVE SMOOTH",
"904 3092 OFFCURVE",
"804 3200 OFFCURVE",
"568 3200 CURVE SMOOTH",
"240 3200 LINE",
"240 0 LINE"
);
},
{
closed = 1;
nodes = (
"320 1560 LINE",
"548 1560 LINE SMOOTH",
"744 1560 OFFCURVE",
"828 1472 OFFCURVE",
"836 1248 CURVE SMOOTH",
"848 936 OFFCURVE",
"848 684 OFFCURVE",
"836 372 CURVE SMOOTH",
"828 164 OFFCURVE",
"752 80 OFFCURVE",
"572 80 CURVE SMOOTH",
"320 80 LINE"
);
},
{
closed = 1;
nodes = (
"320 3120 LINE",
"568 3120 LINE SMOOTH",
"748 3120 OFFCURVE",
"824 3036 OFFCURVE",
"832 2828 CURVE SMOOTH",
"844 2516 OFFCURVE",
"844 2264 OFFCURVE",
"832 1952 CURVE SMOOTH",
"824 1728 OFFCURVE",
"748 1640 OFFCURVE",
"564 1640 CURVE SMOOTH",
"320 1640 LINE"
);
}
);
};
layerId = "3D06B89B-468F-44E0-A3D7-A5BC6911123E";
paths = (
{
closed = 1;
nodes = (
"572 0 LINE SMOOTH",
"808 0 OFFCURVE",
"908 108 OFFCURVE",
"916 372 CURVE SMOOTH",
"924 684 OFFCURVE",
"928.976 1114.264 OFFCURVE",
"916 1248 CURVE SMOOTH",
"899.216 1420.988 OFFCURVE",
"850.648 1537.02 OFFCURVE",
"745.616 1595.396 CURVE",
"745.616 1599.432 LINE",
"876.08 1665.544 OFFCURVE",
"903.604 1807.172 OFFCURVE",
"912 1952 CURVE SMOOTH",
"923.132 2144 OFFCURVE",
"920 2456 OFFCURVE",
"912 2828 CURVE SMOOTH",
"904 3092 OFFCURVE",
"804 3200 OFFCURVE",
"568 3200 CURVE SMOOTH",
"240 3200 LINE",
"240 0 LINE"
);
},
{
closed = 1;
nodes = (
"256 3184 LINE",
"568 3184 LINE SMOOTH",
"794.656 3184 OFFCURVE",
"888.28 3082.564 OFFCURVE",
"896.004 2827.584 CURVE SMOOTH",
"904 2455.748 OFFCURVE",
"907.128 2144.384 OFFCURVE",
"896.028 1952.928 CURVE SMOOTH",
"887.056 1798.2 OFFCURVE",
"859.14 1653.152 OFFCURVE",
"706.756 1600.432 CURVE",
"706.756 1595.396 LINE",
"820.976 1550.356 OFFCURVE",
"880.948 1443.604 OFFCURVE",
"900.076 1246.456 CURVE SMOOTH",
"912.968 1113.58 OFFCURVE",
"908 684.296 OFFCURVE",
"900.008 372.448 CURVE SMOOTH",
"892.28 117.436 OFFCURVE",
"798.656 16 OFFCURVE",
"572 16 CURVE SMOOTH",
"256 16 LINE"
);
},
{
closed = 1;
nodes = (
"572 32 LINE SMOOTH",
"790.528 32 OFFCURVE",
"876.516 125.464 OFFCURVE",
"884.012 372.896 CURVE SMOOTH",
"892.004 684.596 OFFCURVE",
"896.96 1112.9 OFFCURVE",
"884.148 1244.908 CURVE SMOOTH",
"862.88 1464.144 OFFCURVE",
"791.332 1569.896 OFFCURVE",
"646.248 1597.408 CURVE",
"646.248 1601.408 LINE",
"829.84 1625.4 OFFCURVE",
"870.156 1783.112 OFFCURVE",
"880.052 1953.852 CURVE SMOOTH",
"891.124 2144.768 OFFCURVE",
"888 2455.496 OFFCURVE",
"880.012 2827.172 CURVE SMOOTH",
"872.516 3074.536 OFFCURVE",
"786.528 3168 OFFCURVE",
"568 3168 CURVE SMOOTH",
"272 3168 LINE",
"272 32 LINE"
);
},
{
closed = 1;
nodes = (
"288 3152 LINE",
"568 3152 LINE SMOOTH",
"777.064 3152 OFFCURVE",
"856.788 3065.224 OFFCURVE",
"864.016 2826.756 CURVE SMOOTH",
"872.004 2455.244 OFFCURVE",
"875.12 2145.148 OFFCURVE",
"864.08 1954.78 CURVE SMOOTH",
"849.708 1706.852 OFFCURVE",
"767.6 1608.924 OFFCURVE",
"573.412 1608.924 CURVE SMOOTH",
"288 1608.924 LINE"
);
},
{
closed = 1;
nodes = (
"572.676 1624.908 LINE SMOOTH",
"760.696 1624.908 OFFCURVE",
"834.272 1717.112 OFFCURVE",
"848.108 1955.704 CURVE SMOOTH",
"859.112 2145.532 OFFCURVE",
"856.008 2454.992 OFFCURVE",
"848.024 2826.344 CURVE SMOOTH",
"841.064 3055.98 OFFCURVE",
"767.6 3136 OFFCURVE",
"568 3136 CURVE SMOOTH",
"304 3136 LINE",
"304 1624.908 LINE"
);
},
{
closed = 1;
nodes = (
"320 3120 LINE",
"568 3120 LINE SMOOTH",
"758.136 3120 OFFCURVE",
"825.332 3046.808 OFFCURVE",
"832.028 2825.928 CURVE SMOOTH",
"840.008 2454.74 OFFCURVE",
"843.108 2145.916 OFFCURVE",
"832.136 1956.632 CURVE SMOOTH",
"818.688 1724.724 OFFCURVE",
"748.612 1640 OFFCURVE",
"571.94 1640 CURVE SMOOTH",
"320 1640 LINE"
);
},
{
closed = 1;
nodes = (
"288 1592 LINE",
"564 1592 LINE SMOOTH",
"756.724 1592 OFFCURVE",
"843.968 1493.404 OFFCURVE",
"868.224 1243.364 CURVE SMOOTH",
"880.948 1112.216 OFFCURVE",
"876.008 684.892 OFFCURVE",
"868.02 373.344 CURVE SMOOTH",
"860.788 134.776 OFFCURVE",
"781.064 48 OFFCURVE",
"572 48 CURVE SMOOTH",
"288 48 LINE"
);
},
{
closed = 1;
nodes = (
"572 64 LINE SMOOTH",
"771.6 64 OFFCURVE",
"845.064 144.02 OFFCURVE",
"852.024 373.788 CURVE SMOOTH",
"860.008 685.192 OFFCURVE",
"864.94 1111.536 OFFCURVE",
"852.3 1241.82 CURVE SMOOTH",
"828.864 1483.384 OFFCURVE",
"747.088 1576 OFFCURVE",
"564 1576 CURVE SMOOTH",
"304.076 1576 LINE",
"304 64 LINE"
);
},
{
closed = 1;
nodes = (
"320 1560 LINE",
"564 1560 LINE SMOOTH",
"738.808 1560 OFFCURVE",
"813.628 1474.732 OFFCURVE",
"836.372 1240.276 CURVE SMOOTH",
"846.82 1132.596 OFFCURVE",
"846.356 776.92 OFFCURVE",
"836.032 374.236 CURVE SMOOTH",
"829.332 153.192 OFFCURVE",
"762.136 80 OFFCURVE",
"572 80 CURVE SMOOTH",
"320 80 LINE"
);
}
);
width = 1123.96;
}
);
leftKerningGroup = H;
rightKerningGroup = B;
unicode = 0042;
},
{
glyphname = C;
layers = (
{
anchors = (
{
name = bottom;
position = "{764, 1.6}";
},
{
name = top;
position = "{764, 3200}";
}
);
background = {
paths = (
{
closed = 1;
nodes = (
"1104 -24 OFFCURVE",
"1256 92 OFFCURVE",
"1272 388 CURVE SMOOTH",
"1284 616 OFFCURVE",
"1280 800 OFFCURVE",
"1268 1128 CURVE",
"1108 1128 LINE",
"1116 756 OFFCURVE",
"1120 572 OFFCURVE",
"1112 388 CURVE SMOOTH",
"1104 184 OFFCURVE",
"1016 128 OFFCURVE",
"764 128 CURVE SMOOTH",
"536 128 OFFCURVE",
"452 184 OFFCURVE",
"448 388 CURVE SMOOTH",
"428 1372 OFFCURVE",
"428 1824 OFFCURVE",
"448 2804 CURVE SMOOTH",
"452 3008 OFFCURVE",
"536 3064 OFFCURVE",
"760 3064 CURVE SMOOTH",
"1004 3064 OFFCURVE",
"1088 3008 OFFCURVE",
"1096 2804 CURVE SMOOTH",
"1104 2552 OFFCURVE",
"1104 2388 OFFCURVE",
"1096 2136 CURVE",
"1256 2136 LINE",
"1268 2388 OFFCURVE",
"1268 2552 OFFCURVE",
"1256 2804 CURVE SMOOTH",
"1240 3100 OFFCURVE",
"1092 3216 OFFCURVE",
"760 3216 CURVE SMOOTH",
"440 3216 OFFCURVE",
"292 3100 OFFCURVE",
"288 2804 CURVE SMOOTH",
"276 1916 OFFCURVE",
"276 1280 OFFCURVE",
"288 388 CURVE SMOOTH",
"292 92 OFFCURVE",
"444 -24 OFFCURVE",
"764 -24 CURVE SMOOTH"
);
}
);
};
layerId = "3B122060-26E0-4730-9241-82784E6CB359";
paths = (
{
closed = 1;
nodes = (
"1110.948 -24 OFFCURVE",
"1256.092 93.716 OFFCURVE",
"1272 388 CURVE SMOOTH",
"1284 616 OFFCURVE",
"1280 800 OFFCURVE",
"1268 1128 CURVE",
"1236 1128 LINE",
"1248 800 OFFCURVE",
"1252 616 OFFCURVE",
"1240 388 CURVE SMOOTH",
"1223.764 112 OFFCURVE",
"1087.764 1.6 OFFCURVE",
"764 1.6 CURVE SMOOTH",
"450.952 1.6 OFFCURVE",
"324.12 112 OFFCURVE",
"320 388 CURVE SMOOTH",
"308 1280 OFFCURVE",
"308 1916 OFFCURVE",
"320 2804 CURVE SMOOTH",
"324.06 3080 OFFCURVE",
"449.748 3190.4 OFFCURVE",
"760 3190.4 CURVE SMOOTH",
"1075.192 3190.4 OFFCURVE",
"1207.764 3080 OFFCURVE",
"1224 2804 CURVE SMOOTH",
"1236 2552 OFFCURVE",
"1236 2388 OFFCURVE",
"1224 2136 CURVE",
"1256 2136 LINE",
"1268 2388 OFFCURVE",
"1268 2552 OFFCURVE",
"1256 2804 CURVE SMOOTH",
"1240.092 3098.284 OFFCURVE",
"1098.38 3216 OFFCURVE",
"760 3216 CURVE SMOOTH",
"426.832 3216 OFFCURVE",
"291.976 3098.284 OFFCURVE",
"288 2804 CURVE SMOOTH",
"276 1916 OFFCURVE",
"276 1280 OFFCURVE",
"288 388 CURVE SMOOTH",
"291.976 93.716 OFFCURVE",
"427.976 -24 OFFCURVE",
"764 -24 CURVE SMOOTH"
);
},
{
closed = 1;
nodes = (
"1068.928 27.2 OFFCURVE",
"1195.784 131.428 OFFCURVE",
"1208 392 CURVE SMOOTH",
"1220 616 OFFCURVE",
"1216 804 OFFCURVE",
"1204 1128 CURVE",
"1172 1128 LINE",
"1184 800 OFFCURVE",
"1188 616 OFFCURVE",
"1176 392 CURVE SMOOTH",
"1163.68 149.716 OFFCURVE",
"1045.968 52.8 OFFCURVE",
"764 52.8 CURVE SMOOTH",
"496.7 52.8 OFFCURVE",
"388.128 148.572 OFFCURVE",
"384 388 CURVE SMOOTH",
"372 1280 OFFCURVE",
"372 1916 OFFCURVE",
"384 2804 CURVE SMOOTH",
"388.128 3043.428 OFFCURVE",
"495.556 3139.2 OFFCURVE",
"760 3139.2 CURVE SMOOTH",
"1033.396 3139.2 OFFCURVE",
"1147.68 3042.284 OFFCURVE",
"1160 2800 CURVE SMOOTH",
"1172 2552 OFFCURVE",
"1172 2388 OFFCURVE",
"1160 2136 CURVE",
"1192 2136 LINE",
"1204 2384 OFFCURVE",
"1204 2552 OFFCURVE",
"1192 2800 CURVE SMOOTH",
"1179.784 3060.572 OFFCURVE",
"1056.356 3164.8 OFFCURVE",
"760 3164.8 CURVE SMOOTH",
"472.664 3164.8 OFFCURVE",
"356.092 3061.716 OFFCURVE",
"352 2804 CURVE SMOOTH",
"340 1916 OFFCURVE",
"340 1280 OFFCURVE",
"352 388 CURVE SMOOTH",
"356.092 130.284 OFFCURVE",
"473.804 27.2 OFFCURVE",
"764 27.2 CURVE SMOOTH"
);
},
{
closed = 1;
nodes = (
"1023.056 78.4 OFFCURVE",
"1131.624 169.144 OFFCURVE",
"1144 396 CURVE SMOOTH",
"1156 616 OFFCURVE",
"1152 800 OFFCURVE",
"1140 1128 CURVE",
"1108 1128 LINE",
"1120 800 OFFCURVE",
"1124 620 OFFCURVE",
"1112 396 CURVE SMOOTH",
"1099.484 187.428 OFFCURVE",
"1000.056 104 OFFCURVE",
"764 104 CURVE SMOOTH",
"542.484 104 OFFCURVE",
"452.2 186.284 OFFCURVE",
"448 392 CURVE SMOOTH",
"436 1280 OFFCURVE",
"436 1916 OFFCURVE",
"448 2800 CURVE SMOOTH",
"452.2 3005.716 OFFCURVE",
"541.34 3088 OFFCURVE",
"760 3088 CURVE SMOOTH",
"987.484 3088 OFFCURVE",
"1083.484 3004.572 OFFCURVE",
"1096 2796 CURVE SMOOTH",
"1108 2552 OFFCURVE",
"1108 2384 OFFCURVE",
"1096 2136 CURVE",
"1128 2136 LINE",
"1140 2384 OFFCURVE",
"1140 2552 OFFCURVE",
"1128 2796 CURVE SMOOTH",
"1115.624 3022.856 OFFCURVE",
"1010.484 3113.6 OFFCURVE",
"760 3113.6 CURVE SMOOTH",
"518.46 3113.6 OFFCURVE",
"420.172 3025.144 OFFCURVE",
"416 2804 CURVE SMOOTH",
"404 1916 OFFCURVE",
"404 1280 OFFCURVE",
"416 388 CURVE SMOOTH",
"420.172 166.856 OFFCURVE",
"519.6 78.4 OFFCURVE",
"764 78.4 CURVE SMOOTH"
);
}
);
width = 1520;
},
{
anchors = (
{
name = bottom;
position = "{1036, 0}";
},
{
name = top;
position = "{1036, 3200}";
}
);
background = {
paths = (
{
closed = 1;
nodes = (
"1672 -40 OFFCURVE",
"1924 188 OFFCURVE",
"1940 764 CURVE SMOOTH",
"1944 892 OFFCURVE",
"1944 1072 OFFCURVE",
"1940 1200 CURVE",
"1340 1200 LINE",
"1348 1020 OFFCURVE",
"1348 904 OFFCURVE",
"1340 732 CURVE SMOOTH",
"1332 528 OFFCURVE",
"1252 448 OFFCURVE",
"1052 448 CURVE SMOOTH",
"856 448 OFFCURVE",
"772 528 OFFCURVE",
"768 732 CURVE SMOOTH",
"752 1316 OFFCURVE",
"752 1884 OFFCURVE",
"768 2472 CURVE SMOOTH",
"772 2672 OFFCURVE",
"856 2752 OFFCURVE",
"1052 2752 CURVE SMOOTH",
"1240 2752 OFFCURVE",
"1320 2672 OFFCURVE",
"1324 2472 CURVE SMOOTH",
"1328 2324 OFFCURVE",
"1324 2148 OFFCURVE",
"1320 2000 CURVE",
"1920 2000 LINE",
"1924 2132 OFFCURVE",
"1928 2308 OFFCURVE",
"1924 2440 CURVE SMOOTH",
"1908 2984 OFFCURVE",
"1640 3240 OFFCURVE",
"1052 3240 CURVE SMOOTH",
"448 3240 OFFCURVE",
"176 2996 OFFCURVE",
"168 2444 CURVE SMOOTH",
"156 1840 OFFCURVE",
"156 1360 OFFCURVE",
"168 764 CURVE SMOOTH",
"180 188 OFFCURVE",
"432 -40 OFFCURVE",
"1052 -40 CURVE SMOOTH"
);
}
);
};
layerId = "1DFA7D5B-2E97-4B89-827F-FB43F8066DC1";
paths = (
{
closed = 1;
nodes = (
"1670.332 -40 OFFCURVE",
"1924.048 189.716 OFFCURVE",
"1940 764 CURVE SMOOTH",
"1944 892 OFFCURVE",
"1944 1072 OFFCURVE",
"1940 1200 CURVE",
"1820 1200 LINE",
"1824 1076 OFFCURVE",
"1824 892 OFFCURVE",
"1820 768 CURVE SMOOTH",
"1804.108 259.428 OFFCURVE",
"1584.68 56 OFFCURVE",
"1052 56 CURVE SMOOTH",
"518.204 56 OFFCURVE",
"299.92 259.428 OFFCURVE",
"288 768 CURVE SMOOTH",
"276 1360 OFFCURVE",
"280 1836 OFFCURVE",
"288 2440 CURVE SMOOTH",
"295.98 2942.856 OFFCURVE",
"514.268 3144 OFFCURVE",
"1052 3144 CURVE SMOOTH",
"1573.088 3144 OFFCURVE",
"1787.944 2941.716 OFFCURVE",
"1804 2436 CURVE SMOOTH",
"1808 2308 OFFCURVE",
"1804 2132 OFFCURVE",
"1800 2000 CURVE",
"1920 2000 LINE",
"1924 2132 OFFCURVE",
"1928 2308 OFFCURVE",
"1924 2440 CURVE SMOOTH",
"1907.192 3011.428 OFFCURVE",
"1658.052 3240 OFFCURVE",
"1052 3240 CURVE SMOOTH",
"428.812 3240 OFFCURVE",
"176.24 3012.572 OFFCURVE",
"168 2444 CURVE SMOOTH",
"156 1840 OFFCURVE",
"156 1360 OFFCURVE",
"168 764 CURVE SMOOTH",
"179.964 189.716 OFFCURVE",
"432.536 -40 OFFCURVE",
"1052 -40 CURVE SMOOTH"
);
},
{
closed = 1;
nodes = (
"1497.492 152 OFFCURVE",
"1682.632 329.144 OFFCURVE",
"1700 772 CURVE SMOOTH",
"1704 896 OFFCURVE",
"1704 1080 OFFCURVE",
"1700 1200 CURVE",
"1580 1200 LINE",
"1584 1080 OFFCURVE",
"1584 896 OFFCURVE",
"1580 776 CURVE SMOOTH",
"1562.04 398.856 OFFCURVE",
"1411.184 248 OFFCURVE",
"1052 248 CURVE SMOOTH",
"686.624 248 OFFCURVE",
"536.912 397.716 OFFCURVE",
"528 772 CURVE SMOOTH",
"512 1364 OFFCURVE",
"520 1840 OFFCURVE",
"528 2436 CURVE SMOOTH",
"532.496 2804.572 OFFCURVE",
"682.208 2952 OFFCURVE",
"1052 2952 CURVE SMOOTH",
"1408.804 2952 OFFCURVE",
"1555.088 2802.284 OFFCURVE",
"1564 2428 CURVE SMOOTH",
"1568 2332 OFFCURVE",
"1564 2184 OFFCURVE",
"1560 2000 CURVE",
"1680 2000 LINE",
"1684 2184 OFFCURVE",
"1688 2332 OFFCURVE",
"1684 2432 CURVE SMOOTH",
"1670.932 2872 OFFCURVE",
"1490.36 3048 OFFCURVE",
"1052 3048 CURVE SMOOTH",
"596.344 3048 OFFCURVE",
"412.344 2874.284 OFFCURVE",
"408 2440 CURVE SMOOTH",
"396 1840 OFFCURVE",
"396 1364 OFFCURVE",
"408 768 CURVE SMOOTH",
"416.712 328 OFFCURVE",
"600.712 152 OFFCURVE",
"1052 152 CURVE SMOOTH"
);
},
{
closed = 1;
nodes = (
"1333.216 344 OFFCURVE",
"1449.788 468.572 OFFCURVE",
"1460 780 CURVE SMOOTH",
"1464 896 OFFCURVE",
"1464 1084 OFFCURVE",
"1460 1200 CURVE",
"1340 1200 LINE",
"1344 1084 OFFCURVE",
"1344 900 OFFCURVE",
"1340 780 CURVE SMOOTH",
"1334.076 537.144 OFFCURVE",
"1251.792 440 OFFCURVE",
"1052 440 CURVE SMOOTH",
"854.996 440 OFFCURVE",
"773.852 536 OFFCURVE",
"768 776 CURVE SMOOTH",
"752 1364 OFFCURVE",
"752 1836 OFFCURVE",
"768 2432 CURVE SMOOTH",
"774.008 2666.284 OFFCURVE",
"855.152 2760 OFFCURVE",
"1052 2760 CURVE SMOOTH",
"1240.432 2760 OFFCURVE",
"1318.148 2664 OFFCURVE",
"1324 2424 CURVE SMOOTH",
"1328 2304 OFFCURVE",
"1324 2128 OFFCURVE",
"1320 2000 CURVE",
"1440 2000 LINE",
"1444 2128 OFFCURVE",
"1448 2308 OFFCURVE",
"1444 2424 CURVE SMOOTH",
"1433.716 2732.572 OFFCURVE",
"1321.716 2856 OFFCURVE",
"1052 2856 CURVE SMOOTH",
"768.6 2856 OFFCURVE",
"653.172 2736 OFFCURVE",
"648 2436 CURVE SMOOTH",
"636 1836 OFFCURVE",
"636 1364 OFFCURVE",
"648 772 CURVE SMOOTH",
"658.364 466.284 OFFCURVE",
"773.792 344 OFFCURVE",
"1052 344 CURVE SMOOTH"
);
}
);
width = 2024;
},
{
anchors = (
{
name = bottom;
position = "{992, 0}";
},
{
name = top;
position = "{992, 3200}";
}
);
background = {
paths = (
{
closed = 1;
nodes = (
"1596 -40 OFFCURVE",
"1840 188 OFFCURVE",
"1856 764 CURVE SMOOTH",
"1860 892 OFFCURVE",
"1860 1072 OFFCURVE",
"1856 1200 CURVE",
"1256 1200 LINE",
"1260 1056 OFFCURVE",
"1260 796 OFFCURVE",
"1256 652 CURVE SMOOTH",
"1252 520 OFFCURVE",
"1164 448 OFFCURVE",
"1008 448 CURVE SMOOTH",
"856 448 OFFCURVE",
"768 520 OFFCURVE",
"764 652 CURVE SMOOTH",
"744 1208 OFFCURVE",
"744 1992 OFFCURVE",
"764 2552 CURVE SMOOTH",
"768 2680 OFFCURVE",
"856 2752 OFFCURVE",
"1008 2752 CURVE SMOOTH",
"1152 2752 OFFCURVE",
"1236 2680 OFFCURVE",
"1240 2552 CURVE SMOOTH",
"1244 2404 OFFCURVE",
"1240 2148 OFFCURVE",
"1236 2000 CURVE",
"1836 2000 LINE",
"1840 2132 OFFCURVE",
"1844 2308 OFFCURVE",
"1840 2440 CURVE SMOOTH",
"1824 3012 OFFCURVE",
"1584 3240 OFFCURVE",
"1008 3240 CURVE SMOOTH",
"420 3240 OFFCURVE",
"172 2932 OFFCURVE",
"164 2444 CURVE SMOOTH",
"156 1992 OFFCURVE",
"156 1208 OFFCURVE",
"164 764 CURVE SMOOTH",
"176 188 OFFCURVE",
"404 -40 OFFCURVE",
"1008 -40 CURVE SMOOTH"
);
}
);
};
layerId = "5013C991-8699-46CB-BB1C-82E334DBD38B";
paths = (
{
closed = 1;
nodes = (
"1588.408 -40 OFFCURVE",
"1830.168 189.712 OFFCURVE",
"1852.168 763.996 CURVE SMOOTH",
"1855.612 853.896 OFFCURVE",
"1857.476 1044.332 OFFCURVE",
"1852 1200.708 CURVE",
"1732.06 1200.708 LINE",
"1737.424 1043.416 OFFCURVE",
"1735.552 852.392 OFFCURVE",
"1732.212 767.536 CURVE SMOOTH",
"1712.208 259.296 OFFCURVE",
"1504.704 56 OFFCURVE",
"1005.944 56 CURVE SMOOTH",
"494.664 56 OFFCURVE",
"287.248 258.776 OFFCURVE",
"279.988 765.72 CURVE SMOOTH",
"271.432 1363.064 OFFCURVE",
"271.432 1840.936 OFFCURVE",
"279.988 2438.28 CURVE SMOOTH",
"287.204 2942.364 OFFCURVE",
"493.22 3144 OFFCURVE",
"1001.036 3144 CURVE SMOOTH",
"1494.22 3144 OFFCURVE",
"1698.532 2941.86 OFFCURVE",
"1716.132 2436.508 CURVE SMOOTH",
"1719.9 2328.336 OFFCURVE",
"1716.712 2154.16 OFFCURVE",
"1712.056 2000.124 CURVE",
"1832 2000.124 LINE",
"1836.972 2160.608 OFFCURVE",
"1839.88 2327.768 OFFCURVE",
"1836.084 2440 CURVE SMOOTH",
"1816.776 3011.428 OFFCURVE",
"1578.14 3240 OFFCURVE",
"1000.856 3240 CURVE SMOOTH",
"408.424 3240 OFFCURVE",
"168.18 3011.428 OFFCURVE",
"160 2440 CURVE SMOOTH",
"151.428 1841.428 OFFCURVE",
"151.428 1362.572 OFFCURVE",
"160 764 CURVE SMOOTH",
"168.224 189.716 OFFCURVE",
"409.94 -40 OFFCURVE",
"1006.012 -40 CURVE SMOOTH"
);
},
{
closed = 1;
nodes = (
"1420.992 152 OFFCURVE",
"1594.248 328.88 OFFCURVE",
"1612.256 771.076 CURVE SMOOTH",
"1615.484 850.4 OFFCURVE",
"1617.372 1042.44 OFFCURVE",
"1612.116 1200.708 CURVE",
"1491.66 1200.708 LINE",
"1497.448 1047.204 OFFCURVE",
"1495.524 849.804 OFFCURVE",
"1492.3 774.616 CURVE SMOOTH",
"1476.172 398.46 OFFCURVE",
"1336.656 248 OFFCURVE",
"1004 248 CURVE SMOOTH",
"663.56 248 OFFCURVE",
"525.284 394.444 OFFCURVE",
"520.024 760.552 CURVE SMOOTH",
"511.416 1359.6 OFFCURVE",
"511.42 1838.652 OFFCURVE",
"520.028 2437.608 CURVE SMOOTH",
"525.308 2805.032 OFFCURVE",
"662.588 2952 OFFCURVE",
"1000.508 2952 CURVE SMOOTH",
"1325.716 2952 OFFCURVE",
"1461.636 2802.72 OFFCURVE",
"1476.228 2429.516 CURVE SMOOTH",
"1479.212 2353.224 OFFCURVE",
"1478.624 2196.64 OFFCURVE",
"1472.164 2000.124 CURVE",
"1592.112 2000.124 LINE",
"1596.328 2140.392 OFFCURVE",
"1600.044 2327.3 OFFCURVE",
"1596.18 2433.012 CURVE SMOOTH",
"1580.116 2872.288 OFFCURVE",
"1410.148 3048 OFFCURVE",
"1001.296 3048 CURVE SMOOTH",
"578.036 3048 OFFCURVE",
"406.228 2873.304 OFFCURVE",
"399.976 2436.564 CURVE SMOOTH",
"391.44 1840.448 OFFCURVE",
"391.44 1363.552 OFFCURVE",
"399.976 767.436 CURVE SMOOTH",
"406.272 327.84 OFFCURVE",
"579.38 152 OFFCURVE",
"1005.856 152 CURVE SMOOTH"
);
},
{
closed = 1;
nodes = (
"1252.924 344 OFFCURVE",
"1358.196 468.044 OFFCURVE",
"1372.336 778.156 CURVE SMOOTH",
"1375.44 846.148 OFFCURVE",
"1377.432 1046.64 OFFCURVE",
"1371.716 1200.708 CURVE",
"1251.776 1200.708 LINE",
"1257.428 1045.96 OFFCURVE",
"1255.316 840.196 OFFCURVE",
"1252.368 781.696 CURVE SMOOTH",
"1240.056 537.628 OFFCURVE",
"1169.136 440 OFFCURVE",
"1004.152 440 CURVE SMOOTH",
"833.084 440 OFFCURVE",
"763.328 532.572 OFFCURVE",
"760 764 CURVE SMOOTH",
"751.428 1360.484 OFFCURVE",
"751.428 1837.672 OFFCURVE",
"760 2434.16 CURVE SMOOTH",
"763.352 2666.904 OFFCURVE",
"832.252 2760 OFFCURVE",
"1001.152 2760 CURVE SMOOTH",
"1157.828 2760 OFFCURVE",
"1225.016 2663.58 OFFCURVE",
"1236.312 2422.528 CURVE SMOOTH",
"1239.092 2363.208 OFFCURVE",
"1238.604 2197.892 OFFCURVE",
"1232.276 2000.124 CURVE",
"1352.22 2000.124 LINE",
"1358.608 2197.26 OFFCURVE",
"1359.156 2357.112 OFFCURVE",
"1356.272 2426.02 CURVE SMOOTH",
"1343.412 2733.148 OFFCURVE",
"1241.768 2856 OFFCURVE",
"1000.516 2856 CURVE SMOOTH",
"747.336 2856 OFFCURVE",
"644.328 2735.968 OFFCURVE",
"640.016 2435.884 CURVE SMOOTH",
"631.424 1838.168 OFFCURVE",
"631.424 1360.084 OFFCURVE",
"640.012 762.276 CURVE SMOOTH",
"644.304 463.508 OFFCURVE",
"748.268 344 OFFCURVE",
"1003.884 344 CURVE SMOOTH"
);
}
);
width = 1940;
},
{
anchors = (
{
name = bottom;
position = "{580, 0}";
},
{
name = top;
position = "{580, 3200}";
}
);
background = {
paths = (
{
closed = 1;
nodes = (
"844 -24 OFFCURVE",
"948 84 OFFCURVE",
"956 348 CURVE SMOOTH",
"964 628 OFFCURVE",
"960 848 OFFCURVE",
"952 1128 CURVE",
"872 1128 LINE",
"876 868 OFFCURVE",
"880 608 OFFCURVE",
"876 348 CURVE SMOOTH",
"872 132 OFFCURVE",
"800 56 OFFCURVE",
"588 56 CURVE SMOOTH",
"400 56 OFFCURVE",
"336 132 OFFCURVE",
"332 348 CURVE SMOOTH",
"316 1272 OFFCURVE",
"316 1924 OFFCURVE",
"332 2844 CURVE SMOOTH",
"336 3064 OFFCURVE",
"400 3136 OFFCURVE",
"584 3136 CURVE SMOOTH",
"788 3136 OFFCURVE",
"856 3064 OFFCURVE",
"860 2844 CURVE SMOOTH",
"864 2608 OFFCURVE",
"864 2372 OFFCURVE",
"860 2136 CURVE",
"940 2136 LINE",
"944 2300 OFFCURVE",
"944 2680 OFFCURVE",
"940 2844 CURVE SMOOTH",
"932 3108 OFFCURVE",
"828 3216 OFFCURVE",
"584 3216 CURVE SMOOTH",
"352 3216 OFFCURVE",
"256 3112 OFFCURVE",
"252 2844 CURVE SMOOTH",
"236 1924 OFFCURVE",
"236 1272 OFFCURVE",
"252 348 CURVE SMOOTH",
"256 84 OFFCURVE",
"352 -24 OFFCURVE",
"588 -24 CURVE SMOOTH"
);
}
);
};
layerId = "3D06B89B-468F-44E0-A3D7-A5BC6911123E";
paths = (
{
closed = 1;
nodes = (
"840 -24 OFFCURVE",
"944 84 OFFCURVE",
"952 348 CURVE SMOOTH",
"960 628 OFFCURVE",
"956 848 OFFCURVE",
"948 1128 CURVE",
"932 1128 LINE",
"944 848 OFFCURVE",
"944 628 OFFCURVE",
"936 348 CURVE SMOOTH",
"928 92 OFFCURVE",
"828 -8 OFFCURVE",
"584 -8 CURVE SMOOTH",
"360 -8 OFFCURVE",
"268 92 OFFCURVE",
"264 348 CURVE SMOOTH",
"252 1152 OFFCURVE",
"252 2044 OFFCURVE",
"264 2844 CURVE SMOOTH",
"268 3100 OFFCURVE",
"356 3200 OFFCURVE",
"580 3200 CURVE SMOOTH",
"816 3200 OFFCURVE",
"912 3100 OFFCURVE",
"920 2844 CURVE SMOOTH",
"924 2680 OFFCURVE",
"924 2300 OFFCURVE",
"920 2136 CURVE",
"936 2136 LINE",
"940 2300 OFFCURVE",
"940 2680 OFFCURVE",
"936 2844 CURVE SMOOTH",
"928 3108 OFFCURVE",
"824 3216 OFFCURVE",
"580 3216 CURVE SMOOTH",
"348 3216 OFFCURVE",
"252 3112 OFFCURVE",
"248 2844 CURVE SMOOTH",
"236 2044 OFFCURVE",
"236 1152 OFFCURVE",
"248 348 CURVE SMOOTH",
"252 84 OFFCURVE",
"348 -24 OFFCURVE",
"584 -24 CURVE SMOOTH"
);
},
{
closed = 1;
nodes = (
"820 8 OFFCURVE",
"912 100 OFFCURVE",
"920 348 CURVE SMOOTH",
"928 628 OFFCURVE",
"924 848 OFFCURVE",
"916 1128 CURVE",
"900 1128 LINE",
"908 848 OFFCURVE",
"912 628 OFFCURVE",
"904 348 CURVE SMOOTH",
"896 112 OFFCURVE",
"812 24 OFFCURVE",
"584 24 CURVE SMOOTH",
"376 24 OFFCURVE",
"300 112 OFFCURVE",
"296 352 CURVE SMOOTH",
"284 1152 OFFCURVE",
"284 2044 OFFCURVE",
"296 2844 CURVE SMOOTH",
"300 3084 OFFCURVE",
"376 3168 OFFCURVE",
"580 3168 CURVE SMOOTH",
"796 3168 OFFCURVE",
"884 3080 OFFCURVE",
"888 2844 CURVE SMOOTH",
"892 2680 OFFCURVE",
"892 2300 OFFCURVE",
"888 2136 CURVE",
"904 2136 LINE",
"908 2300 OFFCURVE",
"908 2680 OFFCURVE",
"904 2844 CURVE SMOOTH",
"896 3092 OFFCURVE",
"808 3184 OFFCURVE",
"580 3184 CURVE SMOOTH",
"364 3184 OFFCURVE",
"284 3092 OFFCURVE",
"280 2844 CURVE SMOOTH",
"268 2044 OFFCURVE",
"268 1152 OFFCURVE",
"280 352 CURVE SMOOTH",
"284 100 OFFCURVE",
"368 8 OFFCURVE",
"584 8 CURVE SMOOTH"
);
},
{
closed = 1;
nodes = (
"804 40 OFFCURVE",
"880 120 OFFCURVE",
"888 348 CURVE SMOOTH",
"896 628 OFFCURVE",
"892 848 OFFCURVE",
"884 1128 CURVE",
"868 1128 LINE",
"876 848 OFFCURVE",
"880 628 OFFCURVE",
"872 352 CURVE SMOOTH",
"864 128 OFFCURVE",
"792 56 OFFCURVE",
"584 56 CURVE SMOOTH",
"396 56 OFFCURVE",
"332 128 OFFCURVE",
"328 352 CURVE SMOOTH",
"312 1152 OFFCURVE",
"312 2044 OFFCURVE",
"328 2844 CURVE SMOOTH",
"332 3068 OFFCURVE",
"392 3136 OFFCURVE",
"580 3136 CURVE SMOOTH",
"780 3136 OFFCURVE",
"852 3064 OFFCURVE",
"856 2840 CURVE SMOOTH",
"860 2680 OFFCURVE",
"860 2300 OFFCURVE",
"856 2136 CURVE",
"872 2136 LINE",
"876 2300 OFFCURVE",
"876 2680 OFFCURVE",
"872 2844 CURVE SMOOTH",
"868 3072 OFFCURVE",
"788 3152 OFFCURVE",
"580 3152 CURVE SMOOTH",
"384 3152 OFFCURVE",
"316 3076 OFFCURVE",
"312 2844 CURVE SMOOTH",
"300 2044 OFFCURVE",
"300 1152 OFFCURVE",
"312 352 CURVE SMOOTH",
"316 120 OFFCURVE",
"384 40 OFFCURVE",
"584 40 CURVE SMOOTH"
);
}
);
width = 1160;
}
);
leftKerningGroup = O;
rightKerningGroup = O;
unicode = 0043;
},
{
glyphname = D;
layers = (
{
anchors = (
{
name = bottom;
position = "{740, 0}";
},
{
name = center;
position = "{748, 1600}";
},
{
name = top;
position = "{704, 3200}";
}
);
background = {
paths = (
{
closed = 1;
nodes = (
"780 0 LINE SMOOTH",
"1080 0 OFFCURVE",
"1204 108 OFFCURVE",
"1208 372 CURVE SMOOTH",
"1220 1248 OFFCURVE",
"1220 1948 OFFCURVE",
"1208 2828 CURVE SMOOTH",
"1204 3092 OFFCURVE",
"1072 3200 OFFCURVE",
"744 3200 CURVE SMOOTH",
"280 3200 LINE",
"280 0 LINE"
);
},
{
closed = 1;
nodes = (
"440 3048 LINE",
"744 3048 LINE SMOOTH",
"980 3048 OFFCURVE",
"1044 2996 OFFCURVE",
"1048 2828 CURVE SMOOTH",
"1068 1864 OFFCURVE",
"1068 1336 OFFCURVE",
"1048 372 CURVE SMOOTH",
"1044 204 OFFCURVE",
"988 152 OFFCURVE",
"780 152 CURVE SMOOTH",
"440 152 LINE"
);
}
);
};
layerId = "3B122060-26E0-4730-9241-82784E6CB359";
paths = (
{
closed = 1;
nodes = (
"780 0 LINE SMOOTH",
"1081.688 0 OFFCURVE",
"1203.976 106.284 OFFCURVE",
"1208 372 CURVE SMOOTH",
"1220 1248 OFFCURVE",
"1220 1948 OFFCURVE",
"1208 2828 CURVE SMOOTH",
"1203.976 3093.716 OFFCURVE",
"1071.404 3200 OFFCURVE",
"744 3200 CURVE SMOOTH",
"280 3200 LINE",
"280 0 LINE"
);
},
{
closed = 1;
nodes = (
"312 3172 LINE",
"744 3172 LINE SMOOTH",
"1048.544 3172 OFFCURVE",
"1171.972 3073.716 OFFCURVE",
"1176 2828 CURVE SMOOTH",
"1188 1948 OFFCURVE",
"1188 1248 OFFCURVE",
"1176 372 CURVE SMOOTH",
"1171.972 126.284 OFFCURVE",
"1058.828 28 OFFCURVE",
"780 28 CURVE SMOOTH",
"312 28 LINE"
);
},
{
closed = 1;
nodes = (
"780 56 LINE SMOOTH",
"1035.896 56 OFFCURVE",
"1139.896 146.284 OFFCURVE",
"1144 372 CURVE SMOOTH",
"1156 1248 OFFCURVE",
"1156 1948 OFFCURVE",
"1144 2828 CURVE SMOOTH",
"1139.896 3053.716 OFFCURVE",
"1025.612 3144 OFFCURVE",
"744 3144 CURVE SMOOTH",
"344 3144 LINE",
"344 56 LINE"
);
},
{
closed = 1;
nodes = (
"376 3116 LINE",
"744 3116 LINE SMOOTH",
"1002.66 3116 OFFCURVE",
"1107.8 3033.716 OFFCURVE",
"1112 2828 CURVE SMOOTH",
"1124 1948 OFFCURVE",
"1124 1248 OFFCURVE",
"1112 372 CURVE SMOOTH",
"1107.8 166.284 OFFCURVE",
"1012.944 84 OFFCURVE",
"780 84 CURVE SMOOTH",
"376 84 LINE"
);
},
{
closed = 1;
nodes = (
"780 112 LINE SMOOTH",
"990.064 112 OFFCURVE",
"1075.78 186.284 OFFCURVE",
"1080 372 CURVE SMOOTH",
"1092 1248 OFFCURVE",
"1092 1948 OFFCURVE",
"1080 2828 CURVE SMOOTH",
"1075.78 3013.716 OFFCURVE",
"979.78 3088 OFFCURVE",
"744 3088 CURVE SMOOTH",
"408 3088 LINE",
"408 112 LINE"
);
},
{
closed = 1;
nodes = (
"440 3060 LINE",
"744 3060 LINE SMOOTH",
"956.82 3060 OFFCURVE",
"1043.676 2992.572 OFFCURVE",
"1048 2824 CURVE SMOOTH",
"1060 1948 OFFCURVE",
"1060 1248 OFFCURVE",
"1048 376 CURVE SMOOTH",
"1043.676 207.428 OFFCURVE",
"967.108 140 OFFCURVE",
"780 140 CURVE SMOOTH",
"440 140 LINE"
);
}
);
width = 1496;
},
{
anchors = (
{
name = bottom;
position = "{920, 0}";
},
{
name = center;
position = "{1000, 1600}";
},
{
name = top;
position = "{1000, 3200}";
}
);
background = {
paths = (
{
closed = 1;
nodes = (
"1012 0 LINE SMOOTH",
"1612 0 OFFCURVE",
"1860 236 OFFCURVE",
"1872 824 CURVE SMOOTH",
"1884 1380 OFFCURVE",
"1884 1824 OFFCURVE",
"1872 2380 CURVE SMOOTH",
"1860 2964 OFFCURVE",
"1612 3200 OFFCURVE",
"1012 3200 CURVE SMOOTH",
"160 3200 LINE",
"160 0 LINE"
);
},
{
closed = 1;
nodes = (
"760 2672 LINE",
"1012 2672 LINE SMOOTH",
"1180 2672 OFFCURVE",
"1268 2592 OFFCURVE",
"1272 2452 CURVE SMOOTH",
"1288 1884 OFFCURVE",
"1288 1320 OFFCURVE",
"1272 752 CURVE SMOOTH",
"1268 608 OFFCURVE",
"1180 528 OFFCURVE",
"1012 528 CURVE SMOOTH",
"760 528 LINE"
);
}
);
};
layerId = "1DFA7D5B-2E97-4B89-827F-FB43F8066DC1";
paths = (
{
closed = 1;
nodes = (
"1012 0 LINE SMOOTH",
"1614.276 0 OFFCURVE",
"1859.988 235.428 OFFCURVE",
"1872 824 CURVE SMOOTH",
"1883.992 1379.716 OFFCURVE",
"1883.992 1824.284 OFFCURVE",
"1872 2380 CURVE SMOOTH",
"1859.964 2965.716 OFFCURVE",
"1614.252 3200 OFFCURVE",
"1012 3200 CURVE SMOOTH",
"160 3200 LINE",
"160 0 LINE"
);
},
{
closed = 1;
nodes = (
"280 3096 LINE",
"1012 3096 LINE SMOOTH",
"1528.792 3096 OFFCURVE",
"1740.224 2890.284 OFFCURVE",
"1752 2376 CURVE SMOOTH",
"1764.02 1823.144 OFFCURVE",
"1764.02 1380.856 OFFCURVE",
"1752 828 CURVE SMOOTH",
"1740.156 310.856 OFFCURVE",
"1528.728 104 OFFCURVE",
"1012 104 CURVE SMOOTH",
"280 104 LINE"
);
},
{
closed = 1;
nodes = (
"1012 208 LINE SMOOTH",
"1446.42 208 OFFCURVE",
"1623.564 385.144 OFFCURVE",
"1632 828 CURVE SMOOTH",
"1643.976 1378.86 OFFCURVE",
"1643.976 1821.148 OFFCURVE",
"1632 2376 CURVE SMOOTH",
"1623.54 2816 OFFCURVE",
"1446.396 2992 OFFCURVE",
"1012 2992 CURVE SMOOTH",
"400 2992 LINE",
"400 208 LINE"
);
},
{
closed = 1;
nodes = (
"520 2888 LINE",
"1012 2888 LINE SMOOTH",
"1360.368 2888 OFFCURVE",
"1503.224 2740.572 OFFCURVE",
"1512 2372 CURVE SMOOTH",
"1524 1820 OFFCURVE",
"1524 1380 OFFCURVE",
"1512 832 CURVE SMOOTH",
"1503.156 460.572 OFFCURVE",
"1360.3 312 OFFCURVE",
"1012 312 CURVE SMOOTH",
"520 312 LINE"
);
},
{
closed = 1;
nodes = (
"1012 416 LINE SMOOTH",
"1274.052 416 OFFCURVE",
"1382.624 536 OFFCURVE",
"1392 836 CURVE SMOOTH",
"1403.98 1383.144 OFFCURVE",
"1403.98 1820.856 OFFCURVE",
"1392 2368 CURVE SMOOTH",
"1382.568 2665.144 OFFCURVE",
"1273.996 2784 OFFCURVE",
"1012 2784 CURVE SMOOTH",
"640 2784 LINE",
"640 416 LINE"
);
},
{
closed = 1;
nodes = (
"760 2680 LINE",
"1012 2680 LINE SMOOTH",
"1192.28 2680 OFFCURVE",
"1266.564 2590.856 OFFCURVE",
"1272 2368 CURVE SMOOTH",
"1283.98 1820.856 OFFCURVE",
"1283.98 1383.144 OFFCURVE",
"1272 836 CURVE SMOOTH",
"1266.624 610.284 OFFCURVE",
"1192.34 520 OFFCURVE",
"1012 520 CURVE SMOOTH",
"760 520 LINE"
);
}
);
width = 2040;
},
{
anchors = (
{
name = bottom;
position = "{920, 0}";
},
{
name = center;
position = "{1000, 1600}";
},
{
name = top;
position = "{1000, 3200}";
}
);
background = {
paths = (
{
closed = 1;
nodes = (
"972 0 LINE SMOOTH",
"1572 0 OFFCURVE",
"1820 236 OFFCURVE",
"1832 824 CURVE SMOOTH",
"1844 1380 OFFCURVE",
"1844 1824 OFFCURVE",
"1832 2380 CURVE SMOOTH",
"1820 2964 OFFCURVE",
"1572 3200 OFFCURVE",
"972 3200 CURVE SMOOTH",
"160 3200 LINE",
"160 0 LINE"
);
},
{
closed = 1;
nodes = (
"760 2672 LINE",
"972 2672 LINE SMOOTH",
"1140 2672 OFFCURVE",
"1228 2592 OFFCURVE",
"1232 2452 CURVE SMOOTH",
"1248 1884 OFFCURVE",
"1248 1320 OFFCURVE",
"1232 752 CURVE SMOOTH",
"1228 608 OFFCURVE",
"1140 528 OFFCURVE",
"972 528 CURVE SMOOTH",
"760 528 LINE"
);
}
);
};
layerId = "5013C991-8699-46CB-BB1C-82E334DBD38B";
paths = (
{
closed = 1;
nodes = (
"972 0 LINE SMOOTH",
"1573.612 0 OFFCURVE",
"1819.328 235.444 OFFCURVE",
"1832 824 CURVE SMOOTH",
"1843.964 1379.704 OFFCURVE",
"1843.964 1824.272 OFFCURVE",
"1832 2380 CURVE SMOOTH",
"1819.388 2965.704 OFFCURVE",
"1573.672 3200 OFFCURVE",
"972 3200 CURVE SMOOTH",
"160 3200 LINE",
"160 0 LINE"
);
},
{
closed = 1;
nodes = (
"280 3096 LINE",
"972 3096 LINE SMOOTH",
"1489.512 3096 OFFCURVE",
"1700.948 2890.708 OFFCURVE",
"1712.028 2377.472 CURVE SMOOTH",
"1723.98 1823.564 OFFCURVE",
"1723.98 1380.436 OFFCURVE",
"1712.028 826.52 CURVE SMOOTH",
"1700.888 310.436 OFFCURVE",
"1489.452 104 OFFCURVE",
"972 104 CURVE SMOOTH",
"280 104 LINE"
);
},
{
closed = 1;
nodes = (
"972 208 LINE SMOOTH",
"1405.348 208 OFFCURVE",
"1582.504 385.44 OFFCURVE",
"1592.052 829.036 CURVE SMOOTH",
"1603.968 1382.44 OFFCURVE",
"1603.968 1824.128 OFFCURVE",
"1592.052 2374.944 CURVE SMOOTH",
"1582.516 2815.7 OFFCURVE",
"1405.36 2992 OFFCURVE",
"972 2992 CURVE SMOOTH",
"400 2992 LINE",
"400 208 LINE"
);
},
{
closed = 1;
nodes = (
"520 2888 LINE",
"972 2888 LINE SMOOTH",
"1326.544 2888 OFFCURVE",
"1469.404 2742.856 OFFCURVE",
"1472 2380 CURVE SMOOTH",
"1475.988 1824.272 OFFCURVE",
"1475.988 1379.704 OFFCURVE",
"1472 824 CURVE SMOOTH",
"1469.4 458.284 OFFCURVE",
"1326.544 312 OFFCURVE",
"972 312 CURVE SMOOTH",
"520 312 LINE"
);
},
{
closed = 1;
nodes = (
"972 416 LINE SMOOTH",
"1241.368 416 OFFCURVE",
"1349.94 532.572 OFFCURVE",
"1352 824 CURVE SMOOTH",
"1355.988 1379.704 OFFCURVE",
"1355.988 1824.272 OFFCURVE",
"1352 2380 CURVE SMOOTH",
"1349.932 2668.572 OFFCURVE",
"1241.36 2784 OFFCURVE",
"972 2784 CURVE SMOOTH",
"640 2784 LINE",
"640 416 LINE"
);
},
{
closed = 1;
nodes = (
"760 2680 LINE",
"972 2680 LINE SMOOTH",
"1156.18 2680 OFFCURVE",
"1230.468 2594.284 OFFCURVE",
"1232 2380 CURVE SMOOTH",
"1235.988 1824.272 OFFCURVE",
"1235.988 1379.704 OFFCURVE",
"1232 824 CURVE SMOOTH",
"1230.436 606.856 OFFCURVE",
"1156.152 520 OFFCURVE",
"972 520 CURVE SMOOTH",
"760 520 LINE"
);
}
);
width = 2000;
},
{
anchors = (
{
name = bottom;
position = "{580, 0}";
},
{
name = center;
position = "{588, 1600}";
},
{
name = top;
position = "{548, 3200}";
}
);
background = {
paths = (
{
closed = 1;
nodes = (
"580 0 LINE SMOOTH",
"824 0 OFFCURVE",
"924 108 OFFCURVE",
"928 372 CURVE SMOOTH",
"940 1248 OFFCURVE",
"940 1948 OFFCURVE",
"928 2828 CURVE SMOOTH",
"924 3092 OFFCURVE",
"824 3200 OFFCURVE",
"584 3200 CURVE SMOOTH",
"240 3200 LINE",
"240 0 LINE"
);
},
{
closed = 1;
nodes = (
"320 3120 LINE",
"584 3120 LINE SMOOTH",
"772 3120 OFFCURVE",
"844 3036 OFFCURVE",
"848 2828 CURVE SMOOTH",
"856 2008 OFFCURVE",
"856 1192 OFFCURVE",
"848 372 CURVE SMOOTH",
"844 164 OFFCURVE",
"772 80 OFFCURVE",
"580 80 CURVE SMOOTH",
"320 80 LINE"
);
}
);
};
layerId = "3D06B89B-468F-44E0-A3D7-A5BC6911123E";
paths = (
{
closed = 1;
nodes = (
"580 0 LINE SMOOTH",
"824 0 OFFCURVE",
"924 108 OFFCURVE",
"928 372 CURVE SMOOTH",
"940 1248 OFFCURVE",
"940 1948 OFFCURVE",
"928 2828 CURVE SMOOTH",
"924 3092 OFFCURVE",
"824 3200 OFFCURVE",
"584 3200 CURVE SMOOTH",
"240 3200 LINE",
"240 0 LINE"
);
},
{
closed = 1;
nodes = (
"256 3184 LINE",
"584 3184 LINE SMOOTH",
"816 3184 OFFCURVE",
"908 3084 OFFCURVE",
"912 2828 CURVE SMOOTH",
"924 1948 OFFCURVE",
"924 1248 OFFCURVE",
"912 372 CURVE SMOOTH",
"908 116 OFFCURVE",
"812 16 OFFCURVE",
"580 16 CURVE SMOOTH",
"256 16 LINE"
);
},
{
closed = 1;
nodes = (
"580 32 LINE SMOOTH",
"808 32 OFFCURVE",
"892 124 OFFCURVE",
"896 372 CURVE SMOOTH",
"908 1248 OFFCURVE",
"908 1948 OFFCURVE",
"896 2828 CURVE SMOOTH",
"892 3076 OFFCURVE",
"808 3168 OFFCURVE",
"584 3168 CURVE SMOOTH",
"272 3168 LINE",
"272 32 LINE"
);
},
{
closed = 1;
nodes = (
"288 3152 LINE",
"584 3152 LINE SMOOTH",
"792 3152 OFFCURVE",
"876 3060 OFFCURVE",
"880 2828 CURVE SMOOTH",
"892 1948 OFFCURVE",
"892 1248 OFFCURVE",
"880 372 CURVE SMOOTH",
"876 144 OFFCURVE",
"792 48 OFFCURVE",
"580 48 CURVE SMOOTH",
"288 48 LINE"
);
},
{
closed = 1;
nodes = (
"580 64 LINE SMOOTH",
"784 64 OFFCURVE",
"860 152 OFFCURVE",
"864 372 CURVE SMOOTH",
"876 1248 OFFCURVE",
"876 1948 OFFCURVE",
"864 2828 CURVE SMOOTH",
"860 3048 OFFCURVE",
"784 3136 OFFCURVE",
"584 3136 CURVE SMOOTH",
"304 3136 LINE",
"304 64 LINE"
);
},
{
closed = 1;
nodes = (
"320 3120 LINE",
"584 3120 LINE SMOOTH",
"772 3120 OFFCURVE",
"844 3036 OFFCURVE",
"848 2828 CURVE SMOOTH",
"860 1948 OFFCURVE",
"860 1248 OFFCURVE",
"848 372 CURVE SMOOTH",
"844 164 OFFCURVE",
"772 80 OFFCURVE",
"580 80 CURVE SMOOTH",
"320 80 LINE"
);
}
);
width = 1176;
}
);
leftKerningGroup = H;
rightKerningGroup = O;
unicode = 0044;
},
{
glyphname = Eth;
layers = (
{
anchors = (
{
name = bottom;
position = "{740, 0}";
},
{
name = center;
position = "{748, 1600}";
},
{
name = top;
position = "{704, 3200}";
}
);
background = {
paths = (
{
closed = 1;
nodes = (
"200 1772 LINE",
"680 1772 LINE",
"680 1892 LINE",
"200 1892 LINE"
);
}
);
};
layerId = "3B122060-26E0-4730-9241-82784E6CB359";
paths = (
{
closed = 1;
nodes = (
"780 0 LINE SMOOTH",
"1081.688 0 OFFCURVE",
"1203.976 106.284 OFFCURVE",
"1208 372 CURVE SMOOTH",
"1220 1248 OFFCURVE",
"1220 1948 OFFCURVE",
"1208 2828 CURVE SMOOTH",
"1203.976 3093.716 OFFCURVE",
"1071.404 3200 OFFCURVE",
"744 3200 CURVE SMOOTH",
"280 3200 LINE",
"280 1892 LINE",
"200 1892 LINE",
"200 1864 LINE",
"312 1864 LINE",
"312 3172 LINE",
"744 3172 LINE SMOOTH",
"1048.544 3172 OFFCURVE",
"1171.972 3073.716 OFFCURVE",
"1176 2828 CURVE SMOOTH",
"1188 1948 OFFCURVE",
"1188 1248 OFFCURVE",
"1176 372 CURVE SMOOTH",
"1171.972 126.284 OFFCURVE",
"1058.828 28 OFFCURVE",
"780 28 CURVE SMOOTH",
"312 28 LINE",
"312 1780 LINE",
"200 1780 LINE",
"200 1752 LINE",
"280 1752 LINE",
"280 0 LINE"
);
},
{
closed = 1;
nodes = (
"780 56 LINE SMOOTH",
"1035.896 56 OFFCURVE",
"1139.896 146.284 OFFCURVE",
"1144 372 CURVE SMOOTH",
"1156 1248 OFFCURVE",
"1156 1948 OFFCURVE",
"1144 2828 CURVE SMOOTH",
"1139.896 3053.716 OFFCURVE",
"1025.612 3144 OFFCURVE",
"744 3144 CURVE SMOOTH",
"344 3144 LINE",
"344 1836 LINE",
"200 1836 LINE",
"200 1808 LINE",
"344 1808 LINE",
"344 56 LINE"
);
},
{
closed = 1;
nodes = (
"376 1808 LINE",
"680 1808 LINE",
"680 1836 LINE",
"376 1836 LINE",
"376 3116 LINE",
"744 3116 LINE SMOOTH",
"1002.66 3116 OFFCURVE",
"1107.8 3033.716 OFFCURVE",
"1112 2828 CURVE SMOOTH",
"1124 1948 OFFCURVE",
"1124 1248 OFFCURVE",
"1112 372 CURVE SMOOTH",
"1107.8 166.284 OFFCURVE",
"1012.944 84 OFFCURVE",
"780 84 CURVE SMOOTH",
"376 84 LINE"
);
},
{
closed = 1;
nodes = (
"780 112 LINE SMOOTH",
"990.064 112 OFFCURVE",
"1075.78 186.284 OFFCURVE",
"1080 372 CURVE SMOOTH",
"1092 1248 OFFCURVE",
"1092 1948 OFFCURVE",
"1080 2828 CURVE SMOOTH",
"1075.78 3013.716 OFFCURVE",
"979.78 3088 OFFCURVE",
"744 3088 CURVE SMOOTH",
"408 3088 LINE",
"408 1864 LINE",
"680 1864 LINE",
"680 1892 LINE",
"440 1892 LINE",
"440 3060 LINE",
"744 3060 LINE SMOOTH",
"956.82 3060 OFFCURVE",
"1043.676 2992.572 OFFCURVE",
"1048 2824 CURVE SMOOTH",
"1060 1948 OFFCURVE",
"1060 1248 OFFCURVE",
"1048 376 CURVE SMOOTH",
"1043.676 207.428 OFFCURVE",
"967.108 140 OFFCURVE",
"780 140 CURVE SMOOTH",
"440 140 LINE",
"440 1752 LINE",
"680 1752 LINE",
"680 1780 LINE",
"408 1780 LINE",
"408 112 LINE"
);
}
);
width = 1496;
},
{
anchors = (
{
name = bottom;
position = "{1080, 0}";
},
{
name = center;
position = "{1160, 1600}";
},
{
name = top;
position = "{1160, 3200}";
}
);
background = {
paths = (
{
closed = 1;
nodes = (
"120 1604 LINE",
"1152 1604 LINE",
"1152 1892 LINE",
"120 1892 LINE"
);
}
);
};
layerId = "1DFA7D5B-2E97-4B89-827F-FB43F8066DC1";
paths = (
{
closed = 1;
nodes = (
"1172 0 LINE SMOOTH",
"1774.276 0 OFFCURVE",
"2019.988 235.428 OFFCURVE",
"2032 824 CURVE SMOOTH",
"2043.992 1379.716 OFFCURVE",
"2043.992 1824.284 OFFCURVE",
"2032 2380 CURVE SMOOTH",
"2019.964 2965.716 OFFCURVE",
"1774.252 3200 OFFCURVE",
"1172 3200 CURVE SMOOTH",
"320 3200 LINE",
"320 1892 LINE",
"120 1892 LINE",
"120 1796 LINE",
"440 1796 LINE",
"440 3096 LINE",
"1172 3096 LINE SMOOTH",
"1688.792 3096 OFFCURVE",
"1900.224 2890.284 OFFCURVE",
"1912 2376 CURVE SMOOTH",
"1924.02 1823.144 OFFCURVE",
"1924.02 1380.856 OFFCURVE",
"1912 828 CURVE SMOOTH",
"1900.156 310.856 OFFCURVE",
"1688.728 104 OFFCURVE",
"1172 104 CURVE SMOOTH",
"440 104 LINE",
"440 1508 LINE",
"120 1508 LINE",
"120 1412 LINE",
"320 1412 LINE",
"320 0 LINE"
);
},
{
closed = 1;
nodes = (
"1172 208 LINE SMOOTH",
"1606.42 208 OFFCURVE",
"1783.564 385.144 OFFCURVE",
"1792 828 CURVE SMOOTH",
"1803.976 1378.86 OFFCURVE",
"1803.976 1821.148 OFFCURVE",
"1792 2376 CURVE SMOOTH",
"1783.54 2816 OFFCURVE",
"1606.396 2992 OFFCURVE",
"1172 2992 CURVE SMOOTH",
"560 2992 LINE",
"560 1700 LINE",
"120 1700 LINE",
"120 1604 LINE",
"560 1604 LINE",
"560 208 LINE"
);
},
{
closed = 1;
nodes = (
"680 1604 LINE",
"1152 1604 LINE",
"1152 1700 LINE",
"680 1700 LINE",
"680 2888 LINE",
"1172 2888 LINE SMOOTH",
"1520.368 2888 OFFCURVE",
"1663.224 2740.572 OFFCURVE",
"1672 2372 CURVE SMOOTH",
"1684 1820 OFFCURVE",
"1684 1380 OFFCURVE",
"1672 832 CURVE SMOOTH",
"1663.156 460.572 OFFCURVE",
"1520.3 312 OFFCURVE",
"1172 312 CURVE SMOOTH",
"680 312 LINE"
);
},
{
closed = 1;
nodes = (
"1172 416 LINE SMOOTH",
"1434.052 416 OFFCURVE",
"1542.624 536 OFFCURVE",
"1552 836 CURVE SMOOTH",
"1563.98 1383.144 OFFCURVE",
"1563.98 1820.856 OFFCURVE",
"1552 2368 CURVE SMOOTH",
"1542.568 2665.144 OFFCURVE",
"1433.996 2784 OFFCURVE",
"1172 2784 CURVE SMOOTH",
"800 2784 LINE",
"800 1796 LINE",
"1152 1796 LINE",
"1152 1892 LINE",
"920 1892 LINE",
"920 2680 LINE",
"1172 2680 LINE SMOOTH",
"1352.28 2680 OFFCURVE",
"1426.564 2590.856 OFFCURVE",
"1432 2368 CURVE SMOOTH",
"1443.98 1820.856 OFFCURVE",
"1443.98 1383.144 OFFCURVE",
"1432 836 CURVE SMOOTH",
"1426.624 610.284 OFFCURVE",
"1352.34 520 OFFCURVE",
"1172 520 CURVE SMOOTH",
"920 520 LINE",
"920 1412 LINE",
"1152 1412 LINE",
"1152 1508 LINE",
"800 1508 LINE",
"800 416 LINE"
);
}
);
width = 2200;
},
{
anchors = (
{
name = bottom;
position = "{1116, 0}";
},
{
name = center;
position = "{1196, 1600}";
},
{
name = top;
position = "{1196, 3200}";
}
);
background = {
paths = (
{
closed = 1;
nodes = (
"200 1604 LINE",
"1232 1604 LINE",
"1232 1892 LINE",
"200 1892 LINE"
);
}
);
};
layerId = "5013C991-8699-46CB-BB1C-82E334DBD38B";
paths = (
{
closed = 1;
nodes = (
"1168 0 LINE SMOOTH",
"1769.612 0 OFFCURVE",
"2015.328 235.444 OFFCURVE",
"2028 824 CURVE SMOOTH",
"2039.964 1379.704 OFFCURVE",
"2039.964 1824.272 OFFCURVE",
"2028 2380 CURVE SMOOTH",
"2015.388 2965.704 OFFCURVE",
"1769.672 3200 OFFCURVE",
"1168 3200 CURVE SMOOTH",
"356 3200 LINE",
"356 1892 LINE",
"120 1892 LINE",
"120 1796 LINE",
"476 1796 LINE",
"476 3096 LINE",
"1168 3096 LINE SMOOTH",
"1685.512 3096 OFFCURVE",
"1896.948 2890.708 OFFCURVE",
"1908.028 2377.472 CURVE SMOOTH",
"1919.98 1823.564 OFFCURVE",
"1919.98 1380.436 OFFCURVE",
"1908.028 826.52 CURVE SMOOTH",
"1896.888 310.436 OFFCURVE",
"1685.452 104 OFFCURVE",
"1168 104 CURVE SMOOTH",
"476 104 LINE",
"476 1508 LINE",
"120 1508 LINE",
"120 1412 LINE",
"356 1412 LINE",
"356 0 LINE"
);
},
{
closed = 1;
nodes = (
"1168 208 LINE SMOOTH",
"1601.348 208 OFFCURVE",
"1778.504 385.44 OFFCURVE",
"1788.052 829.036 CURVE SMOOTH",
"1799.968 1382.44 OFFCURVE",
"1799.968 1824.128 OFFCURVE",
"1788.052 2374.944 CURVE SMOOTH",
"1778.516 2815.7 OFFCURVE",
"1601.36 2992 OFFCURVE",
"1168 2992 CURVE SMOOTH",
"596 2992 LINE",
"596 1700 LINE",
"120 1700 LINE",
"120 1604 LINE",
"596 1604 LINE",
"596 208 LINE"
);
},
{
closed = 1;
nodes = (
"716 1604 LINE",
"1232 1604 LINE",
"1232 1700 LINE",
"716 1700 LINE",
"716 2888 LINE",
"1168 2888 LINE SMOOTH",
"1522.544 2888 OFFCURVE",
"1665.404 2742.856 OFFCURVE",
"1668 2380 CURVE SMOOTH",
"1671.988 1824.272 OFFCURVE",
"1671.988 1379.704 OFFCURVE",
"1668 824 CURVE SMOOTH",
"1665.4 458.284 OFFCURVE",
"1522.544 312 OFFCURVE",
"1168 312 CURVE SMOOTH",
"716 312 LINE"
);
},
{
closed = 1;
nodes = (
"1168 416 LINE SMOOTH",
"1437.368 416 OFFCURVE",
"1545.94 532.572 OFFCURVE",
"1548 824 CURVE SMOOTH",
"1551.988 1379.704 OFFCURVE",
"1551.988 1824.272 OFFCURVE",
"1548 2380 CURVE SMOOTH",
"1545.932 2668.572 OFFCURVE",
"1437.36 2784 OFFCURVE",
"1168 2784 CURVE SMOOTH",
"836 2784 LINE",
"836 1796 LINE",
"1232 1796 LINE",
"1232 1892 LINE",
"956 1892 LINE",
"956 2680 LINE",
"1168 2680 LINE SMOOTH",
"1352.18 2680 OFFCURVE",
"1426.468 2594.284 OFFCURVE",
"1428 2380 CURVE SMOOTH",
"1431.988 1824.272 OFFCURVE",
"1431.988 1379.704 OFFCURVE",
"1428 824 CURVE SMOOTH",
"1426.436 606.856 OFFCURVE",
"1352.152 520 OFFCURVE",
"1168 520 CURVE SMOOTH",
"956 520 LINE",
"956 1412 LINE",
"1232 1412 LINE",
"1232 1508 LINE",
"836 1508 LINE",
"836 416 LINE"
);
}
);
width = 2196;
},
{
anchors = (
{
name = bottom;
position = "{576, 0}";
},
{
name = center;
position = "{584, 1600}";
},
{
name = top;
position = "{544, 3200}";
}
);
background = {
paths = (
{
closed = 1;
nodes = (
"80 1812 LINE",
"560 1812 LINE",
"560 1892 LINE",
"80 1892 LINE"
);
}
);
};
layerId = "3D06B89B-468F-44E0-A3D7-A5BC6911123E";
paths = (
{
closed = 1;
nodes = (
"576 0 LINE SMOOTH",
"820 0 OFFCURVE",
"920 108 OFFCURVE",
"924 372 CURVE SMOOTH",
"936 1248 OFFCURVE",
"936 1948 OFFCURVE",
"924 2828 CURVE SMOOTH",
"920 3092 OFFCURVE",
"820 3200 OFFCURVE",
"580 3200 CURVE SMOOTH",
"236 3200 LINE",
"236 1892 LINE",
"120 1892 LINE",
"120 1876 LINE",
"252 1876 LINE",
"252 3184 LINE",
"580 3184 LINE SMOOTH",
"812 3184 OFFCURVE",
"904 3084 OFFCURVE",
"908 2828 CURVE SMOOTH",
"920 1948 OFFCURVE",
"920 1248 OFFCURVE",
"908 372 CURVE SMOOTH",
"904 116 OFFCURVE",
"808 16 OFFCURVE",
"576 16 CURVE SMOOTH",
"252 16 LINE",
"252 1828 LINE",
"120 1828 LINE",
"120 1812 LINE",
"236 1812 LINE",
"236 0 LINE"
);
},
{
closed = 1;
nodes = (
"576 32 LINE SMOOTH",
"804 32 OFFCURVE",
"888 124 OFFCURVE",
"892 372 CURVE SMOOTH",
"904 1248 OFFCURVE",
"904 1948 OFFCURVE",
"892 2828 CURVE SMOOTH",
"888 3076 OFFCURVE",
"804 3168 OFFCURVE",
"580 3168 CURVE SMOOTH",
"268 3168 LINE",
"268 1860 LINE",
"120 1860 LINE",
"120 1844 LINE",
"268 1844 LINE",
"268 32 LINE"
);
},
{
closed = 1;
nodes = (
"284 1844 LINE",
"560 1844 LINE",
"560 1860 LINE",
"284 1860 LINE",
"284 3152 LINE",
"580 3152 LINE SMOOTH",
"788 3152 OFFCURVE",
"872 3060 OFFCURVE",
"876 2828 CURVE SMOOTH",
"888 1948 OFFCURVE",
"888 1248 OFFCURVE",
"876 372 CURVE SMOOTH",
"872 144 OFFCURVE",
"788 48 OFFCURVE",
"576 48 CURVE SMOOTH",
"284 48 LINE"
);
},
{
closed = 1;
nodes = (
"576 64 LINE SMOOTH",
"780 64 OFFCURVE",
"856 152 OFFCURVE",
"860 372 CURVE SMOOTH",
"872 1248 OFFCURVE",
"872 1948 OFFCURVE",
"860 2828 CURVE SMOOTH",
"856 3048 OFFCURVE",
"780 3136 OFFCURVE",
"580 3136 CURVE SMOOTH",
"300 3136 LINE",
"300 1876 LINE",
"560 1876 LINE",
"560 1892 LINE",
"316 1892 LINE",
"316 3120 LINE",
"580 3120 LINE SMOOTH",
"768 3120 OFFCURVE",
"840 3036 OFFCURVE",
"844 2828 CURVE SMOOTH",
"856 1948 OFFCURVE",
"856 1248 OFFCURVE",
"844 372 CURVE SMOOTH",
"840 164 OFFCURVE",
"768 80 OFFCURVE",
"576 80 CURVE SMOOTH",
"316 80 LINE",
"316 1812 LINE",
"560 1812 LINE",
"560 1828 LINE",
"300 1828 LINE",
"300 64 LINE"
);
}
);
width = 1172;
}
);
leftKerningGroup = H;
rightKerningGroup = O;
rightMetricsKey = D;
unicode = 00D0;
},
{
glyphname = E;
layers = (
{
anchors = (
{
name = bottom;
position = "{724, -8}";
},
{
name = ogonek;
position = "{888, 0}";
},
{
name = top;
position = "{684, 3192}";
},
{
name = topleft;
position = "{320, 3200}";
}
);
background = {
paths = (
{
closed = 1;
nodes = (
"1116 0 LINE",
"1116 152 LINE",
"440 152 LINE",
"440 1524 LINE",
"1076 1524 LINE",
"1076 1676 LINE",
"440 1676 LINE",
"440 3048 LINE",
"1116 3048 LINE",
"1116 3200 LINE",
"280 3200 LINE",
"280 0 LINE"
);
}
);
};
layerId = "3B122060-26E0-4730-9241-82784E6CB359";
paths = (
{
closed = 1;
nodes = (
"1116 0 LINE",
"1116 28 LINE",
"312 28 LINE",
"312 3172 LINE",
"1116 3172 LINE",
"1116 3200 LINE",
"280 3200 LINE",
"280 0 LINE"
);
},
{
closed = 1;
nodes = (
"1116 112 LINE",
"1116 140 LINE",
"440 140 LINE",
"440 1530 LINE",
"1076 1530 LINE",
"1076 1558 LINE",
"408 1558 LINE",
"408 112 LINE"
);
},
{
closed = 1;
nodes = (
"1116 56 LINE",
"1116 84 LINE",
"376 84 LINE",
"376 1586 LINE",
"1076 1586 LINE",
"1076 1614 LINE",
"376 1614 LINE",
"376 3116 LINE",
"1116 3116 LINE",
"1116 3144 LINE",
"344 3144 LINE",
"344 56 LINE"
);
},
{
closed = 1;
nodes = (
"1076 1642 LINE",
"1076 1670 LINE",
"440 1670 LINE",
"440 3060 LINE",
"1116 3060 LINE",
"1116 3088 LINE",
"408 3088 LINE",
"408 1642 LINE"
);
}
);
width = 1316;
},
{
anchors = (
{
name = bottom;
position = "{952, 0}";
},
{
name = ogonek;
position = "{1216, 0}";
},
{
name = top;
position = "{896, 3200}";
},
{
name = topleft;
position = "{160, 3200}";
}
);
background = {
paths = (
{
closed = 1;
nodes = (
"1624 0 LINE",
"1624 528 LINE",
"760 528 LINE",
"760 1364 LINE",
"1584 1364 LINE",
"1584 1892 LINE",
"760 1892 LINE",
"760 2672 LINE",
"1624 2672 LINE",
"1624 3200 LINE",
"160 3200 LINE",
"160 0 LINE"
);
}
);
};
layerId = "1DFA7D5B-2E97-4B89-827F-FB43F8066DC1";
paths = (
{
closed = 1;
nodes = (
"1624 0 LINE",
"1624 104 LINE",
"280 104 LINE",
"280 3096 LINE",
"1624 3096 LINE",
"1624 3200 LINE",
"160 3200 LINE",
"160 0 LINE"
);
},
{
closed = 1;
nodes = (
"1624 416 LINE",
"1624 520 LINE",
"760 520 LINE",
"760 1368 LINE",
"1584 1368 LINE",
"1584 1472 LINE",
"640 1472 LINE",
"640 416 LINE"
);
},
{
closed = 1;
nodes = (
"1624 208 LINE",
"1624 312 LINE",
"520 312 LINE",
"520 1576 LINE",
"1584 1576 LINE",
"1584 1680 LINE",
"520 1680 LINE",
"520 2888 LINE",
"1624 2888 LINE",
"1624 2992 LINE",
"400 2992 LINE",
"400 208 LINE"
);
},
{
closed = 1;
nodes = (
"1584 1784 LINE",
"1584 1888 LINE",
"760 1888 LINE",
"760 2680 LINE",
"1624 2680 LINE",
"1624 2784 LINE",
"640 2784 LINE",
"640 1784 LINE"
);
}
);
width = 1704;
},
{
anchors = (
{
name = bottom;
position = "{872, 0}";
},
{
name = ogonek;
position = "{1120, 0}";
},
{
name = top;
position = "{860, 3200}";
},
{
name = topleft;
position = "{80, 3200}";
}
);
background = {
paths = (
{
closed = 1;
nodes = (
"1544 0 LINE",
"1544 528 LINE",
"760 528 LINE",
"760 1364 LINE",
"1504 1364 LINE",
"1504 1892 LINE",
"760 1892 LINE",
"760 2672 LINE",
"1544 2672 LINE",
"1544 3200 LINE",
"160 3200 LINE",
"160 0 LINE"
);
}
);
};
layerId = "5013C991-8699-46CB-BB1C-82E334DBD38B";
paths = (
{
closed = 1;
nodes = (
"1544 0 LINE",
"1544 104 LINE",
"280 104 LINE",
"280 3096 LINE",
"1544 3096 LINE",
"1544 3200 LINE",
"160 3200 LINE",
"160 0 LINE"
);
},
{
closed = 1;
nodes = (
"1544 416 LINE",
"1544 520 LINE",
"760 520 LINE",
"760 1368 LINE",
"1504 1368 LINE",
"1504 1472 LINE",
"640 1472 LINE",
"640 416 LINE"
);
},
{
closed = 1;
nodes = (
"1544 208 LINE",
"1544 312 LINE",
"520 312 LINE",
"520 1576 LINE",
"1504 1576 LINE",
"1504 1680 LINE",
"520 1680 LINE",
"520 2888 LINE",
"1544 2888 LINE",
"1544 2992 LINE",
"400 2992 LINE",
"400 208 LINE"
);
},
{
closed = 1;
nodes = (
"1504 1784 LINE",
"1504 1888 LINE",
"760 1888 LINE",
"760 2680 LINE",
"1544 2680 LINE",
"1544 2784 LINE",
"640 2784 LINE",
"640 1784 LINE"
);
}
);
width = 1624;
},
{
anchors = (
{
name = bottom;
position = "{540, 0}";
},
{
name = ogonek;
position = "{784, 0}";
},
{
name = top;
position = "{540, 3200}";
},
{
name = topleft;
position = "{160, 3200}";
}
);
background = {
paths = (
{
closed = 1;
nodes = (
"876 0 LINE",
"876 80 LINE",
"320 80 LINE",
"320 1560 LINE",
"836 1560 LINE",
"836 1640 LINE",
"320 1640 LINE",
"320 3120 LINE",
"876 3120 LINE",
"876 3200 LINE",
"240 3200 LINE",
"240 0 LINE"
);
}
);
};
layerId = "3D06B89B-468F-44E0-A3D7-A5BC6911123E";
paths = (
{
closed = 1;
nodes = (
"876 0 LINE",
"876 16 LINE",
"256 16 LINE",
"256 3184 LINE",
"876 3184 LINE",
"876 3200 LINE",
"240 3200 LINE",
"240 0 LINE"
);
},
{
closed = 1;
nodes = (
"876 64 LINE",
"876 80 LINE",
"320 80 LINE",
"320 1560 LINE",
"836 1560 LINE",
"836 1576 LINE",
"304 1576 LINE",
"304 64 LINE"
);
},
{
closed = 1;
nodes = (
"876 32 LINE",
"876 48 LINE",
"288 48 LINE",
"288 1592 LINE",
"836 1592 LINE",
"836 1608 LINE",
"288 1608 LINE",
"288 3152 LINE",
"876 3152 LINE",
"876 3168 LINE",
"272 3168 LINE",
"272 32 LINE"
);
},
{
closed = 1;
nodes = (
"836 1624 LINE",
"836 1640 LINE",
"320 1640 LINE",
"320 3120 LINE",
"876 3120 LINE",
"876 3136 LINE",
"304 3136 LINE",
"304 1624 LINE"
);
}
);
width = 1036;
}
);
leftKerningGroup = H;
rightKerningGroup = E;
unicode = 0045;
},
{
glyphname = F;
layers = (
{
background = {
paths = (
{
closed = 1;
nodes = (
"440 0 LINE",
"440 1524 LINE",
"1116 1524 LINE",
"1116 1676 LINE",
"440 1676 LINE",
"440 3048 LINE",
"1156 3048 LINE",
"1156 3200 LINE",
"280 3200 LINE",
"280 0 LINE"
);
}
);
};
layerId = "3B122060-26E0-4730-9241-82784E6CB359";
paths = (
{
closed = 1;
nodes = (
"312 0 LINE",
"312 3172 LINE",
"1156 3172 LINE",
"1156 3200 LINE",
"280 3200 LINE",
"280 0 LINE"
);
},
{
closed = 1;
nodes = (
"440 0 LINE",
"440 1530 LINE",
"1116 1530 LINE",
"1116 1558 LINE",
"408 1558 LINE",
"408 0 LINE"
);
},
{
closed = 1;
nodes = (
"376 0 LINE",
"376 1586 LINE",
"1116 1586 LINE",
"1116 1614 LINE",
"376 1614 LINE",
"376 3116 LINE",
"1156 3116 LINE",
"1156 3144 LINE",
"344 3144 LINE",
"344 0 LINE"
);
},
{
closed = 1;
nodes = (
"1116 1642 LINE",
"1116 1670 LINE",
"440 1670 LINE",
"440 3060 LINE",
"1156 3060 LINE",
"1156 3088 LINE",
"408 3088 LINE",
"408 1642 LINE"
);
}
);
width = 1356;
},
{
background = {
paths = (
{
closed = 1;
nodes = (
"760 0 LINE",
"760 1364 LINE",
"1584 1364 LINE",
"1584 1892 LINE",
"760 1892 LINE",
"760 2672 LINE",
"1624 2672 LINE",
"1624 3200 LINE",
"160 3200 LINE",
"160 0 LINE"
);
}
);
};
layerId = "1DFA7D5B-2E97-4B89-827F-FB43F8066DC1";
paths = (
{
closed = 1;
nodes = (
"280 0 LINE",
"280 3096 LINE",
"1624 3096 LINE",
"1624 3200 LINE",
"160 3200 LINE",
"160 0 LINE"
);
},
{
closed = 1;
nodes = (
"760 0 LINE",
"760 1368 LINE",
"1584 1368 LINE",
"1584 1472 LINE",
"640 1472 LINE",
"640 0 LINE"
);
},
{
closed = 1;
nodes = (
"520 0 LINE",
"520 1576 LINE",
"1584 1576 LINE",
"1584 1680 LINE",
"520 1680 LINE",
"520 2888 LINE",
"1624 2888 LINE",
"1624 2992 LINE",
"400 2992 LINE",
"400 0 LINE"
);
},
{
closed = 1;
nodes = (
"1584 1784 LINE",
"1584 1888 LINE",
"760 1888 LINE",
"760 2680 LINE",
"1624 2680 LINE",
"1624 2784 LINE",
"640 2784 LINE",
"640 1784 LINE"
);
}
);
width = 1704;
},
{
background = {
paths = (
{
closed = 1;
nodes = (
"760 0 LINE",
"760 1364 LINE",
"1504 1364 LINE",
"1504 1892 LINE",
"760 1892 LINE",
"760 2672 LINE",
"1544 2672 LINE",
"1544 3200 LINE",
"160 3200 LINE",
"160 0 LINE"
);
}
);
};
layerId = "5013C991-8699-46CB-BB1C-82E334DBD38B";
paths = (
{
closed = 1;
nodes = (
"280 0 LINE",
"280 3096 LINE",
"1544 3096 LINE",
"1544 3200 LINE",
"160 3200 LINE",
"160 0 LINE"
);
},
{
closed = 1;
nodes = (
"760 0 LINE",
"760 1368 LINE",
"1504 1368 LINE",
"1504 1472 LINE",
"640 1472 LINE",
"640 0 LINE"
);
},
{
closed = 1;
nodes = (
"520 0 LINE",
"520 1576 LINE",
"1504 1576 LINE",
"1504 1680 LINE",
"520 1680 LINE",
"520 2888 LINE",
"1544 2888 LINE",
"1544 2992 LINE",
"400 2992 LINE",
"400 0 LINE"
);
},
{
closed = 1;
nodes = (
"1504 1784 LINE",
"1504 1888 LINE",
"760 1888 LINE",
"760 2680 LINE",
"1544 2680 LINE",
"1544 2784 LINE",
"640 2784 LINE",
"640 1784 LINE"
);
}
);
width = 1624;
},
{
background = {
paths = (
{
closed = 1;
nodes = (
"320 0 LINE",
"320 1560 LINE",
"836 1560 LINE",
"836 1640 LINE",
"320 1640 LINE",
"320 3120 LINE",
"876 3120 LINE",
"876 3200 LINE",
"240 3200 LINE",
"240 0 LINE"
);
}
);
};
layerId = "3D06B89B-468F-44E0-A3D7-A5BC6911123E";
paths = (
{
closed = 1;
nodes = (
"256 0 LINE",
"256 3184 LINE",
"876 3184 LINE",
"876 3200 LINE",
"240 3200 LINE",
"240 0 LINE"
);
},
{
closed = 1;
nodes = (
"320 0 LINE",
"320 1560 LINE",
"836 1560 LINE",
"836 1576 LINE",
"304 1576 LINE",
"304 0 LINE"
);
},
{
closed = 1;
nodes = (
"288 0 LINE",
"288 1592 LINE",
"836 1592 LINE",
"836 1608 LINE",
"288 1608 LINE",
"288 3152 LINE",
"876 3152 LINE",
"876 3168 LINE",
"272 3168 LINE",
"272 0 LINE"
);
},
{
closed = 1;
nodes = (
"836 1624 LINE",
"836 1640 LINE",
"320 1640 LINE",
"320 3120 LINE",
"876 3120 LINE",
"876 3136 LINE",
"304 3136 LINE",
"304 1624 LINE"
);
}
);
width = 1036;
}
);
leftKerningGroup = H;
rightKerningGroup = F;
unicode = 0046;
},
{
glyphname = G;
layers = (
{
anchors = (
{
name = bottom;
position = "{772, 0}";
},
{
name = top;
position = "{772, 3200}";
}
);
background = {
paths = (
{
closed = 1;
nodes = (
"1140 -20 OFFCURVE",
"1268 96 OFFCURVE",
"1272 392 CURVE SMOOTH",
"1276 636 OFFCURVE",
"1276 844 OFFCURVE",
"1272 1228 CURVE",
"740 1228 LINE",
"740 1068 LINE",
"1112 1068 LINE",
"1116 812 OFFCURVE",
"1116 648 OFFCURVE",
"1112 392 CURVE SMOOTH",
"1108 188 OFFCURVE",
"1052 132 OFFCURVE",
"776 132 CURVE SMOOTH",
"508 132 OFFCURVE",
"452 188 OFFCURVE",
"448 392 CURVE SMOOTH",
"432 1340 OFFCURVE",
"432 1860 OFFCURVE",
"448 2808 CURVE SMOOTH",
"452 3012 OFFCURVE",
"508 3068 OFFCURVE",
"772 3068 CURVE SMOOTH",
"1032 3068 OFFCURVE",
"1088 3012 OFFCURVE",
"1096 2808 CURVE SMOOTH",
"1104 2556 OFFCURVE",
"1104 2392 OFFCURVE",
"1096 2140 CURVE",
"1256 2140 LINE",
"1264 2392 OFFCURVE",
"1264 2556 OFFCURVE",
"1256 2808 CURVE SMOOTH",
"1248 3104 OFFCURVE",
"1124 3220 OFFCURVE",
"772 3220 CURVE SMOOTH",
"416 3220 OFFCURVE",
"292 3104 OFFCURVE",
"288 2808 CURVE SMOOTH",
"276 1944 OFFCURVE",
"276 1256 OFFCURVE",
"288 392 CURVE SMOOTH",
"292 96 OFFCURVE",
"416 -20 OFFCURVE",
"776 -20 CURVE SMOOTH"
);
}
);
};
layerId = "3B122060-26E0-4730-9241-82784E6CB359";
paths = (
{
closed = 1;
nodes = (
"1126.308 -20 OFFCURVE",
"1268.024 97.716 OFFCURVE",
"1272 392 CURVE SMOOTH",
"1276 636 OFFCURVE",
"1276 844 OFFCURVE",
"1272 1228 CURVE",
"740 1228 LINE",
"740 1200 LINE",
"1240 1200 LINE",
"1244 836 OFFCURVE",
"1244 628 OFFCURVE",
"1240 392 CURVE SMOOTH",
"1236.056 116 OFFCURVE",
"1103.484 5.6 OFFCURVE",
"776 5.6 CURVE SMOOTH",
"454.172 5.6 OFFCURVE",
"323.888 116 OFFCURVE",
"320 392 CURVE SMOOTH",
"308 1256 OFFCURVE",
"308 1944 OFFCURVE",
"320 2808 CURVE SMOOTH",
"323.944 3084 OFFCURVE",
"453.084 3194.4 OFFCURVE",
"772 3194.4 CURVE SMOOTH",
"1087.084 3194.4 OFFCURVE",
"1216.224 3084 OFFCURVE",
"1224 2808 CURVE SMOOTH",
"1232 2556 OFFCURVE",
"1232 2392 OFFCURVE",
"1224 2140 CURVE",
"1256 2140 LINE",
"1264 2392 OFFCURVE",
"1264 2556 OFFCURVE",
"1256 2808 CURVE SMOOTH",
"1248.048 3102.284 OFFCURVE",
"1109.76 3220 OFFCURVE",
"772 3220 CURVE SMOOTH",
"430.264 3220 OFFCURVE",
"291.976 3102.284 OFFCURVE",
"288 2808 CURVE SMOOTH",
"276 1944 OFFCURVE",
"276 1256 OFFCURVE",
"288 392 CURVE SMOOTH",
"291.976 97.716 OFFCURVE",
"431.404 -20 OFFCURVE",
"776 -20 CURVE SMOOTH"
);
},
{
closed = 1;
nodes = (
"1080.668 31.2 OFFCURVE",
"1204.096 134.284 OFFCURVE",
"1208 392 CURVE SMOOTH",
"1212 624 OFFCURVE",
"1212 828 OFFCURVE",
"1208 1172 CURVE",
"740 1172 LINE",
"740 1144 LINE",
"1176 1144 LINE",
"1180 820 OFFCURVE",
"1180 616 OFFCURVE",
"1176 392 CURVE SMOOTH",
"1172.076 152.572 OFFCURVE",
"1057.788 56.8 OFFCURVE",
"776 56.8 CURVE SMOOTH",
"499.924 56.8 OFFCURVE",
"387.924 152.572 OFFCURVE",
"384 392 CURVE SMOOTH",
"372 1256 OFFCURVE",
"372 1944 OFFCURVE",
"384 2808 CURVE SMOOTH",
"387.924 3047.428 OFFCURVE",
"498.784 3143.2 OFFCURVE",
"772 3143.2 CURVE SMOOTH",
"1041.328 3143.2 OFFCURVE",
"1152.184 3046.284 OFFCURVE",
"1160 2804 CURVE SMOOTH",
"1168 2556 OFFCURVE",
"1168 2388 OFFCURVE",
"1160 2140 CURVE",
"1192 2140 LINE",
"1200 2388 OFFCURVE",
"1200 2556 OFFCURVE",
"1192 2808 CURVE SMOOTH",
"1184.192 3065.716 OFFCURVE",
"1064.192 3168.8 OFFCURVE",
"772 3168.8 CURVE SMOOTH",
"475.904 3168.8 OFFCURVE",
"355.904 3065.716 OFFCURVE",
"352 2808 CURVE SMOOTH",
"340 1944 OFFCURVE",
"340 1256 OFFCURVE",
"352 392 CURVE SMOOTH",
"355.904 134.284 OFFCURVE",
"477.048 31.2 OFFCURVE",
"776 31.2 CURVE SMOOTH"
);
},
{
closed = 1;
nodes = (
"1034.836 82.4 OFFCURVE",
"1139.98 170.856 OFFCURVE",
"1144 392 CURVE SMOOTH",
"1148 608 OFFCURVE",
"1148 808 OFFCURVE",
"1144 1116 CURVE",
"740 1116 LINE",
"740 1088 LINE",
"1112 1088 LINE",
"1116 800 OFFCURVE",
"1116 600 OFFCURVE",
"1112 396 CURVE SMOOTH",
"1107.968 190.284 OFFCURVE",
"1011.968 108 OFFCURVE",
"776 108 CURVE SMOOTH",
"545.748 108 OFFCURVE",
"452.032 190.284 OFFCURVE",
"448 396 CURVE SMOOTH",
"436 1256 OFFCURVE",
"436 1944 OFFCURVE",
"448 2804 CURVE SMOOTH",
"452.032 3009.716 OFFCURVE",
"544.604 3092 OFFCURVE",
"772 3092 CURVE SMOOTH",
"999.396 3092 OFFCURVE",
"1091.968 3009.716 OFFCURVE",
"1096 2804 CURVE SMOOTH",
"1104 2556 OFFCURVE",
"1104 2392 OFFCURVE",
"1096 2140 CURVE",
"1128 2140 LINE",
"1136 2392 OFFCURVE",
"1136 2556 OFFCURVE",
"1128 2804 CURVE SMOOTH",
"1120.14 3028 OFFCURVE",
"1018.428 3117.6 OFFCURVE",
"772 3117.6 CURVE SMOOTH",
"521.664 3117.6 OFFCURVE",
"419.948 3029.144 OFFCURVE",
"416 2808 CURVE SMOOTH",
"404 1944 OFFCURVE",
"404 1256 OFFCURVE",
"416 392 CURVE SMOOTH",
"419.948 170.856 OFFCURVE",
"522.808 82.4 OFFCURVE",
"776 82.4 CURVE SMOOTH"
);
}
);
width = 1476;
},
{
anchors = (
{
name = bottom;
position = "{1056, 0}";
},
{
name = top;
position = "{1056, 3200}";
}
);
background = {
paths = (
{
closed = 1;
nodes = (
"1656 -40 OFFCURVE",
"1908 188 OFFCURVE",
"1936 764 CURVE SMOOTH",
"1948 1008 OFFCURVE",
"1952 1320 OFFCURVE",
"1940 1564 CURVE",
"1136 1564 LINE",
"1136 1044 LINE",
"1356 1044 LINE",
"1364 952 OFFCURVE",
"1364 784 OFFCURVE",
"1356 692 CURVE SMOOTH",
"1340 516 OFFCURVE",
"1256 448 OFFCURVE",
"1056 448 CURVE SMOOTH",
"864 448 OFFCURVE",
"784 516 OFFCURVE",
"772 692 CURVE SMOOTH",
"740 1252 OFFCURVE",
"740 1952 OFFCURVE",
"772 2512 CURVE SMOOTH",
"784 2684 OFFCURVE",
"864 2752 OFFCURVE",
"1056 2752 CURVE SMOOTH",
"1240 2752 OFFCURVE",
"1316 2684 OFFCURVE",
"1328 2512 CURVE SMOOTH",
"1336 2336 OFFCURVE",
"1336 2176 OFFCURVE",
"1328 2000 CURVE",
"1928 2000 LINE",
"1936 2124 OFFCURVE",
"1936 2316 OFFCURVE",
"1928 2440 CURVE SMOOTH",
"1892 3012 OFFCURVE",
"1644 3240 OFFCURVE",
"1056 3240 CURVE SMOOTH",
"448 3240 OFFCURVE",
"196 3000 OFFCURVE",
"172 2404 CURVE SMOOTH",
"156 1972 OFFCURVE",
"156 1212 OFFCURVE",
"172 764 CURVE SMOOTH",
"192 188 OFFCURVE",
"444 -40 OFFCURVE",
"1056 -40 CURVE SMOOTH"
);
}
);
};
layerId = "1DFA7D5B-2E97-4B89-827F-FB43F8066DC1";
paths = (
{
closed = 1;
nodes = (
"1656.656 -40 OFFCURVE",
"1908.084 189.716 OFFCURVE",
"1936 764 CURVE SMOOTH",
"1952 1080 OFFCURVE",
"1952 1308 OFFCURVE",
"1940 1564 CURVE",
"1136 1564 LINE",
"1136 1460 LINE",
"1824 1460 LINE",
"1832 1224 OFFCURVE",
"1828 1016 OFFCURVE",
"1816 768 CURVE SMOOTH",
"1792.16 259.428 OFFCURVE",
"1575.016 56 OFFCURVE",
"1056 56 CURVE SMOOTH",
"526.18 56 OFFCURVE",
"307.892 259.428 OFFCURVE",
"292 768 CURVE SMOOTH",
"272.04 1358.84 OFFCURVE",
"272.04 1825.128 OFFCURVE",
"292 2400 CURVE SMOOTH",
"311.828 2931.428 OFFCURVE",
"530.116 3144 OFFCURVE",
"1056 3144 CURVE SMOOTH",
"1561.356 3144 OFFCURVE",
"1776.216 2940.572 OFFCURVE",
"1808 2432 CURVE SMOOTH",
"1816 2276 OFFCURVE",
"1820 2152 OFFCURVE",
"1808 2000 CURVE",
"1928 2000 LINE",
"1940 2156 OFFCURVE",
"1940 2284 OFFCURVE",
"1928 2440 CURVE SMOOTH",
"1892.036 3011.428 OFFCURVE",
"1642.892 3240 OFFCURVE",
"1056 3240 CURVE SMOOTH",
"448.616 3240 OFFCURVE",
"196.048 3001.144 OFFCURVE",
"172 2404 CURVE SMOOTH",
"152.008 1828.28 OFFCURVE",
"152.008 1359.708 OFFCURVE",
"172 764 CURVE SMOOTH",
"191.94 189.716 OFFCURVE",
"444.512 -40 OFFCURVE",
"1056 -40 CURVE SMOOTH"
);
},
{
closed = 1;
nodes = (
"1491.508 152 OFFCURVE",
"1674.364 330.284 OFFCURVE",
"1696 776 CURVE SMOOTH",
"1704 968 OFFCURVE",
"1708 1156 OFFCURVE",
"1708 1356 CURVE",
"1136 1356 LINE",
"1136 1252 LINE",
"1588 1252 LINE",
"1588 1100 OFFCURVE",
"1584 932 OFFCURVE",
"1576 780 CURVE SMOOTH",
"1557.464 400 OFFCURVE",
"1408.892 248 OFFCURVE",
"1056 248 CURVE SMOOTH",
"695.684 248 OFFCURVE",
"545.968 398.856 OFFCURVE",
"532 776 CURVE SMOOTH",
"512.028 1363.128 OFFCURVE",
"512.028 1824.844 OFFCURVE",
"532 2392 CURVE SMOOTH",
"550.392 2792 OFFCURVE",
"700.104 2952 OFFCURVE",
"1056 2952 CURVE SMOOTH",
"1398.652 2952 OFFCURVE",
"1544.936 2798.856 OFFCURVE",
"1568 2416 CURVE SMOOTH",
"1580 2268 OFFCURVE",
"1580 2148 OFFCURVE",
"1568 2000 CURVE",
"1688 2000 LINE",
"1700 2152 OFFCURVE",
"1700 2272 OFFCURVE",
"1688 2424 CURVE SMOOTH",
"1662.036 2869.716 OFFCURVE",
"1481.464 3048 OFFCURVE",
"1056 3048 CURVE SMOOTH",
"617.56 3048 OFFCURVE",
"433.56 2861.716 OFFCURVE",
"412 2396 CURVE SMOOTH",
"392 1828 OFFCURVE",
"392 1364 OFFCURVE",
"412 772 CURVE SMOOTH",
"429.368 329.144 OFFCURVE",
"613.368 152 OFFCURVE",
"1056 152 CURVE SMOOTH"
);
},
{
closed = 1;
nodes = (
"1332.084 344 OFFCURVE",
"1448.656 470.856 OFFCURVE",
"1464 788 CURVE SMOOTH",
"1466.708 834.016 OFFCURVE",
"1470.136 936.872 OFFCURVE",
"1468 1148 CURVE",
"1136 1148 LINE",
"1136 1044 LINE",
"1344 1044 LINE",
"1348 988 OFFCURVE",
"1348 848 OFFCURVE",
"1344 792 CURVE SMOOTH",
"1331.736 540.572 OFFCURVE",
"1249.452 440 OFFCURVE",
"1056 440 CURVE SMOOTH",
"859.284 440 OFFCURVE",
"778.144 538.284 OFFCURVE",
"772 784 CURVE SMOOTH",
"752 1368 OFFCURVE",
"752 1824 OFFCURVE",
"772 2380 CURVE SMOOTH",
"783.8 2651.428 OFFCURVE",
"864.944 2760 OFFCURVE",
"1056 2760 CURVE SMOOTH",
"1232.344 2760 OFFCURVE",
"1310.06 2657.144 OFFCURVE",
"1328 2400 CURVE SMOOTH",
"1340 2256 OFFCURVE",
"1340 2144 OFFCURVE",
"1328 2000 CURVE",
"1448 2000 LINE",
"1460 2144 OFFCURVE",
"1460 2264 OFFCURVE",
"1448 2408 CURVE SMOOTH",
"1427.684 2728 OFFCURVE",
"1315.684 2856 OFFCURVE",
"1056 2856 CURVE SMOOTH",
"777.492 2856 OFFCURVE",
"662.064 2721.144 OFFCURVE",
"652 2384 CURVE SMOOTH",
"632.04 1821.124 OFFCURVE",
"632.04 1362.836 OFFCURVE",
"652 780 CURVE SMOOTH",
"662.212 468.572 OFFCURVE",
"777.64 344 OFFCURVE",
"1056 344 CURVE SMOOTH"
);
}
);
width = 2028;
},
{
anchors = (
{
name = bottom;
position = "{1000, 0}";
},
{
name = top;
position = "{1000, 3200}";
}
);
background = {
paths = (
{
closed = 1;
nodes = (
"1588 -40 OFFCURVE",
"1828 188 OFFCURVE",
"1856 764 CURVE SMOOTH",
"1868 1008 OFFCURVE",
"1872 1320 OFFCURVE",
"1860 1564 CURVE",
"1056 1564 LINE",
"1056 1044 LINE",
"1276 1044 LINE",
"1284 952 OFFCURVE",
"1284 744 OFFCURVE",
"1276 652 CURVE SMOOTH",
"1264 520 OFFCURVE",
"1168 448 OFFCURVE",
"1016 448 CURVE SMOOTH",
"860 448 OFFCURVE",
"780 520 OFFCURVE",
"772 652 CURVE SMOOTH",
"740 1212 OFFCURVE",
"740 1992 OFFCURVE",
"772 2552 CURVE SMOOTH",
"780 2680 OFFCURVE",
"860 2752 OFFCURVE",
"1016 2752 CURVE SMOOTH",
"1156 2752 OFFCURVE",
"1240 2680 OFFCURVE",
"1248 2552 CURVE SMOOTH",
"1256 2404 OFFCURVE",
"1256 2148 OFFCURVE",
"1248 2000 CURVE",
"1848 2000 LINE",
"1856 2124 OFFCURVE",
"1856 2316 OFFCURVE",
"1848 2440 CURVE SMOOTH",
"1812 3012 OFFCURVE",
"1576 3240 OFFCURVE",
"1016 3240 CURVE SMOOTH",
"424 3240 OFFCURVE",
"196 3012 OFFCURVE",
"172 2404 CURVE SMOOTH",
"156 1972 OFFCURVE",
"156 1212 OFFCURVE",
"172 764 CURVE SMOOTH",
"192 188 OFFCURVE",
"412 -40 OFFCURVE",
"1016 -40 CURVE SMOOTH"
);
}
);
};
layerId = "5013C991-8699-46CB-BB1C-82E334DBD38B";
paths = (
{
closed = 1;
nodes = (
"1576.084 -40 OFFCURVE",
"1816.084 189.716 OFFCURVE",
"1844 764 CURVE SMOOTH",
"1859.48 1078.76 OFFCURVE",
"1860.624 1322.068 OFFCURVE",
"1848 1564 CURVE",
"1044 1564 LINE",
"1044 1460 LINE",
"1733.048 1460 LINE",
"1739.884 1256.836 OFFCURVE",
"1736.916 1029.564 OFFCURVE",
"1724.144 769.86 CURVE SMOOTH",
"1699.36 259.96 OFFCURVE",
"1493.604 56 OFFCURVE",
"1004 56 CURVE SMOOTH",
"504.472 56 OFFCURVE",
"297.592 259.492 OFFCURVE",
"279.924 768.224 CURVE SMOOTH",
"258.736 1361.512 OFFCURVE",
"258.732 1827.568 OFFCURVE",
"279.912 2399.412 CURVE SMOOTH",
"300.908 2931.26 OFFCURVE",
"507.792 3144 OFFCURVE",
"1004 3144 CURVE SMOOTH",
"1480.756 3144 OFFCURVE",
"1684.252 2940.676 OFFCURVE",
"1716.244 2432.368 CURVE SMOOTH",
"1726.128 2279.176 OFFCURVE",
"1725.96 2139.768 OFFCURVE",
"1716.324 2002.076 CURVE",
"1836 2002.076 LINE",
"1846.14 2137.828 OFFCURVE",
"1846.14 2282.856 OFFCURVE",
"1836 2440 CURVE SMOOTH",
"1800.036 3011.428 OFFCURVE",
"1562.32 3240 OFFCURVE",
"1004 3240 CURVE SMOOTH",
"424.716 3240 OFFCURVE",
"183.572 3001.144 OFFCURVE",
"160 2404 CURVE SMOOTH",
"138.7 1828.936 OFFCURVE",
"138.7 1360.364 OFFCURVE",
"160 764 CURVE SMOOTH",
"179.94 189.716 OFFCURVE",
"421.084 -40 OFFCURVE",
"1004 -40 CURVE SMOOTH"
);
},
{
closed = 1;
nodes = (
"1411.12 152 OFFCURVE",
"1582.628 330.204 OFFCURVE",
"1604.288 775.72 CURVE SMOOTH",
"1615.148 996.544 OFFCURVE",
"1618.476 1185.192 OFFCURVE",
"1611.936 1356 CURVE",
"1044 1356 LINE",
"1043.948 1252 LINE",
"1487.72 1252.084 LINE",
"1489.288 1111.244 OFFCURVE",
"1486.86 922.416 OFFCURVE",
"1484.428 781.58 CURVE SMOOTH",
"1465.904 400.452 OFFCURVE",
"1328.64 248 OFFCURVE",
"1004 248 CURVE SMOOTH",
"671.24 248 OFFCURVE",
"532.888 399.048 OFFCURVE",
"519.776 776.668 CURVE SMOOTH",
"498.808 1363.816 OFFCURVE",
"498.796 1824.836 OFFCURVE",
"519.736 2390.24 CURVE SMOOTH",
"535.584 2791.496 OFFCURVE",
"673.944 2952 OFFCURVE",
"1004 2952 CURVE SMOOTH",
"1317.612 2952 OFFCURVE",
"1452.68 2799.172 OFFCURVE",
"1476.728 2417.104 CURVE SMOOTH",
"1486.172 2270.756 OFFCURVE",
"1486.212 2152.176 OFFCURVE",
"1476.868 2002.076 CURVE",
"1596.648 2002.076 LINE",
"1606.404 2150.968 OFFCURVE",
"1606.36 2271.728 OFFCURVE",
"1596.488 2424.736 CURVE SMOOTH",
"1568.464 2869.924 OFFCURVE",
"1399.184 3048 OFFCURVE",
"1004 3048 CURVE SMOOTH",
"590.864 3048 OFFCURVE",
"418.24 2861.38 OFFCURVE",
"399.824 2394.824 CURVE SMOOTH",
"378.764 1826.2 OFFCURVE",
"378.772 1362.664 OFFCURVE",
"399.852 772.448 CURVE SMOOTH",
"415.24 329.272 OFFCURVE",
"587.852 152 OFFCURVE",
"1004 152 CURVE SMOOTH"
);
},
{
closed = 1;
nodes = (
"1254.528 344 OFFCURVE",
"1360.98 470.696 OFFCURVE",
"1376.572 787.44 CURVE SMOOTH",
"1381.46 886.728 OFFCURVE",
"1377.188 1049.704 OFFCURVE",
"1375.12 1148.064 CURVE",
"1043.976 1148 LINE",
"1044 1044 LINE",
"1251.856 1044.04 LINE",
"1254.016 989.376 OFFCURVE",
"1259.64 852.716 OFFCURVE",
"1256.716 793.304 CURVE SMOOTH",
"1244.296 540.944 OFFCURVE",
"1172.092 440 OFFCURVE",
"1004 440 CURVE SMOOTH",
"838.008 440 OFFCURVE",
"768.188 538.604 OFFCURVE",
"759.628 785.116 CURVE SMOOTH",
"738.88 1366.108 OFFCURVE",
"738.86 1822.092 OFFCURVE",
"759.56 2381.064 CURVE SMOOTH",
"770.248 2651.732 OFFCURVE",
"840.088 2760 OFFCURVE",
"1004 2760 CURVE SMOOTH",
"1154.48 2760 OFFCURVE",
"1221.112 2657.668 OFFCURVE",
"1237.216 2401.84 CURVE SMOOTH",
"1245.596 2271.952 OFFCURVE",
"1245.604 2148.864 OFFCURVE",
"1237.244 2002.076 CURVE",
"1357.056 2002.076 LINE",
"1365.76 2148.308 OFFCURVE",
"1365.588 2275.972 OFFCURVE",
"1356.972 2409.472 CURVE SMOOTH",
"1336.896 2728.42 OFFCURVE",
"1236.048 2856 OFFCURVE",
"1004 2856 CURVE SMOOTH",
"757.016 2856 OFFCURVE",
"652.916 2721.616 OFFCURVE",
"639.648 2385.652 CURVE SMOOTH",
"618.828 1823.468 OFFCURVE",
"618.844 1364.964 OFFCURVE",
"639.704 780.892 CURVE SMOOTH",
"650.54 468.828 OFFCURVE",
"754.624 344 OFFCURVE",
"1004 344 CURVE SMOOTH"
);
}
);
width = 1948;
},
{
anchors = (
{
name = bottom;
position = "{580, 0}";
},
{
name = top;
position = "{580, 3200}";
}
);
background = {
paths = (
{
closed = 1;
nodes = (
"844 -20 OFFCURVE",
"948 88 OFFCURVE",
"952 352 CURVE SMOOTH",
"956 796 OFFCURVE",
"956 1044 OFFCURVE",
"952 1228 CURVE",
"580 1228 LINE",
"580 1148 LINE",
"872 1148 LINE",
"876 864 OFFCURVE",
"876 636 OFFCURVE",
"872 352 CURVE SMOOTH",
"868 144 OFFCURVE",
"788 60 OFFCURVE",
"596 60 CURVE SMOOTH",
"404 60 OFFCURVE",
"328 144 OFFCURVE",
"328 352 CURVE SMOOTH",
"320 1244 OFFCURVE",
"320 1956 OFFCURVE",
"328 2848 CURVE SMOOTH",
"332 3056 OFFCURVE",
"408 3140 OFFCURVE",
"592 3140 CURVE SMOOTH",
"772 3140 OFFCURVE",
"848 3056 OFFCURVE",
"856 2848 CURVE SMOOTH",
"864 2596 OFFCURVE",
"864 2392 OFFCURVE",
"856 2140 CURVE",
"936 2140 LINE",
"944 2392 OFFCURVE",
"944 2596 OFFCURVE",
"936 2848 CURVE SMOOTH",
"928 3112 OFFCURVE",
"828 3220 OFFCURVE",
"592 3220 CURVE SMOOTH",
"352 3220 OFFCURVE",
"252 3112 OFFCURVE",
"248 2848 CURVE SMOOTH",
"236 1956 OFFCURVE",
"236 1244 OFFCURVE",
"248 352 CURVE SMOOTH",
"252 88 OFFCURVE",
"352 -20 OFFCURVE",
"596 -20 CURVE SMOOTH"
);
}
);
};
layerId = "3D06B89B-468F-44E0-A3D7-A5BC6911123E";
paths = (
{
closed = 1;
nodes = (
"844 -20 OFFCURVE",
"948 88 OFFCURVE",
"952 352 CURVE SMOOTH",
"960 796 OFFCURVE",
"956 1044 OFFCURVE",
"952 1228 CURVE",
"580 1228 LINE",
"580 1212 LINE",
"936 1212 LINE",
"940 1028 OFFCURVE",
"944 784 OFFCURVE",
"936 352 CURVE SMOOTH",
"932 96 OFFCURVE",
"836 -4 OFFCURVE",
"596 -4 CURVE SMOOTH",
"360 -4 OFFCURVE",
"268 96 OFFCURVE",
"264 352 CURVE SMOOTH",
"252 1244 OFFCURVE",
"252 1956 OFFCURVE",
"264 2848 CURVE SMOOTH",
"268 3104 OFFCURVE",
"360 3204 OFFCURVE",
"592 3204 CURVE SMOOTH",
"820 3204 OFFCURVE",
"912 3104 OFFCURVE",
"920 2848 CURVE SMOOTH",
"928 2596 OFFCURVE",
"928 2392 OFFCURVE",
"920 2140 CURVE",
"936 2140 LINE",
"944 2392 OFFCURVE",
"944 2596 OFFCURVE",
"936 2848 CURVE SMOOTH",
"928 3112 OFFCURVE",
"828 3220 OFFCURVE",
"592 3220 CURVE SMOOTH",
"352 3220 OFFCURVE",
"252 3112 OFFCURVE",
"248 2848 CURVE SMOOTH",
"236 1956 OFFCURVE",
"236 1244 OFFCURVE",
"248 352 CURVE SMOOTH",
"252 88 OFFCURVE",
"352 -20 OFFCURVE",
"596 -20 CURVE SMOOTH"
);
},
{
closed = 1;
nodes = (
"828 12 OFFCURVE",
"916 104 OFFCURVE",
"920 352 CURVE SMOOTH",
"928 772 OFFCURVE",
"924 1016 OFFCURVE",
"920 1196 CURVE",
"580 1196 LINE",
"580 1180 LINE",
"904 1180 LINE",
"908 1000 OFFCURVE",
"912 760 OFFCURVE",
"904 352 CURVE SMOOTH",
"900 116 OFFCURVE",
"816 28 OFFCURVE",
"596 28 CURVE SMOOTH",
"380 28 OFFCURVE",
"300 116 OFFCURVE",
"296 352 CURVE SMOOTH",
"280 1244 OFFCURVE",
"280 1956 OFFCURVE",
"296 2848 CURVE SMOOTH",
"300 3084 OFFCURVE",
"380 3172 OFFCURVE",
"592 3172 CURVE SMOOTH",
"800 3172 OFFCURVE",
"880 3084 OFFCURVE",
"888 2848 CURVE SMOOTH",
"896 2596 OFFCURVE",
"896 2392 OFFCURVE",
"888 2140 CURVE",
"904 2140 LINE",
"912 2392 OFFCURVE",
"912 2596 OFFCURVE",
"904 2848 CURVE SMOOTH",
"896 3096 OFFCURVE",
"812 3188 OFFCURVE",
"592 3188 CURVE SMOOTH",
"368 3188 OFFCURVE",
"284 3096 OFFCURVE",
"280 2848 CURVE SMOOTH",
"264 1956 OFFCURVE",
"264 1244 OFFCURVE",
"280 352 CURVE SMOOTH",
"284 104 OFFCURVE",
"372 12 OFFCURVE",
"596 12 CURVE SMOOTH"
);
},
{
closed = 1;
nodes = (
"808 44 OFFCURVE",
"884 124 OFFCURVE",
"888 352 CURVE SMOOTH",
"896 748 OFFCURVE",
"892 988 OFFCURVE",
"888 1164 CURVE",
"580 1164 LINE",
"580 1148 LINE",
"872 1148 LINE",
"876 972 OFFCURVE",
"880 736 OFFCURVE",
"872 352 CURVE SMOOTH",
"868 132 OFFCURVE",
"800 60 OFFCURVE",
"596 60 CURVE SMOOTH",
"400 60 OFFCURVE",
"332 132 OFFCURVE",
"328 352 CURVE SMOOTH",
"312 1244 OFFCURVE",
"312 1956 OFFCURVE",
"328 2848 CURVE SMOOTH",
"332 3068 OFFCURVE",
"396 3140 OFFCURVE",
"592 3140 CURVE SMOOTH",
"784 3140 OFFCURVE",
"848 3068 OFFCURVE",
"856 2844 CURVE SMOOTH",
"864 2596 OFFCURVE",
"864 2392 OFFCURVE",
"856 2140 CURVE",
"872 2140 LINE",
"880 2392 OFFCURVE",
"880 2596 OFFCURVE",
"872 2848 CURVE SMOOTH",
"864 3076 OFFCURVE",
"792 3156 OFFCURVE",
"592 3156 CURVE SMOOTH",
"388 3156 OFFCURVE",
"316 3076 OFFCURVE",
"312 2848 CURVE SMOOTH",
"296 1956 OFFCURVE",
"296 1244 OFFCURVE",
"312 352 CURVE SMOOTH",
"316 124 OFFCURVE",
"388 44 OFFCURVE",
"596 44 CURVE SMOOTH"
);
}
);
width = 1116;
}
);
leftKerningGroup = O;
rightKerningGroup = O;
unicode = 0047;
},
{
glyphname = H;
layers = (
{
anchors = (
{
name = bottom;
position = "{760, 0}";
},
{
name = center;
position = "{760, 1600}";
},
{
name = top;
position = "{760, 3200}";
},
{
name = topleft;
position = "{200, 3200}";
}
);
background = {
paths = (
{
closed = 1;
nodes = (
"440 0 LINE",
"440 1524 LINE",
"1080 1524 LINE",
"1080 0 LINE",
"1240 0 LINE",
"1240 3200 LINE",
"1080 3200 LINE",
"1080 1676 LINE",
"440 1676 LINE",
"440 3200 LINE",
"280 3200 LINE",
"280 0 LINE"
);
}
);
};
layerId = "3B122060-26E0-4730-9241-82784E6CB359";
paths = (
{
closed = 1;
nodes = (
"376 0 LINE",
"376 1586 LINE",
"1144 1586 LINE",
"1144 0 LINE",
"1176 0 LINE",
"1176 3200 LINE",
"1144 3200 LINE",
"1144 1614 LINE",
"376 1614 LINE",
"376 3200 LINE",
"344 3200 LINE",
"344 0 LINE"
);
},
{
closed = 1;
nodes = (
"440 0 LINE",
"440 1530 LINE",
"1080 1530 LINE",
"1080 0 LINE",
"1112 0 LINE",
"1112 1558 LINE",
"408 1558 LINE",
"408 0 LINE"
);
},
{
closed = 1;
nodes = (
"312 0 LINE",
"312 3200 LINE",
"280 3200 LINE",
"280 0 LINE"
);
},
{
closed = 1;
nodes = (
"1240 0 LINE",
"1240 3200 LINE",
"1208 3200 LINE",
"1208 0 LINE"
);
},
{
closed = 1;
nodes = (
"1112 1642 LINE",
"1112 3200 LINE",
"1080 3200 LINE",
"1080 1670 LINE",
"440 1670 LINE",
"440 3200 LINE",
"408 3200 LINE",
"408 1642 LINE"
);
}
);
width = 1520;
},
{
anchors = (
{
name = bottom;
position = "{1012, 0}";
},
{
name = center;
position = "{1012, 1600}";
},
{
name = top;
position = "{1012, 3200}";
},
{
name = topleft;
position = "{80, 3200}";
}
);
background = {
paths = (
{
closed = 1;
nodes = (
"760 0 LINE",
"760 1364 LINE",
"1260 1364 LINE",
"1260 0 LINE",
"1860 0 LINE",
"1860 3200 LINE",
"1260 3200 LINE",
"1260 1892 LINE",
"760 1892 LINE",
"760 3200 LINE",
"160 3200 LINE",
"160 0 LINE"
);
}
);
};
layerId = "1DFA7D5B-2E97-4B89-827F-FB43F8066DC1";
paths = (
{
closed = 1;
nodes = (
"520 0 LINE",
"520 1576 LINE",
"1500 1576 LINE",
"1500 0 LINE",
"1620 0 LINE",
"1620 3200 LINE",
"1500 3200 LINE",
"1500 1680 LINE",
"520 1680 LINE",
"520 3200 LINE",
"400 3200 LINE",
"400 0 LINE"
);
},
{
closed = 1;
nodes = (
"760 0 LINE",
"760 1368 LINE",
"1260 1368 LINE",
"1260 0 LINE",
"1380 0 LINE",
"1380 1472 LINE",
"642 1472 LINE",
"642 0 LINE"
);
},
{
closed = 1;
nodes = (
"280 0 LINE",
"280 3200 LINE",
"160 3200 LINE",
"160 0 LINE"
);
},
{
closed = 1;
nodes = (
"1860 0 LINE",
"1860 3200 LINE",
"1740 3200 LINE",
"1740 0 LINE"
);
},
{
closed = 1;
nodes = (
"1380 1784 LINE",
"1380 3200 LINE",
"1260 3200 LINE",
"1260 1888 LINE",
"760 1888 LINE",
"760 3200 LINE",
"640 3200 LINE",
"640 1784 LINE"
);
}
);
width = 2020;
},
{
anchors = (
{
name = bottom;
position = "{972, 0}";
},
{
name = center;
position = "{972, 1600}";
},
{
name = top;
position = "{972, 3200}";
},
{
name = topleft;
position = "{80, 3200}";
}
);
background = {
paths = (
{
closed = 1;
nodes = (
"760 0 LINE",
"760 1364 LINE",
"1180 1364 LINE",
"1180 0 LINE",
"1780 0 LINE",
"1780 3200 LINE",
"1180 3200 LINE",
"1180 1892 LINE",
"760 1892 LINE",
"760 3200 LINE",
"160 3200 LINE",
"160 0 LINE"
);
}
);
};
layerId = "5013C991-8699-46CB-BB1C-82E334DBD38B";
paths = (
{
closed = 1;
nodes = (
"520 0 LINE",
"520 1576 LINE",
"1420 1576 LINE",
"1420 0 LINE",
"1540 0 LINE",
"1540 3200 LINE",
"1420 3200 LINE",
"1420 1680 LINE",
"520 1680 LINE",
"520 3200 LINE",
"400 3200 LINE",
"400 0 LINE"
);
},
{
closed = 1;
nodes = (
"760 0 LINE",
"760 1368 LINE",
"1180 1368 LINE",
"1180 0 LINE",
"1300 0 LINE",
"1300 1472 LINE",
"642 1472 LINE",
"642 0 LINE"
);
},
{
closed = 1;
nodes = (
"280 0 LINE",
"280 3200 LINE",
"160 3200 LINE",
"160 0 LINE"
);
},
{
closed = 1;
nodes = (
"1780 0 LINE",
"1780 3200 LINE",
"1660 3200 LINE",
"1660 0 LINE"
);
},
{
closed = 1;
nodes = (
"1300 1784 LINE",
"1300 3200 LINE",
"1180 3200 LINE",
"1180 1888 LINE",
"760 1888 LINE",
"760 3200 LINE",
"640 3200 LINE",
"640 1784 LINE"
);
}
);
width = 1940;
},
{
anchors = (
{
name = bottom;
position = "{600, 0}";
},
{
name = center;
position = "{600, 1600}";
},
{
name = top;
position = "{600, 3200}";
},
{
name = topleft;
position = "{160, 3200}";
}
);
background = {
paths = (
{
closed = 1;
nodes = (
"320 0 LINE",
"320 1560 LINE",
"880 1560 LINE",
"880 0 LINE",
"960 0 LINE",
"960 3200 LINE",
"880 3200 LINE",
"880 1640 LINE",
"320 1640 LINE",
"320 3200 LINE",
"240 3200 LINE",
"240 0 LINE"
);
}
);
};
layerId = "3D06B89B-468F-44E0-A3D7-A5BC6911123E";
paths = (
{
closed = 1;
nodes = (
"288 0 LINE",
"288 1592 LINE",
"912 1592 LINE",
"912 0 LINE",
"928 0 LINE",
"928 3200 LINE",
"912 3200 LINE",
"912 1608 LINE",
"288 1608 LINE",
"288 3200 LINE",
"272 3200 LINE",
"272 0 LINE"
);
},
{
closed = 1;
nodes = (
"320 0 LINE",
"320 1560 LINE",
"880 1560 LINE",
"880 0 LINE",
"896 0 LINE",
"896 1576 LINE",
"304 1576 LINE",
"304 0 LINE"
);
},
{
closed = 1;
nodes = (
"256 0 LINE",
"256 3200 LINE",
"240 3200 LINE",
"240 0 LINE"
);
},
{
closed = 1;
nodes = (
"960 0 LINE",
"960 3200 LINE",
"944 3200 LINE",
"944 0 LINE"
);
},
{
closed = 1;
nodes = (
"896 1624 LINE",
"896 3200 LINE",
"880 3200 LINE",
"880 1640 LINE",
"320 1640 LINE",
"320 3200 LINE",
"304 3200 LINE",
"304 1624 LINE"
);
}
);
width = 1200;
}
);
leftKerningGroup = H;
rightKerningGroup = H;
unicode = 0048;
},
{
glyphname = Hbar;
layers = (
{
anchors = (
{
name = bottom;
position = "{625.33, 0}";
},
{
name = center;
position = "{625.33, 1600}";
},
{
name = top;
position = "{625.33, 3200}";
},
{
name = topleft;
position = "{65.33, 3200}";
}
);
background = {
paths = (
{
closed = 1;
nodes = (
"13.33 2300 LINE",
"1237.33 2300 LINE",
"1237.33 2420 LINE",
"13.33 2420 LINE"
);
}
);
};
layerId = "3B122060-26E0-4730-9241-82784E6CB359";
leftMetricsKey = "=15";
rightMetricsKey = "=15";
paths = (
{
closed = 1;
nodes = (
"241.33 0 LINE",
"241.33 1586 LINE",
"1009.33 1586 LINE",
"1009.33 0 LINE",
"1041.33 0 LINE",
"1041.33 2335.1 LINE",
"1238.998 2335.1 LINE",
"1238.998 2363.1 LINE",
"1041.33 2363.1 LINE",
"1041.33 3200 LINE",
"1009.33 3200 LINE",
"1009.33 2363.1 LINE",
"241.33 2363.1 LINE",
"241.33 3200 LINE",
"209.33 3200 LINE",
"209.33 2363.1 LINE",
"14.998 2363.1 LINE",
"14.998 2335.1 LINE",
"209.33 2335.1 LINE",
"209.33 0 LINE"
);
},
{
closed = 1;
nodes = (
"177.33 0 LINE",
"177.33 2307.1 LINE",
"14.998 2307.1 LINE",
"14.998 2279.1 LINE",
"145.33 2279.1 LINE",
"145.33 0 LINE"
);
},
{
closed = 1;
nodes = (
"305.33 0 LINE",
"305.33 1530 LINE",
"945.33 1530 LINE",
"945.33 0 LINE",
"977.33 0 LINE",
"977.33 1558 LINE",
"273.33 1558 LINE",
"273.33 0 LINE"
);
},
{
closed = 1;
nodes = (
"1105.33 0 LINE",
"1105.33 2279.1 LINE",
"1238.998 2279.1 LINE",
"1238.998 2307.1 LINE",
"1073.33 2307.1 LINE",
"1073.33 0 LINE"
);
},
{
closed = 1;
nodes = (
"241.33 2335.1 LINE",
"1009.33 2335.1 LINE",
"1009.33 1614 LINE",
"241.33 1614 LINE"
);
},
{
closed = 1;
nodes = (
"977.33 1642 LINE",
"977.33 2307.1 LINE",
"273.33 2307.1 LINE",
"273.33 1642 LINE"
);
},
{
closed = 1;
nodes = (
"305.33 2279.1 LINE",
"945.33 2279.1 LINE",
"945.33 1670 LINE",
"305.33 1670 LINE"
);
},
{
closed = 1;
nodes = (
"177.33 2391.1 LINE",
"177.33 3200 LINE",
"145.33 3200 LINE",
"145.33 2419.1 LINE",
"14.998 2419.1 LINE",
"14.998 2391.1 LINE"
);
},
{
closed = 1;
nodes = (
"977.33 2391.1 LINE",
"977.33 3200 LINE",
"945.33 3200 LINE",
"945.33 2419.1 LINE",
"305.33 2419.1 LINE",
"305.33 3200 LINE",
"273.33 3200 LINE",
"273.33 2391.1 LINE"
);
},
{
closed = 1;
nodes = (
"1238.998 2391.1 LINE",
"1238.998 2419.1 LINE",
"1105.33 2419.1 LINE",
"1105.33 3200 LINE",
"1073.33 3200 LINE",
"1073.33 2391.1 LINE"
);
}
);
width = 1254;
},
{
anchors = (
{
name = bottom;
position = "{1072.946, 0}";
},
{
name = center;
position = "{1072.946, 1600}";
},
{
name = top;
position = "{1072.946, 3200}";
},
{
name = topleft;
position = "{1072.946, 3200}";
}
);
background = {
paths = (
{
closed = 1;
nodes = (
"31.07 2272 LINE",
"2115.07 2272 LINE",
"2115.07 2560 LINE",
"31.07 2560 LINE"
);
}
);
};
layerId = "1DFA7D5B-2E97-4B89-827F-FB43F8066DC1";
leftMetricsKey = "=30";
rightMetricsKey = "=30";
paths = (
{
closed = 1;
nodes = (
"583.07 0 LINE",
"583.07 1576 LINE",
"1563.07 1576 LINE",
"1563.07 0 LINE",
"1683.07 0 LINE",
"1683.07 2272.524 LINE",
"2113.998 2272.524 LINE",
"2113.998 2368.524 LINE",
"1683.07 2368.524 LINE",
"1683.07 3200 LINE",
"1563.07 3200 LINE",
"1563.07 2368.524 LINE",
"583.07 2368.524 LINE",
"583.07 3200 LINE",
"463.07 3200 LINE",
"463.07 2368.524 LINE",
"29.998 2368.524 LINE",
"29.998 2272.524 LINE",
"463.07 2272.524 LINE",
"463.07 0 LINE"
);
},
{
closed = 1;
nodes = (
"343.07 0 LINE",
"343.07 2176.524 LINE",
"29.998 2176.524 LINE",
"29.998 2080.524 LINE",
"223.07 2080.524 LINE",
"223.07 0 LINE"
);
},
{
closed = 1;
nodes = (
"823.07 0 LINE",
"823.07 1368 LINE",
"1323.07 1368 LINE",
"1323.07 0 LINE",
"1443.07 0 LINE",
"1443.07 1472 LINE",
"705 1472 LINE",
"705 0 LINE"
);
},
{
closed = 1;
nodes = (
"1923.07 0 LINE",
"1923.07 2080.524 LINE",
"2113.998 2080.524 LINE",
"2113.998 2176.524 LINE",
"1803.07 2176.524 LINE",
"1803.07 0 LINE"
);
},
{
closed = 1;
nodes = (
"583.07 2272.524 LINE",
"1563.07 2272.524 LINE",
"1563.07 1680 LINE",
"583.07 1680 LINE"
);
},
{
closed = 1;
nodes = (
"1443.07 1784 LINE",
"1443.07 2176.524 LINE",
"703.07 2176.524 LINE",
"703.07 1784 LINE"
);
},
{
closed = 1;
nodes = (
"823.07 2080.524 LINE",
"1323.07 2080.524 LINE",
"1323.07 1888 LINE",
"823.07 1888 LINE"
);
},
{
closed = 1;
nodes = (
"343.07 2464.524 LINE",
"343.07 3200 LINE",
"223.07 3200 LINE",
"223.07 2560.524 LINE",
"29.998 2560.524 LINE",
"29.998 2464.524 LINE"
);
},
{
closed = 1;
nodes = (
"1443.07 2464.524 LINE",
"1443.07 3200 LINE",
"1323.07 3200 LINE",
"1323.07 2560.524 LINE",
"823.07 2560.524 LINE",
"823.07 3200 LINE",
"703.07 3200 LINE",
"703.07 2464.524 LINE"
);
},
{
closed = 1;
nodes = (
"2113.998 2464.524 LINE",
"2113.998 2560.524 LINE",
"1923.07 2560.524 LINE",
"1923.07 3200 LINE",
"1803.07 3200 LINE",
"1803.07 2464.524 LINE"
);
}
);
width = 2144;
},
{
anchors = (
{
name = bottom;
position = "{1033.99, 0}";
},
{
name = center;
position = "{1033.99, 1600}";
},
{
name = top;
position = "{1033.99, 3200}";
},
{
name = topleft;
position = "{141.99, 3200}";
}
);
background = {
paths = (
{
closed = 1;
nodes = (
"-10.01 2272 LINE",
"2073.99 2272 LINE",
"2073.99 2560 LINE",
"-10.01 2560 LINE"
);
},
{
closed = 1;
nodes = (
"581.99 0 LINE",
"581.99 1576 LINE",
"1481.99 1576 LINE",
"1481.99 0 LINE",
"1601.99 0 LINE",
"1601.99 3200 LINE",
"1481.99 3200 LINE",
"1481.99 1680 LINE",
"581.99 1680 LINE",
"581.99 3200 LINE",
"461.99 3200 LINE",
"461.99 0 LINE"
);
},
{
closed = 1;
nodes = (
"821.99 0 LINE",
"821.99 1368 LINE",
"1241.99 1368 LINE",
"1241.99 0 LINE",
"1361.99 0 LINE",
"1361.99 1472 LINE",
"701.99 1472 LINE",
"705.99 0 LINE"
);
},
{
closed = 1;
nodes = (
"341.99 0 LINE",
"341.99 3200 LINE",
"221.99 3200 LINE",
"221.99 0 LINE"
);
},
{
closed = 1;
nodes = (
"1841.99 0 LINE",
"1841.99 3200 LINE",
"1721.99 3200 LINE",
"1721.99 0 LINE"
);
},
{
closed = 1;
nodes = (
"1361.99 1784 LINE",
"1361.99 3200 LINE",
"1241.99 3200 LINE",
"1241.99 1888 LINE",
"821.99 1888 LINE",
"821.99 3200 LINE",
"701.99 3200 LINE",
"701.99 1784 LINE"
);
}
);
};
layerId = "5013C991-8699-46CB-BB1C-82E334DBD38B";
leftMetricsKey = "=30";
rightMetricsKey = "=30";
paths = (
{
closed = 1;
nodes = (
"583.07 0 LINE",
"583.07 1576 LINE",
"1483.07 1576 LINE",
"1483.07 0 LINE",
"1603.07 0 LINE",
"1603.07 2272.524 LINE",
"2033.998 2272.524 LINE",
"2033.998 2368.524 LINE",
"1603.07 2368.524 LINE",
"1603.07 3200 LINE",
"1483.07 3200 LINE",
"1483.07 2368.524 LINE",
"583.07 2368.524 LINE",
"583.07 3200 LINE",
"463.07 3200 LINE",
"463.07 2368.524 LINE",
"29.998 2368.524 LINE",
"29.998 2272.524 LINE",
"463.07 2272.524 LINE",
"463.07 0 LINE"
);
},
{
closed = 1;
nodes = (
"343.07 0 LINE",
"343.07 2176.524 LINE",
"29.998 2176.524 LINE",
"29.998 2080.524 LINE",
"223.07 2080.524 LINE",
"223.07 0 LINE"
);
},
{
closed = 1;
nodes = (
"823.07 0 LINE",
"823.07 1368 LINE",
"1243.07 1368 LINE",
"1243.07 0 LINE",
"1363.07 0 LINE",
"1363.07 1472 LINE",
"705 1472 LINE",
"705 0 LINE"
);
},
{
closed = 1;
nodes = (
"1843.07 0 LINE",
"1843.07 2080.524 LINE",
"2033.998 2080.524 LINE",
"2033.998 2176.524 LINE",
"1723.07 2176.524 LINE",
"1723.07 0 LINE"
);
},
{
closed = 1;
nodes = (
"583.07 2272.524 LINE",
"1483.07 2272.524 LINE",
"1483.07 1680 LINE",
"583.07 1680 LINE"
);
},
{
closed = 1;
nodes = (
"1363.07 1784 LINE",
"1363.07 2176.524 LINE",
"703.07 2176.524 LINE",
"703.07 1784 LINE"
);
},
{
closed = 1;
nodes = (
"823.07 2080.524 LINE",
"1243.07 2080.524 LINE",
"1243.07 1888 LINE",
"823.07 1888 LINE"
);
},
{
closed = 1;
nodes = (
"343.07 2464.524 LINE",
"343.07 3200 LINE",
"223.07 3200 LINE",
"223.07 2560.524 LINE",
"29.998 2560.524 LINE",
"29.998 2464.524 LINE"
);
},
{
closed = 1;
nodes = (
"1363.07 2464.524 LINE",
"1363.07 3200 LINE",
"1243.07 3200 LINE",
"1243.07 2560.524 LINE",
"823.07 2560.524 LINE",
"823.07 3200 LINE",
"703.07 3200 LINE",
"703.07 2464.524 LINE"
);
},
{
closed = 1;
nodes = (
"2033.998 2464.524 LINE",
"2033.998 2560.524 LINE",
"1843.07 2560.524 LINE",
"1843.07 3200 LINE",
"1723.07 3200 LINE",
"1723.07 2464.524 LINE"
);
}
);
width = 2064;
},
{
anchors = (
{
name = bottom;
position = "{547, 0}";
},
{
name = center;
position = "{547, 1600}";
},
{
name = top;
position = "{547, 3200}";
},
{
name = topleft;
position = "{107, 3200}";
}
);
background = {
paths = (
{
closed = 1;
nodes = (
"15 2320 LINE",
"1079 2320 LINE",
"1079 2400 LINE",
"15 2400 LINE"
);
}
);
};
layerId = "3D06B89B-468F-44E0-A3D7-A5BC6911123E";
leftMetricsKey = "=15";
rightMetricsKey = "=15";
paths = (
{
closed = 1;
nodes = (
"235 0 LINE",
"235 1592 LINE",
"859 1592 LINE",
"859 0 LINE",
"875 0 LINE",
"875 2352 LINE",
"1079 2352 LINE",
"1079 2368 LINE",
"875 2368 LINE",
"875 3200 LINE",
"859 3200 LINE",
"859 2368 LINE",
"235 2368 LINE",
"235 3200 LINE",
"219 3200 LINE",
"219 2368 LINE",
"15 2368 LINE",
"15 2352 LINE",
"219 2352 LINE",
"219 0 LINE"
);
},
{
closed = 1;
nodes = (
"203 0 LINE",
"203 2336 LINE",
"15 2336 LINE",
"15 2320 LINE",
"187 2320 LINE",
"187 0 LINE"
);
},
{
closed = 1;
nodes = (
"267 0 LINE",
"267 1560 LINE",
"827 1560 LINE",
"827 0 LINE",
"843 0 LINE",
"843 1576 LINE",
"251 1576 LINE",
"251 0 LINE"
);
},
{
closed = 1;
nodes = (
"907 0 LINE",
"907 2320 LINE",
"1079 2320 LINE",
"1079 2336 LINE",
"891 2336 LINE",
"891 0 LINE"
);
},
{
closed = 1;
nodes = (
"235 2352 LINE",
"859 2352 LINE",
"859 1608 LINE",
"235 1608 LINE"
);
},
{
closed = 1;
nodes = (
"843 1624 LINE",
"843 2336 LINE",
"251 2336 LINE",
"251 1624 LINE"
);
},
{
closed = 1;
nodes = (
"267 2320 LINE",
"827 2320 LINE",
"827 1640 LINE",
"267 1640 LINE"
);
},
{
closed = 1;
nodes = (
"203 2384 LINE",
"203 3200 LINE",
"187 3200 LINE",
"187 2400 LINE",
"15 2400 LINE",
"15 2384 LINE"
);
},
{
closed = 1;
nodes = (
"843 2384 LINE",
"843 3200 LINE",
"827 3200 LINE",
"827 2400 LINE",
"267 2400 LINE",
"267 3200 LINE",
"251 3200 LINE",
"251 2384 LINE"
);
},
{
closed = 1;
nodes = (
"1079 2384 LINE",
"1079 2400 LINE",
"907 2400 LINE",
"907 3200 LINE",
"891 3200 LINE",
"891 2384 LINE"
);
}
);
width = 1094;
}
);
leftKerningGroup = H;
leftMetricsKey = "H-45";
rightKerningGroup = H;
rightMetricsKey = H;
unicode = 0126;
},
{
glyphname = I;
layers = (
{
anchors = (
{
name = bottom;
position = "{360, 0}";
},
{
name = ogonek;
position = "{360, 0}";
},
{
name = top;
position = "{360, 3200}";
},
{
name = topleft;
position = "{200, 3200}";
}
);
background = {
paths = (
{
closed = 1;
nodes = (
"440 0 LINE",
"440 3200 LINE",
"280 3200 LINE",
"280 0 LINE"
);
}
);
};
layerId = "3B122060-26E0-4730-9241-82784E6CB359";
paths = (
{
closed = 1;
nodes = (
"440 0 LINE",
"440 3200 LINE",
"408 3200 LINE",
"408 0 LINE"
);
},
{
closed = 1;
nodes = (
"312 0 LINE",
"312 3200 LINE",
"280 3200 LINE",
"280 0 LINE"
);
},
{
closed = 1;
nodes = (
"376 0 LINE",
"376 3200 LINE",
"344 3200 LINE",
"344 0 LINE"
);
}
);
width = 720;
},
{
anchors = (
{
name = bottom;
position = "{460, 0}";
},
{
name = ogonek;
position = "{376, 0}";
},
{
name = top;
position = "{460, 3200}";
},
{
name = topleft;
position = "{80, 3200}";
}
);
background = {
paths = (
{
closed = 1;
nodes = (
"760 0 LINE",
"760 3200 LINE",
"160 3200 LINE",
"160 0 LINE"
);
}
);
};
layerId = "1DFA7D5B-2E97-4B89-827F-FB43F8066DC1";
paths = (
{
closed = 1;
nodes = (
"760 0 LINE",
"760 3200 LINE",
"640 3200 LINE",
"640 0 LINE"
);
},
{
closed = 1;
nodes = (
"280 0 LINE",
"280 3200 LINE",
"160 3200 LINE",
"160 0 LINE"
);
},
{
closed = 1;
nodes = (
"520 0 LINE",
"520 3200 LINE",
"400 3200 LINE",
"400 0 LINE"
);
}
);
width = 920;
},
{
anchors = (
{
name = bottom;
position = "{460, 0}";
},
{
name = ogonek;
position = "{362.704, 0}";
},
{
name = top;
position = "{460, 3200}";
},
{
name = topleft;
position = "{80, 3200}";
}
);
background = {
paths = (
{
closed = 1;
nodes = (
"760 0 LINE",
"760 3200 LINE",
"160 3200 LINE",
"160 0 LINE"
);
}
);
};
layerId = "5013C991-8699-46CB-BB1C-82E334DBD38B";
paths = (
{
closed = 1;
nodes = (
"760 0 LINE",
"760 3200 LINE",
"640 3200 LINE",
"640 0 LINE"
);
},
{
closed = 1;
nodes = (
"280 0 LINE",
"280 3200 LINE",
"160 3200 LINE",
"160 0 LINE"
);
},
{
closed = 1;
nodes = (
"520 0 LINE",
"520 3200 LINE",
"400 3200 LINE",
"400 0 LINE"
);
}
);
width = 920;
},
{
anchors = (
{
name = bottom;
position = "{280, 0}";
},
{
name = ogonek;
position = "{284, 0}";
},
{
name = top;
position = "{280, 3200}";
},
{
name = topleft;
position = "{160, 3200}";
}
);
background = {
paths = (
{
closed = 1;
nodes = (
"320 0 LINE",
"320 3200 LINE",
"240 3200 LINE",
"240 0 LINE"
);
}
);
};
layerId = "3D06B89B-468F-44E0-A3D7-A5BC6911123E";
paths = (
{
closed = 1;
nodes = (
"320 0 LINE",
"320 3200 LINE",
"304 3200 LINE",
"304 0 LINE"
);
},
{
closed = 1;
nodes = (
"256 0 LINE",
"256 3200 LINE",
"240 3200 LINE",
"240 0 LINE"
);
},
{
closed = 1;
nodes = (
"288 0 LINE",
"288 3200 LINE",
"272 3200 LINE",
"272 0 LINE"
);
}
);
width = 560;
}
);
leftKerningGroup = H;
rightKerningGroup = H;
unicode = 0049;
},
{
glyphname = J;
layers = (
{
anchors = (
{
name = bottom;
position = "{532, 0}";
},
{
name = top;
position = "{612, 3200}";
}
);
background = {
paths = (
{
closed = 1;
nodes = (
"848 -20 OFFCURVE",
"980 96 OFFCURVE",
"980 392 CURVE SMOOTH",
"980 3200 LINE",
"820 3200 LINE",
"820 392 LINE SMOOTH",
"820 196 OFFCURVE",
"756 132 OFFCURVE",
"516 132 CURVE SMOOTH",
"308 132 OFFCURVE",
"252 196 OFFCURVE",
"244 392 CURVE SMOOTH",
"232 652 OFFCURVE",
"236 872 OFFCURVE",
"244 1132 CURVE",
"84 1132 LINE",
"76 852 OFFCURVE",
"76 672 OFFCURVE",
"84 392 CURVE SMOOTH",
"92 96 OFFCURVE",
"216 -20 OFFCURVE",
"516 -20 CURVE SMOOTH"
);
}
);
};
layerId = "3B122060-26E0-4730-9241-82784E6CB359";
paths = (
{
closed = 1;
nodes = (
"847.428 -20 OFFCURVE",
"980 97.716 OFFCURVE",
"980 392 CURVE SMOOTH",
"980 3200 LINE",
"948 3200 LINE",
"948 392 LINE SMOOTH",
"948 116 OFFCURVE",
"824.572 5.6 OFFCURVE",
"516 5.6 CURVE SMOOTH",
"238.284 5.6 OFFCURVE",
"124 116 OFFCURVE",
"116 392 CURVE SMOOTH",
"108 672 OFFCURVE",
"108 852 OFFCURVE",
"116 1132 CURVE",
"84 1132 LINE",
"76 852 OFFCURVE",
"76 672 OFFCURVE",
"84 392 CURVE SMOOTH",
"91.952 97.716 OFFCURVE",
"215.384 -20 OFFCURVE",
"516 -20 CURVE SMOOTH"
);
},
{
closed = 1;
nodes = (
"801.716 31.2 OFFCURVE",
"916 134.284 OFFCURVE",
"916 392 CURVE SMOOTH",
"916 3200 LINE",
"884 3200 LINE",
"884 392 LINE SMOOTH",
"884 152.572 OFFCURVE",
"778.856 56.8 OFFCURVE",
"516 56.8 CURVE SMOOTH",
"283.944 56.8 OFFCURVE",
"187.944 153.716 OFFCURVE",
"180 396 CURVE SMOOTH",
"172 672 OFFCURVE",
"172 856 OFFCURVE",
"180 1132 CURVE",
"148 1132 LINE",
"140 852 OFFCURVE",
"140 672 OFFCURVE",
"148 392 CURVE SMOOTH",
"156.052 134.284 OFFCURVE",
"261.196 31.2 OFFCURVE",
"516 31.2 CURVE SMOOTH"
);
},
{
closed = 1;
nodes = (
"756 82.4 OFFCURVE",
"852 170.856 OFFCURVE",
"852 392 CURVE SMOOTH",
"852 3200 LINE",
"820 3200 LINE",
"820 392 LINE SMOOTH",
"820 189.144 OFFCURVE",
"733.144 108 OFFCURVE",
"516 108 CURVE SMOOTH",
"325.748 108 OFFCURVE",
"248.032 190.284 OFFCURVE",
"244 396 CURVE SMOOTH",
"236 672 OFFCURVE",
"236 852 OFFCURVE",
"244 1132 CURVE",
"212 1132 LINE",
"208 854.36 OFFCURVE",
"204 672 OFFCURVE",
"212 396 CURVE SMOOTH",
"216 172 OFFCURVE",
"302.856 82.4 OFFCURVE",
"516 82.4 CURVE SMOOTH"
);
}
);
width = 1140;
},
{
anchors = (
{
name = bottom;
position = "{920, -40}";
},
{
name = top;
position = "{1032, 3200}";
}
);
background = {
paths = (
{
closed = 1;
nodes = (
"1536 -40 OFFCURVE",
"1780 188 OFFCURVE",
"1780 764 CURVE SMOOTH",
"1780 3200 LINE",
"1180 3200 LINE",
"1180 692 LINE SMOOTH",
"1180 516 OFFCURVE",
"1104 448 OFFCURVE",
"920 448 CURVE SMOOTH",
"732 448 OFFCURVE",
"652 516 OFFCURVE",
"648 692 CURVE SMOOTH",
"644 836 OFFCURVE",
"644 1056 OFFCURVE",
"648 1200 CURVE",
"84 1200 LINE",
"80 1072 OFFCURVE",
"80 892 OFFCURVE",
"84 764 CURVE SMOOTH",
"100 188 OFFCURVE",
"340 -40 OFFCURVE",
"920 -40 CURVE SMOOTH"
);
}
);
};
layerId = "1DFA7D5B-2E97-4B89-827F-FB43F8066DC1";
paths = (
{
closed = 1;
nodes = (
"1534.284 -40 OFFCURVE",
"1780 189.716 OFFCURVE",
"1780 764 CURVE SMOOTH",
"1780 3200 LINE",
"1660 3200 LINE",
"1660 764 LINE SMOOTH",
"1660 258.284 OFFCURVE",
"1448.572 56 OFFCURVE",
"920 56 CURVE SMOOTH",
"424.464 56 OFFCURVE",
"219.892 259.428 OFFCURVE",
"204 768 CURVE SMOOTH",
"200 892 OFFCURVE",
"200 1076 OFFCURVE",
"204 1200 CURVE",
"84 1200 LINE",
"80 1072 OFFCURVE",
"80 892 OFFCURVE",
"84 764 CURVE SMOOTH",
"99.952 189.716 OFFCURVE",
"338.808 -40 OFFCURVE",
"920 -40 CURVE SMOOTH"
);
},
{
closed = 1;
nodes = (
"1362.856 152 OFFCURVE",
"1540 326.856 OFFCURVE",
"1540 764 CURVE SMOOTH",
"1540 3200 LINE",
"1420 3200 LINE",
"1420 764 LINE SMOOTH",
"1420 395.428 OFFCURVE",
"1277.144 248 OFFCURVE",
"920 248 CURVE SMOOTH",
"593.968 248 OFFCURVE",
"457.968 398.856 OFFCURVE",
"444 776 CURVE SMOOTH",
"440 896 OFFCURVE",
"440 1080 OFFCURVE",
"444 1200 CURVE",
"324 1200 LINE",
"320 1076 OFFCURVE",
"320 892 OFFCURVE",
"324 772 CURVE SMOOTH",
"337.024 329.144 OFFCURVE",
"507.312 152 OFFCURVE",
"920 152 CURVE SMOOTH"
);
},
{
closed = 1;
nodes = (
"1191.428 344 OFFCURVE",
"1300 464 OFFCURVE",
"1300 764 CURVE SMOOTH",
"1300 3200 LINE",
"1180 3200 LINE",
"1180 764 LINE SMOOTH",
"1180 532.572 OFFCURVE",
"1105.716 440 OFFCURVE",
"920 440 CURVE SMOOTH",
"757.656 440 OFFCURVE",
"690.228 537.144 OFFCURVE",
"684 780 CURVE SMOOTH",
"680 900 OFFCURVE",
"680 1084 OFFCURVE",
"684 1200 CURVE",
"564 1200 LINE",
"560 1084 OFFCURVE",
"560 896 OFFCURVE",
"564 780 CURVE SMOOTH",
"574.212 468.572 OFFCURVE",
"675.924 344 OFFCURVE",
"920 344 CURVE SMOOTH"
);
}
);
width = 1900;
},
{
anchors = (
{
name = bottom;
position = "{920, -40}";
},
{
name = top;
position = "{1032, 3200}";
}
);
background = {
paths = (
{
closed = 1;
nodes = (
"1524 -40 OFFCURVE",
"1740 188 OFFCURVE",
"1740 764 CURVE SMOOTH",
"1740 3200 LINE",
"1140 3200 LINE",
"1140 652 LINE SMOOTH",
"1140 520 OFFCURVE",
"1076 448 OFFCURVE",
"920 448 CURVE SMOOTH",
"764 448 OFFCURVE",
"692 520 OFFCURVE",
"688 652 CURVE SMOOTH",
"684 796 OFFCURVE",
"684 1056 OFFCURVE",
"688 1200 CURVE",
"124 1200 LINE",
"120 1072 OFFCURVE",
"120 892 OFFCURVE",
"124 764 CURVE SMOOTH",
"140 188 OFFCURVE",
"332 -40 OFFCURVE",
"920 -40 CURVE SMOOTH"
);
}
);
};
layerId = "5013C991-8699-46CB-BB1C-82E334DBD38B";
paths = (
{
closed = 1;
nodes = (
"1506.284 -40 OFFCURVE",
"1736 189.716 OFFCURVE",
"1736 764 CURVE SMOOTH",
"1736 3200 LINE",
"1616 3200 LINE",
"1616 764 LINE SMOOTH",
"1616 258.284 OFFCURVE",
"1420.572 56 OFFCURVE",
"932 56 CURVE SMOOTH",
"461.244 56 OFFCURVE",
"264.672 259.428 OFFCURVE",
"244 768 CURVE SMOOTH",
"240 876 OFFCURVE",
"240 996 OFFCURVE",
"248 1200 CURVE",
"128 1200 LINE",
"120 1000 OFFCURVE",
"120 876 OFFCURVE",
"124 764 CURVE SMOOTH",
"143.94 189.716 OFFCURVE",
"374.796 -40 OFFCURVE",
"932 -40 CURVE SMOOTH"
);
},
{
closed = 1;
nodes = (
"1334.856 152 OFFCURVE",
"1496 326.856 OFFCURVE",
"1496 764 CURVE SMOOTH",
"1496 3200 LINE",
"1376 3200 LINE",
"1376 764 LINE SMOOTH",
"1376 395.428 OFFCURVE",
"1249.144 248 OFFCURVE",
"932 248 CURVE SMOOTH",
"625.796 248 OFFCURVE",
"497.796 398.856 OFFCURVE",
"484 776 CURVE SMOOTH",
"480 884 OFFCURVE",
"480 1008 OFFCURVE",
"488 1200 CURVE",
"368 1200 LINE",
"360 996 OFFCURVE",
"360 876 OFFCURVE",
"364 772 CURVE SMOOTH",
"381.368 329.144 OFFCURVE",
"543.652 152 OFFCURVE",
"932 152 CURVE SMOOTH"
);
},
{
closed = 1;
nodes = (
"1163.428 344 OFFCURVE",
"1256 464 OFFCURVE",
"1256 764 CURVE SMOOTH",
"1256 3200 LINE",
"1136 3200 LINE",
"1136 764 LINE SMOOTH",
"1136 532.572 OFFCURVE",
"1077.716 440 OFFCURVE",
"932 440 CURVE SMOOTH",
"789.656 440 OFFCURVE",
"730.228 537.144 OFFCURVE",
"724 780 CURVE SMOOTH",
"720 884 OFFCURVE",
"720 1004 OFFCURVE",
"728 1200 CURVE",
"608 1200 LINE",
"600 1008 OFFCURVE",
"600 884 OFFCURVE",
"604 780 CURVE SMOOTH",
"614.212 468.572 OFFCURVE",
"707.924 344 OFFCURVE",
"932 344 CURVE SMOOTH"
);
}
);
width = 1896;
},
{
anchors = (
{
name = bottom;
position = "{492, 0}";
},
{
name = top;
position = "{572, 3200}";
}
);
background = {
paths = (
{
closed = 1;
nodes = (
"720 -20 OFFCURVE",
"820 88 OFFCURVE",
"820 352 CURVE SMOOTH",
"820 3200 LINE",
"740 3200 LINE",
"740 352 LINE SMOOTH",
"740 144 OFFCURVE",
"664 60 OFFCURVE",
"476 60 CURVE SMOOTH",
"280 60 OFFCURVE",
"212 144 OFFCURVE",
"204 352 CURVE SMOOTH",
"196 612 OFFCURVE",
"196 872 OFFCURVE",
"204 1132 CURVE",
"124 1132 LINE",
"116 852 OFFCURVE",
"116 632 OFFCURVE",
"124 352 CURVE SMOOTH",
"128 88 OFFCURVE",
"228 -20 OFFCURVE",
"476 -20 CURVE SMOOTH"
);
}
);
};
layerId = "3D06B89B-468F-44E0-A3D7-A5BC6911123E";
paths = (
{
closed = 1;
nodes = (
"721.716 -20 OFFCURVE",
"820 86.284 OFFCURVE",
"820 352 CURVE SMOOTH",
"820 3200 LINE",
"804 3200 LINE",
"804 352 LINE SMOOTH",
"804 97.716 OFFCURVE",
"710.284 -4 OFFCURVE",
"476 -4 CURVE SMOOTH",
"239.856 -4 OFFCURVE",
"143.852 97.816 OFFCURVE",
"139.996 352.348 CURVE SMOOTH",
"132 632.228 OFFCURVE",
"132 851.772 OFFCURVE",
"139.992 1128.916 CURVE",
"124 1128.916 LINE",
"116 852 OFFCURVE",
"116 632 OFFCURVE",
"124 352 CURVE SMOOTH",
"128.024 86.284 OFFCURVE",
"228.596 -20 OFFCURVE",
"476 -20 CURVE SMOOTH"
);
},
{
closed = 1;
nodes = (
"698.856 9.472 OFFCURVE",
"788 109.144 OFFCURVE",
"788 352 CURVE SMOOTH",
"788 3200 LINE",
"770.616 3200 LINE",
"770.616 348.116 LINE SMOOTH",
"770.616 116.688 OFFCURVE",
"686.044 25.588 OFFCURVE",
"474.616 25.588 CURVE SMOOTH",
"264.092 25.588 OFFCURVE",
"177.232 116.924 OFFCURVE",
"170.604 348.952 CURVE SMOOTH",
"162.616 628.8 OFFCURVE",
"162.616 847.428 OFFCURVE",
"170.592 1128.916 CURVE",
"155.988 1128.916 LINE",
"148 851.544 OFFCURVE",
"148 632.456 OFFCURVE",
"155.992 352.7 CURVE SMOOTH",
"159.68 109.344 OFFCURVE",
"251.112 9.472 OFFCURVE",
"476 9.472 CURVE SMOOTH"
);
},
{
closed = 1;
nodes = (
"674.616 40.116 OFFCURVE",
"754.616 128.116 OFFCURVE",
"754.616 348.116 CURVE SMOOTH",
"754.616 3200 LINE",
"738.616 3200 LINE",
"738.616 348.116 LINE SMOOTH",
"738.616 139.544 OFFCURVE",
"663.184 56.116 OFFCURVE",
"474.616 56.116 CURVE SMOOTH",
"286.304 56.116 OFFCURVE",
"208.584 140.044 OFFCURVE",
"202.592 349.864 CURVE SMOOTH",
"194.616 629.256 OFFCURVE",
"194.616 846.972 OFFCURVE",
"202.58 1128.916 CURVE",
"186.588 1128.916 LINE",
"178.616 847.2 OFFCURVE",
"178.616 629.028 OFFCURVE",
"186.6 349.408 CURVE SMOOTH",
"192.908 128.484 OFFCURVE",
"275.2 40.116 OFFCURVE",
"474.616 40.116 CURVE SMOOTH"
);
}
);
width = 1060;
}
);
leftKerningGroup = J;
rightKerningGroup = O;
unicode = 004A;
},
{
glyphname = K;
layers = (
{
anchors = (
{
name = bottom;
position = "{740, 0}";
},
{
name = top;
position = "{700, 3200}";
}
);
background = {
paths = (
{
closed = 1;
nodes = (
"440 0 LINE",
"440 720 LINE",
"680 1436 LINE",
"1100 0 LINE",
"1272 0 LINE",
"764 1704 LINE",
"1208 3200 LINE",
"1040 3200 LINE",
"852 2564 LINE",
"512 1396 LINE",
"440 1396 LINE",
"440 2556 LINE",
"440 3200 LINE",
"280 3200 LINE",
"280 0 LINE"
);
}
);
};
layerId = "3B122060-26E0-4730-9241-82784E6CB359";
paths = (
{
closed = 1;
nodes = (
"376 0 LINE",
"376 729.684 LINE",
"670.64 1681.132 LINE",
"1171.824 0 LINE",
"1205.216 0 LINE",
"687.656 1736.068 LINE",
"1141 3200 LINE",
"1107.504 3200 LINE",
"750.216 2046.268 LINE",
"380 837.86 LINE",
"372 837.86 LINE",
"376 2064.344 LINE",
"376 3200 LINE",
"344 3200 LINE",
"344 0 LINE"
);
},
{
closed = 1;
nodes = (
"440 0 LINE",
"440 720 LINE",
"669.476 1461.02 LINE",
"1105.04 0 LINE",
"1138.432 0 LINE",
"670.06 1571.076 LINE",
"408 724.844 LINE",
"408 0 LINE"
);
},
{
closed = 1;
nodes = (
"312 0 LINE",
"312 3200 LINE",
"280 3200 LINE",
"280 0 LINE"
);
},
{
closed = 1;
nodes = (
"1272 0 LINE",
"754.544 1735.716 LINE",
"1208 3200 LINE",
"1174.5 3200 LINE",
"721.1 1735.892 LINE",
"1238.608 0 LINE"
);
},
{
closed = 1;
nodes = (
"404 997.368 LINE",
"728.152 2083.188 LINE",
"1074.004 3200 LINE",
"1040 3200 LINE",
"704.428 2115.76 LINE",
"436 1213.388 LINE",
"428 1213.388 LINE",
"440 2115.224 LINE",
"440 3200 LINE",
"408 3200 LINE",
"408 2087.516 LINE",
"396 997.368 LINE"
);
}
);
width = 1432;
},
{
anchors = (
{
name = bottom;
position = "{1060, 0}";
},
{
name = top;
position = "{1060, 3200}";
}
);
background = {
paths = (
{
closed = 1;
nodes = (
"772 0 LINE",
"772 720 LINE",
"1060 1280 LINE",
"1424 0 LINE",
"2032 0 LINE",
"1476 1884 LINE",
"2008 3200 LINE",
"1352 3200 LINE",
"1064 2424 LINE",
"872 1708 LINE",
"724 1708 LINE",
"792 2424 LINE",
"800 3200 LINE",
"160 3200 LINE",
"160 0 LINE"
);
}
);
};
layerId = "1DFA7D5B-2E97-4B89-827F-FB43F8066DC1";
paths = (
{
closed = 1;
nodes = (
"520 0 LINE",
"520 751.172 LINE",
"1022.188 1756.568 LINE",
"1649.716 0 LINE",
"1777.144 0 LINE",
"1096.48 1905.304 LINE",
"1743.172 3200 LINE",
"1605.768 3200 LINE",
"1164.328 2318.408 LINE",
"544 1021.436 LINE",
"488 1021.436 LINE",
"520 2308.036 LINE",
"520 3200 LINE",
"400 3200 LINE",
"400 0 LINE"
);
},
{
closed = 1;
nodes = (
"760 0 LINE",
"760 695.924 LINE",
"984.98 1147.336 LINE",
"1394.86 0 LINE",
"1522.292 0 LINE",
"1003.224 1452.964 LINE",
"640 724.168 LINE",
"640 0 LINE"
);
},
{
closed = 1;
nodes = (
"280 0 LINE",
"280 3200 LINE",
"160 3200 LINE",
"160 0 LINE"
);
},
{
closed = 1;
nodes = (
"2032 0 LINE",
"1356.096 1891.976 LINE",
"2008 3200 LINE",
"1873.924 3200 LINE",
"1225.896 1899.748 LINE",
"1904.572 0 LINE"
);
},
{
closed = 1;
nodes = (
"598.696 1284 LINE",
"1069.608 2400 LINE",
"1470.996 3200 LINE",
"1337.612 3200 LINE",
"977.172 2461.192 LINE",
"696.592 1713.228 LINE",
"656.592 1713.228 LINE",
"760 2443.072 LINE",
"760 3200 LINE",
"640 3200 LINE",
"640 2365.728 LINE",
"550.696 1284 LINE"
);
}
);
width = 2112;
},
{
anchors = (
{
name = bottom;
position = "{1060, 0}";
},
{
name = top;
position = "{1060, 3200}";
}
);
background = {
paths = (
{
closed = 1;
nodes = (
"772 0 LINE",
"772 736 LINE",
"996 1220 LINE",
"1344 0 LINE",
"1952 0 LINE",
"1396 1884 LINE",
"1928 3200 LINE",
"1272 3200 LINE",
"984 2424 LINE",
"792 1708 LINE",
"684 1708 LINE",
"792 2424 LINE",
"800 3200 LINE",
"160 3200 LINE",
"160 0 LINE"
);
}
);
};
layerId = "5013C991-8699-46CB-BB1C-82E334DBD38B";
paths = (
{
closed = 1;
nodes = (
"520 0 LINE",
"520 763.928 LINE",
"958.416 1698.404 LINE",
"1569.412 0 LINE",
"1696.944 0 LINE",
"1030.596 1852.256 LINE",
"1662.9 3200 LINE",
"1530.348 3200 LINE",
"1127.564 2341.472 LINE",
"552 1046.456 LINE",
"496 1046.456 LINE",
"520 2450.048 LINE",
"520 3200 LINE",
"400 3200 LINE",
"400 0 LINE"
);
},
{
closed = 1;
nodes = (
"760 0 LINE",
"760 710.424 LINE",
"929.108 1070.876 LINE",
"1314.356 0 LINE",
"1441.884 0 LINE",
"943.764 1384.64 LINE",
"640 737.176 LINE",
"640 0 LINE"
);
},
{
closed = 1;
nodes = (
"280 0 LINE",
"280 3200 LINE",
"160 3200 LINE",
"160 0 LINE"
);
},
{
closed = 1;
nodes = (
"1952 0 LINE",
"1290.012 1840.14 LINE",
"1928 3200 LINE",
"1795.448 3200 LINE",
"1160.304 1846.196 LINE",
"1824.472 0 LINE"
);
},
{
closed = 1;
nodes = (
"598.032 1288.14 LINE",
"1037.624 2432.288 LINE",
"1397.8 3200 LINE",
"1265.248 3200 LINE",
"942.664 2512.416 LINE",
"688.844 1700 LINE",
"648.844 1700 LINE",
"760 2532.952 LINE",
"760 3200 LINE",
"640 3200 LINE",
"640 2493.936 LINE",
"550.032 1288.14 LINE"
);
}
);
width = 2032;
},
{
anchors = (
{
name = bottom;
position = "{596, 0}";
},
{
name = top;
position = "{556, 3200}";
}
);
background = {
paths = (
{
closed = 1;
nodes = (
"320 0 LINE",
"320 1196 LINE",
"440 1576 LINE",
"900 0 LINE",
"992 0 LINE",
"484 1704 LINE",
"928 3200 LINE",
"840 3200 LINE",
"652 2564 LINE",
"364 1580 LINE",
"320 1580 LINE",
"320 2580 LINE",
"320 3200 LINE",
"240 3200 LINE",
"240 0 LINE"
);
}
);
};
layerId = "3D06B89B-468F-44E0-A3D7-A5BC6911123E";
paths = (
{
closed = 1;
nodes = (
"288 0 LINE",
"288 1200.748 LINE",
"437.268 1692.74 LINE",
"941.912 0 LINE",
"958.608 0 LINE",
"445.688 1720.496 LINE",
"894.56 3200 LINE",
"877.84 3200 LINE",
"581.08 2221.86 LINE",
"292 1267.856 LINE",
"284 1267.856 LINE",
"288 2218.748 LINE",
"288 3200 LINE",
"272 3200 LINE",
"272 0 LINE"
);
},
{
closed = 1;
nodes = (
"320 0 LINE",
"320 1196 LINE",
"437 1581.636 LINE",
"908.52 0 LINE",
"925.216 0 LINE",
"437.132 1637.188 LINE",
"304 1198.372 LINE",
"304 0 LINE"
);
},
{
closed = 1;
nodes = (
"256 0 LINE",
"256 3200 LINE",
"240 3200 LINE",
"240 0 LINE"
);
},
{
closed = 1;
nodes = (
"992 0 LINE",
"479.104 1720.42 LINE",
"928 3200 LINE",
"911.28 3200 LINE",
"462.396 1720.456 LINE",
"975.304 0 LINE"
);
},
{
closed = 1;
nodes = (
"304 1351.704 LINE",
"567.592 2232.516 LINE",
"861.12 3200 LINE",
"844.4 3200 LINE",
"553.248 2240.356 LINE",
"324 1471.552 LINE",
"316 1471.552 LINE",
"320 2236.864 LINE",
"320 3200 LINE",
"304 3200 LINE",
"304 2228.992 LINE",
"296 1351.704 LINE"
);
}
);
width = 1112;
},
{
anchors = (
{
name = bottom;
position = "{820, 0}";
},
{
name = top;
position = "{790, 3200}";
}
);
associatedMasterId = "3B122060-26E0-4730-9241-82784E6CB359";
background = {
paths = (
{
closed = 1;
nodes = (
"440 0 LINE",
"440 720 LINE",
"680 1436 LINE",
"1100 0 LINE",
"1272 0 LINE",
"764 1704 LINE",
"1208 3200 LINE",
"1040 3200 LINE",
"852 2564 LINE",
"512 1396 LINE",
"440 1396 LINE",
"440 2556 LINE",
"440 3200 LINE",
"280 3200 LINE",
"280 0 LINE"
);
}
);
};
layerId = "DFAE000E-F9FD-4526-A5E4-24F5166B6C05";
name = "{300,10}";
paths = (
{
closed = 1;
nodes = (
"412 0 LINE",
"412 743.056 LINE",
"758.528 1699.992 LINE",
"1291.296 0 LINE",
"1348.196 0 LINE",
"789.864 1778.376 LINE",
"1291.544 3200 LINE",
"1232.068 3200 LINE",
"853.744 2114.3 LINE",
"421 891.756 LINE",
"401 891.756 LINE",
"412 2125.268 LINE",
"412 3200 LINE",
"358 3200 LINE",
"358 0 LINE"
);
},
{
closed = 1;
nodes = (
"520 0 LINE",
"520 713.98 LINE",
"748.352 1382.6 LINE",
"1177.496 0 LINE",
"1234.396 0 LINE",
"753.352 1541.548 LINE",
"466 724.676 LINE",
"466 0 LINE"
);
},
{
closed = 1;
nodes = (
"304 0 LINE",
"304 3200 LINE",
"250 3200 LINE",
"250 0 LINE"
);
},
{
closed = 1;
nodes = (
"1462 0 LINE",
"904.932 1774.78 LINE",
"1408 3200 LINE",
"1349.356 3200 LINE",
"847.3 1776.856 LINE",
"1405.1 0 LINE"
);
},
{
closed = 1;
nodes = (
"456.676 1101.024 LINE",
"813.516 2162.392 LINE",
"1173.252 3200 LINE",
"1114.404 3200 LINE",
"772.616 2202.116 LINE",
"501.148 1378.348 LINE",
"485.148 1378.348 LINE",
"520 2197.188 LINE",
"520 3200 LINE",
"466 3200 LINE",
"466 2157.068 LINE",
"438.676 1101.024 LINE"
);
}
);
width = 1602;
},
{
anchors = (
{
name = bottom;
position = "{712, 0}";
},
{
name = top;
position = "{682, 3200}";
}
);
associatedMasterId = "3D06B89B-468F-44E0-A3D7-A5BC6911123E";
background = {
paths = (
{
closed = 1;
nodes = (
"320 0 LINE",
"320 1196 LINE",
"440 1576 LINE",
"900 0 LINE",
"992 0 LINE",
"484 1704 LINE",
"928 3200 LINE",
"840 3200 LINE",
"652 2564 LINE",
"364 1580 LINE",
"320 1580 LINE",
"320 2580 LINE",
"320 3200 LINE",
"240 3200 LINE",
"240 0 LINE"
);
}
);
};
layerId = "CC5AC257-B262-4467-807C-FDE83CE12B07";
name = "{300,72}";
paths = (
{
closed = 1;
nodes = (
"346 0 LINE",
"346 1091.54 LINE",
"567.556 1694.156 LINE",
"1098.788 0 LINE",
"1143.192 0 LINE",
"591.916 1753.436 LINE",
"1086.644 3200 LINE",
"1040.968 3200 LINE",
"717.7 2251.764 LINE",
"357 1212.508 LINE",
"337 1212.508 LINE",
"346 2276.572 LINE",
"346 3200 LINE",
"304 3200 LINE",
"304 0 LINE"
);
},
{
closed = 1;
nodes = (
"430 0 LINE",
"430 1074.604 LINE",
"560.028 1453.944 LINE",
"1009.98 0 LINE",
"1054.384 0 LINE",
"563.792 1574.052 LINE",
"388 1083.072 LINE",
"388 0 LINE"
);
},
{
closed = 1;
nodes = (
"262 0 LINE",
"262 3200 LINE",
"220 3200 LINE",
"220 0 LINE"
);
},
{
closed = 1;
nodes = (
"1232 0 LINE",
"681.832 1750.348 LINE",
"1178 3200 LINE",
"1132.324 3200 LINE",
"636.872 1751.892 LINE",
"1187.596 0 LINE"
);
},
{
closed = 1;
nodes = (
"381.508 1379.812 LINE",
"685.1 2282.46 LINE",
"995.288 3200 LINE",
"949.612 3200 LINE",
"650.604 2308.372 LINE",
"419.212 1612.664 LINE",
"403.212 1612.664 LINE",
"430 2310.888 LINE",
"430 3200 LINE",
"388 3200 LINE",
"388 2295.228 LINE",
"363.508 1379.812 LINE"
);
}
);
width = 1342;
}
);
leftKerningGroup = H;
rightKerningGroup = K;
unicode = 004B;
},
{
glyphname = L;
layers = (
{
anchors = (
{
name = bottom;
position = "{724, 0}";
},
{
name = center;
position = "{660, 1600}";
},
{
name = top;
position = "{660, 3200}";
},
{
name = topright;
position = "{996, 3200}";
}
);
background = {
paths = (
{
closed = 1;
nodes = (
"1156 0 LINE",
"1156 152 LINE",
"440 152 LINE",
"440 3200 LINE",
"280 3200 LINE",
"280 0 LINE"
);
}
);
};
layerId = "3B122060-26E0-4730-9241-82784E6CB359";
paths = (
{
closed = 1;
nodes = (
"1156 0 LINE",
"1156 28 LINE",
"312 28 LINE",
"312 3200 LINE",
"280 3200 LINE",
"280 0 LINE"
);
},
{
closed = 1;
nodes = (
"1156 56 LINE",
"1156 84 LINE",
"376 84 LINE",
"376 3200 LINE",
"344 3200 LINE",
"344 56 LINE"
);
},
{
closed = 1;
nodes = (
"1156 112 LINE",
"1156 140 LINE",
"440 140 LINE",
"440 3200 LINE",
"408 3200 LINE",
"408 112 LINE"
);
}
);
width = 1316;
},
{
anchors = (
{
name = bottom;
position = "{772, 0}";
},
{
name = center;
position = "{876, 1600}";
},
{
name = top;
position = "{876, 3200}";
},
{
name = topright;
position = "{1668, 3200}";
}
);
background = {
paths = (
{
closed = 1;
nodes = (
"1548 0 LINE",
"1548 528 LINE",
"760 528 LINE",
"760 3200 LINE",
"160 3200 LINE",
"160 0 LINE"
);
}
);
};
layerId = "1DFA7D5B-2E97-4B89-827F-FB43F8066DC1";
paths = (
{
closed = 1;
nodes = (
"1548 0 LINE",
"1548 104 LINE",
"280 104 LINE",
"280 3200 LINE",
"160 3200 LINE",
"160 0 LINE"
);
},
{
closed = 1;
nodes = (
"1548 208 LINE",
"1548 312 LINE",
"520 312 LINE",
"520 3200 LINE",
"400 3200 LINE",
"400 208 LINE"
);
},
{
closed = 1;
nodes = (
"1548 416 LINE",
"1548 520 LINE",
"760 520 LINE",
"760 3200 LINE",
"640 3200 LINE",
"640 416 LINE"
);
}
);
width = 1628;
},
{
anchors = (
{
name = bottom;
position = "{816, 0}";
},
{
name = center;
position = "{876, 1600}";
},
{
name = top;
position = "{876, 3200}";
},
{
name = topright;
position = "{1668, 3200}";
}
);
background = {
paths = (
{
closed = 1;
nodes = (
"1548 0 LINE",
"1548 528 LINE",
"760 528 LINE",
"760 3200 LINE",
"160 3200 LINE",
"160 0 LINE"
);
}
);
};
layerId = "5013C991-8699-46CB-BB1C-82E334DBD38B";
paths = (
{
closed = 1;
nodes = (
"1548 0 LINE",
"1548 104 LINE",
"280 104 LINE",
"280 3200 LINE",
"160 3200 LINE",
"160 0 LINE"
);
},
{
closed = 1;
nodes = (
"1548 208 LINE",
"1548 312 LINE",
"520 312 LINE",
"520 3200 LINE",
"400 3200 LINE",
"400 208 LINE"
);
},
{
closed = 1;
nodes = (
"1548 416 LINE",
"1548 520 LINE",
"760 520 LINE",
"760 3200 LINE",
"640 3200 LINE",
"640 416 LINE"
);
}
);
width = 1628;
},
{
anchors = (
{
name = bottom;
position = "{564, 0}";
},
{
name = center;
position = "{500, 1600}";
},
{
name = top;
position = "{500, 3200}";
},
{
name = topright;
position = "{836, 3200}";
}
);
background = {
paths = (
{
closed = 1;
nodes = (
"876 0 LINE",
"876 80 LINE",
"320 80 LINE",
"320 3200 LINE",
"240 3200 LINE",
"240 0 LINE"
);
}
);
};
layerId = "3D06B89B-468F-44E0-A3D7-A5BC6911123E";
paths = (
{
closed = 1;
nodes = (
"876 0 LINE",
"876 16 LINE",
"256 16 LINE",
"256 3200 LINE",
"240 3200 LINE",
"240 0 LINE"
);
},
{
closed = 1;
nodes = (
"876 32 LINE",
"876 48 LINE",
"288 48 LINE",
"288 3200 LINE",
"272 3200 LINE",
"272 32 LINE"
);
},
{
closed = 1;
nodes = (
"876 64 LINE",
"876 80 LINE",
"320 80 LINE",
"320 3200 LINE",
"304 3200 LINE",
"304 64 LINE"
);
}
);
width = 996;
}
);
leftKerningGroup = H;
rightKerningGroup = L;
unicode = 004C;
},
{
glyphname = Lslash;
layers = (
{
anchors = (
{
name = bottom;
position = "{712, 0}";
},
{
name = center;
position = "{648, 1600}";
},
{
name = top;
position = "{648, 3200}";
},
{
name = topright;
position = "{984, 3200}";
}
);
background = {
paths = (
{
closed = 0;
nodes = (
"300 28 LINE",
"300 1727.016 LINE",
"103.828 1665.808 LINE",
"103.828 1635.26 LINE",
"268 1686.484 LINE",
"268 0 LINE"
);
},
{
closed = 0;
nodes = (
"364 84 LINE",
"364 1777.532 LINE",
"603.828 1852.356 LINE",
"603.828 1882.904 LINE",
"364 1808.08 LINE",
"364 3200 LINE",
"332 3200 LINE",
"332 1798.096 LINE",
"103.828 1726.904 LINE",
"103.828 1696.356 LINE",
"332 1767.548 LINE",
"332 56 LINE"
);
},
{
closed = 0;
nodes = (
"428 140 LINE",
"428 1736.404 LINE",
"603.828 1791.26 LINE",
"603.828 1821.808 LINE",
"396 1756.968 LINE",
"396 112 LINE"
);
}
);
};
layerId = "3B122060-26E0-4730-9241-82784E6CB359";
paths = (
{
closed = 1;
nodes = (
"90.116 805.404 LINE",
"300 1617.5 LINE",
"300 3200 LINE",
"268 3200 LINE",
"268 1617.5 LINE",
"58.116 805.404 LINE"
);
},
{
closed = 1;
nodes = (
"391.844 1918.344 LINE",
"502.236 2400 LINE",
"469.464 2400 LINE",
"469.464 2375.796 LINE",
"418.572 2148.856 LINE",
"410.572 2148.856 LINE",
"428 2388.484 LINE",
"428 3200 LINE",
"396 3200 LINE",
"396 2406.04 LINE",
"379.844 1918.344 LINE"
);
},
{
closed = 1;
nodes = (
"300 817.144 LINE",
"312.188 1310.856 LINE",
"300.188 1310.856 LINE",
"186.116 805.404 LINE",
"218.116 805.404 LINE",
"227.916 843.32 LINE",
"275.216 1102.828 LINE",
"285.252 1102.828 LINE",
"268 818.6 LINE",
"268 0 LINE",
"1144 0 LINE",
"1144 28 LINE",
"300 28 LINE"
);
},
{
closed = 1;
nodes = (
"364 1617.5 LINE",
"566.236 2400 LINE",
"534.236 2400 LINE",
"466.096 2136.356 LINE",
"368 1737.316 LINE",
"360 1737.316 LINE",
"364 2378.416 LINE",
"364 3200 LINE",
"332 3200 LINE",
"332 1617.5 LINE",
"122.116 805.404 LINE",
"154.116 805.404 LINE",
"235.416 1119.98 LINE",
"328 1493.68 LINE",
"336 1493.68 LINE",
"332 851.164 LINE",
"332 56 LINE",
"1144 56 LINE",
"1144 84 LINE",
"364 84 LINE"
);
},
{
closed = 1;
nodes = (
"428 1617.5 LINE",
"630.236 2400 LINE",
"598.236 2400 LINE",
"396 1617.5 LINE",
"396 112 LINE",
"1144 112 LINE",
"1144 140 LINE",
"428 140 LINE"
);
}
);
width = 1304;
},
{
anchors = (
{
name = bottom;
position = "{1297.528, 0}";
},
{
name = center;
position = "{1305.72, 1600}";
},
{
name = top;
position = "{1305.72, 3200}";
},
{
name = topright;
position = "{2097.72, 3200}";
}
);
background = {
paths = (
{
closed = 1;
nodes = (
"709.72 1705.496 LINE",
"709.72 3200 LINE",
"589.72 3200 LINE",
"589.72 1769.324 LINE",
"397.72 1712 LINE",
"397.72 1612.348 LINE"
);
},
{
closed = 1;
nodes = (
"1509.72 1944.348 LINE",
"1509.72 2044 LINE",
"1189.72 1948.46 LINE",
"1189.72 3200 LINE",
"1069.72 3200 LINE",
"1069.72 1812.98 LINE"
);
},
{
closed = 0;
nodes = (
"709.72 104 LINE",
"709.72 1406.536 LINE",
"397.72 1313.388 LINE",
"397.72 1213.732 LINE",
"589.72 1271.056 LINE",
"589.72 0 LINE"
);
},
{
closed = 0;
nodes = (
"949.72 312 LINE",
"949.72 1577.844 LINE",
"1509.72 1745.04 LINE",
"1509.72 1844.692 LINE",
"949.72 1677.5 LINE",
"949.72 3200 LINE",
"829.72 3200 LINE",
"829.72 1641.672 LINE",
"397.72 1512.692 LINE",
"397.72 1413.04 LINE",
"829.72 1542.02 LINE",
"829.72 208 LINE"
);
},
{
closed = 0;
nodes = (
"1189.72 520 LINE",
"1189.72 1450.192 LINE",
"1509.72 1545.732 LINE",
"1509.72 1645.388 LINE",
"1069.72 1514.02 LINE",
"1069.72 416 LINE"
);
}
);
};
layerId = "1DFA7D5B-2E97-4B89-827F-FB43F8066DC1";
paths = (
{
closed = 1;
nodes = (
"123.992 701.564 LINE",
"709.72 1543.224 LINE",
"709.72 3200 LINE",
"589.72 3200 LINE",
"589.72 1568.816 LINE",
"-0.008 701.564 LINE"
);
},
{
closed = 1;
nodes = (
"1013.72 1895.896 LINE",
"1339.26 2400 LINE",
"1207.26 2400 LINE",
"1207.26 2362.876 LINE",
"1117.72 2196.608 LINE",
"1103.16 2196.608 LINE",
"1189.72 2527.264 LINE",
"1189.72 3200 LINE",
"1069.72 3200 LINE",
"1059.452 2590.564 LINE",
"990.52 1895.896 LINE"
);
},
{
closed = 1;
nodes = (
"709.72 528.328 LINE",
"793.08 1216.296 LINE",
"767.852 1216.296 LINE",
"443.992 701.564 LINE",
"587.992 701.564 LINE",
"587.992 735.14 LINE",
"684.7 953.7 LINE",
"700.308 953.7 LINE",
"589.72 531.852 LINE",
"589.72 0 LINE",
"1977.72 0 LINE",
"1977.72 104 LINE",
"709.72 104 LINE"
);
},
{
closed = 1;
nodes = (
"949.72 1539.868 LINE",
"1583.26 2400 LINE",
"1443.26 2400 LINE",
"1240.88 2120.76 LINE",
"937.72 1707.02 LINE",
"929.72 1707.02 LINE",
"949.72 2525.092 LINE",
"949.72 3200 LINE",
"829.72 3200 LINE",
"829.72 1565.46 LINE",
"219.992 701.564 LINE",
"359.992 701.564 LINE",
"584.996 1029.564 LINE",
"841.72 1422.308 LINE",
"849.72 1422.308 LINE",
"829.72 601.436 LINE",
"829.72 208 LINE",
"1977.72 208 LINE",
"1977.72 312 LINE",
"949.72 312 LINE"
);
},
{
closed = 1;
nodes = (
"1189.72 1527.868 LINE",
"1815.26 2400 LINE",
"1683.26 2400 LINE",
"1069.72 1553.46 LINE",
"1069.72 416 LINE",
"1977.72 416 LINE",
"1977.72 520 LINE",
"1189.72 520 LINE"
);
}
);
width = 2057.72;
},
{
anchors = (
{
name = bottom;
position = "{1245.72, 0}";
},
{
name = center;
position = "{1305.72, 1600}";
},
{
name = top;
position = "{1305.72, 3200}";
},
{
name = topright;
position = "{2097.72, 3200}";
}
);
background = {
components = (
{
name = L;
transform = "{1, 0, 0, 1, 107.43, 0}";
}
);
paths = (
{
closed = 1;
nodes = (
"397.72 1424 LINE",
"1509.72 1756 LINE",
"1509.72 2044 LINE",
"397.72 1712 LINE"
);
}
);
};
layerId = "5013C991-8699-46CB-BB1C-82E334DBD38B";
paths = (
{
closed = 1;
nodes = (
"123.992 701.564 LINE",
"709.72 1543.224 LINE",
"709.72 3200 LINE",
"589.72 3200 LINE",
"589.72 1568.816 LINE",
"-0.008 701.564 LINE"
);
},
{
closed = 1;
nodes = (
"1013.72 1895.896 LINE",
"1339.26 2400 LINE",
"1207.26 2400 LINE",
"1207.26 2362.876 LINE",
"1117.72 2196.608 LINE",
"1103.16 2196.608 LINE",
"1189.72 2527.264 LINE",
"1189.72 3200 LINE",
"1069.72 3200 LINE",
"1059.452 2590.564 LINE",
"990.52 1895.896 LINE"
);
},
{
closed = 1;
nodes = (
"709.72 528.328 LINE",
"793.08 1216.296 LINE",
"767.852 1216.296 LINE",
"443.992 701.564 LINE",
"587.992 701.564 LINE",
"587.992 735.14 LINE",
"684.7 953.7 LINE",
"700.308 953.7 LINE",
"589.72 531.852 LINE",
"589.72 0 LINE",
"1977.72 0 LINE",
"1977.72 104 LINE",
"709.72 104 LINE"
);
},
{
closed = 1;
nodes = (
"949.72 1539.868 LINE",
"1583.26 2400 LINE",
"1443.26 2400 LINE",
"1240.88 2120.76 LINE",
"937.72 1707.02 LINE",
"929.72 1707.02 LINE",
"949.72 2525.092 LINE",
"949.72 3200 LINE",
"829.72 3200 LINE",
"829.72 1565.46 LINE",
"219.992 701.564 LINE",
"359.992 701.564 LINE",
"584.996 1029.564 LINE",
"841.72 1422.308 LINE",
"849.72 1422.308 LINE",
"829.72 601.436 LINE",
"829.72 208 LINE",
"1977.72 208 LINE",
"1977.72 312 LINE",
"949.72 312 LINE"
);
},
{
closed = 1;
nodes = (
"1189.72 1527.868 LINE",
"1815.26 2400 LINE",
"1683.26 2400 LINE",
"1069.72 1553.46 LINE",
"1069.72 416 LINE",
"1977.72 416 LINE",
"1977.72 520 LINE",
"1189.72 520 LINE"
);
}
);
width = 2057.72;
},
{
anchors = (
{
name = bottom;
position = "{576, 0}";
},
{
name = center;
position = "{512, 1600}";
},
{
name = top;
position = "{512, 3200}";
},
{
name = topright;
position = "{848, 3200}";
}
);
background = {
paths = (
{
closed = 1;
nodes = (
"268 1842.828 LINE",
"268 3200 LINE",
"252 3200 LINE",
"252 1851.884 LINE",
"80 1788 LINE",
"80 1773 LINE"
);
},
{
closed = 1;
nodes = (
"500 1929 LINE",
"500 1944 LINE",
"332 1881.6 LINE",
"332 3200 LINE",
"316 3200 LINE",
"316 1860.66 LINE"
);
},
{
closed = 0;
nodes = (
"268 16 LINE",
"268 1797.832 LINE",
"80 1728.004 LINE",
"80 1713.004 LINE",
"252 1776.892 LINE",
"252 0 LINE"
);
},
{
closed = 0;
nodes = (
"300 48 LINE",
"300 1824.716 LINE",
"500 1899.004 LINE",
"500 1914.004 LINE",
"300 1839.716 LINE",
"300 3200 LINE",
"284 3200 LINE",
"284 1833.772 LINE",
"80 1758.004 LINE",
"80 1743.004 LINE",
"284 1818.776 LINE",
"284 32 LINE"
);
},
{
closed = 0;
nodes = (
"332 80 LINE",
"332 1806.604 LINE",
"500 1869.004 LINE",
"500 1884.004 LINE",
"316 1815.66 LINE",
"316 64 LINE"
);
}
);
};
layerId = "3D06B89B-468F-44E0-A3D7-A5BC6911123E";
paths = (
{
closed = 1;
nodes = (
"53.236 808.204 LINE",
"268 1829.3 LINE",
"268 3200 LINE",
"252 3200 LINE",
"252 1829.3 LINE",
"37.236 808.204 LINE"
);
},
{
closed = 1;
nodes = (
"320 2057.516 LINE",
"468.8 2784 LINE",
"452.8 2784 LINE",
"448.144 2761.864 LINE",
"336 2209.66 LINE",
"328 2209.66 LINE",
"332 2763.004 LINE",
"332 3200 LINE",
"316 3200 LINE",
"316 2763.004 LINE",
"312 2057.516 LINE"
);
},
{
closed = 1;
nodes = (
"268 836.908 LINE",
"272 1601.088 LINE",
"264 1601.088 LINE",
"101.236 808.204 LINE",
"117.236 808.204 LINE",
"124.032 840.516 LINE",
"248 1448.944 LINE",
"256 1448.944 LINE",
"252 836.908 LINE",
"252 0 LINE",
"888 0 LINE",
"888 16 LINE",
"268 16 LINE"
);
},
{
closed = 1;
nodes = (
"300 1829.3 LINE",
"500.8 2784 LINE",
"484.8 2784 LINE",
"383.6 2292.208 LINE",
"304 1905.372 LINE",
"296 1905.004 LINE",
"300 2743.264 LINE",
"300 3200 LINE",
"284 3200 LINE",
"284 1829.3 LINE",
"69.236 808.204 LINE",
"85.236 808.204 LINE",
"165.664 1198.46 LINE",
"280 1753.228 LINE",
"288 1753.228 LINE",
"284 859.62 LINE",
"284 32 LINE",
"888 32 LINE",
"888 48 LINE",
"300 48 LINE"
);
},
{
closed = 1;
nodes = (
"332 1829.3 LINE",
"532.8 2784 LINE",
"516.8 2784 LINE",
"316 1829.3 LINE",
"316 64 LINE",
"888 64 LINE",
"888 80 LINE",
"332 80 LINE"
);
}
);
width = 1008;
}
);
leftKerningGroup = H;
rightKerningGroup = L;
rightMetricsKey = L;
unicode = 0141;
},
{
glyphname = M;
layers = (
{
anchors = (
{
name = bottom;
position = "{1096, 0}";
},
{
name = top;
position = "{1096, 3200}";
}
);
background = {
paths = (
{
closed = 1;
nodes = (
"440 0 LINE",
"440 908 LINE",
"440 3048 LINE",
"600 3048 LINE",
"828 904 LINE",
"920 20 LINE",
"1268 20 LINE",
"1360 904 LINE",
"1588 3048 LINE",
"1748 3048 LINE",
"1748 896 LINE",
"1748 0 LINE",
"1908 0 LINE",
"1908 3200 LINE",
"1444 3200 LINE",
"1296 1836 LINE",
"1128 172 LINE",
"1060 172 LINE",
"892 1836 LINE",
"744 3200 LINE",
"280 3200 LINE",
"280 0 LINE"
);
}
);
};
layerId = "3B122060-26E0-4730-9241-82784E6CB359";
paths = (
{
closed = 1;
nodes = (
"312 0 LINE",
"312 3172 LINE",
"716 3172 LINE",
"886.744 1531.88 LINE",
"1032 132 LINE",
"1154.3 132 LINE",
"1299.556 1531.88 LINE",
"1470.3 3172 LINE",
"1874.3 3172 LINE",
"1874.3 0 LINE",
"1906.3 0 LINE",
"1906.3 3200 LINE",
"1442.3 3200 LINE",
"1271.332 1561.74 LINE",
"1126.3 160 LINE",
"1060 160 LINE",
"914.968 1561.74 LINE",
"744 3200 LINE",
"280 3200 LINE",
"280 0 LINE"
);
},
{
closed = 1;
nodes = (
"440 0 LINE",
"440 1412.384 LINE",
"440 3060 LINE",
"598.516 3060 LINE",
"769.82 1412.748 LINE",
"916 20 LINE",
"1270.3 20 LINE",
"1416.48 1412.748 LINE",
"1589.28 3060 LINE",
"1746.3 3060 LINE",
"1746.3 1412.384 LINE",
"1746.3 0 LINE",
"1778.3 0 LINE",
"1778.3 1412.384 LINE",
"1778.3 3088 LINE",
"1558.3 3088 LINE",
"1388.624 1446.108 LINE",
"1242.3 48 LINE",
"944 48 LINE",
"797.676 1446.108 LINE",
"628 3088 LINE",
"408 3088 LINE",
"408 1412.384 LINE",
"408 0 LINE"
);
},
{
closed = 1;
nodes = (
"376 0 LINE",
"376 1412.384 LINE",
"376 3116 LINE",
"656 3116 LINE",
"826.6 1469.276 LINE",
"972 76 LINE",
"1214.3 76 LINE",
"1359.7 1469.276 LINE",
"1530.3 3116 LINE",
"1810.3 3116 LINE",
"1810.3 1412.384 LINE",
"1810.3 0 LINE",
"1842.3 0 LINE",
"1842.3 1412.384 LINE",
"1842.3 3144 LINE",
"1498.3 3144 LINE",
"1328.236 1506.388 LINE",
"1182.3 104 LINE",
"1004 104 LINE",
"858.064 1506.388 LINE",
"688 3144 LINE",
"344 3144 LINE",
"344 1412.384 LINE",
"344 0 LINE"
);
}
);
width = 2186.28;
},
{
anchors = (
{
name = bottom;
position = "{1652, 0}";
},
{
name = top;
position = "{1652, 3200}";
}
);
background = {
paths = (
{
closed = 1;
nodes = (
"780 0 LINE",
"780 984 LINE",
"668 2672 LINE",
"852 2672 LINE",
"1024 944 LINE",
"1268 0 LINE",
"2012 0 LINE",
"2280 944 LINE",
"2448 2672 LINE",
"2636 2672 LINE",
"2520 984 LINE",
"2520 0 LINE",
"3140 0 LINE",
"3140 3200 LINE",
"2060 3200 LINE",
"1792 1988 LINE",
"1744 528 LINE",
"1560 528 LINE",
"1508 1988 LINE",
"1244 3200 LINE",
"160 3200 LINE",
"160 0 LINE"
);
}
);
};
layerId = "1DFA7D5B-2E97-4B89-827F-FB43F8066DC1";
paths = (
{
closed = 1;
nodes = (
"280 0 LINE",
"280 3104 LINE",
"1192 3104 LINE",
"1391.928 1568.38 LINE",
"1504 384 LINE",
"1796 384 LINE",
"1908.072 1568.38 LINE",
"2108 3104 LINE",
"3020 3104 LINE",
"3020 0 LINE",
"3140 0 LINE",
"3140 3200 LINE",
"2004 3200 LINE",
"1805.832 1642.428 LINE",
"1704 480 LINE",
"1596 480 LINE",
"1494.168 1642.428 LINE",
"1296 3200 LINE",
"160 3200 LINE",
"160 0 LINE"
);
},
{
closed = 1;
nodes = (
"772 0 LINE",
"772 1152.948 LINE",
"684 2720 LINE",
"816 2720 LINE",
"986.364 1154.156 LINE",
"1080 0 LINE",
"2220 0 LINE",
"2313.636 1154.156 LINE",
"2484 2720 LINE",
"2616 2720 LINE",
"2528 1152.948 LINE",
"2528 0 LINE",
"2648 0 LINE",
"2648 1252.948 LINE",
"2732 2816 LINE",
"2396 2816 LINE",
"2211.416 1251.512 LINE",
"2104 96 LINE",
"1196 96 LINE",
"1088.584 1251.512 LINE",
"904 2816 LINE",
"568 2816 LINE",
"652 1252.948 LINE",
"652 0 LINE"
);
},
{
closed = 1;
nodes = (
"520 0 LINE",
"520 1348.948 LINE",
"472 2912 LINE",
"992 2912 LINE",
"1192.98 1349.684 LINE",
"1300 192 LINE",
"2000 192 LINE",
"2107.02 1349.684 LINE",
"2308 2912 LINE",
"2828 2912 LINE",
"2780 1348.948 LINE",
"2780 0 LINE",
"2900 0 LINE",
"2900 1476.948 LINE",
"2940 3008 LINE",
"2208 3008 LINE",
"2007.984 1478.064 LINE",
"1904 288 LINE",
"1396 288 LINE",
"1292.016 1478.064 LINE",
"1092 3008 LINE",
"360 3008 LINE",
"400 1476.948 LINE",
"400 0 LINE"
);
}
);
width = 3300;
},
{
anchors = (
{
name = bottom;
position = "{1599.724, 0}";
},
{
name = top;
position = "{1599.724, 3200}";
}
);
background = {
paths = (
{
closed = 1;
nodes = (
"760 0 LINE",
"760 984 LINE",
"648 2672 LINE",
"752 2672 LINE",
"924 944 LINE",
"1168 0 LINE",
"1812 0 LINE",
"2060 944 LINE",
"2228 2672 LINE",
"2336 2672 LINE",
"2220 984 LINE",
"2220 0 LINE",
"2820 0 LINE",
"2820 3200 LINE",
"1860 3200 LINE",
"1592 1988 LINE",
"1544 528 LINE",
"1440 528 LINE",
"1388 1988 LINE",
"1124 3200 LINE",
"160 3200 LINE",
"160 0 LINE"
);
}
);
};
layerId = "5013C991-8699-46CB-BB1C-82E334DBD38B";
paths = (
{
closed = 1;
nodes = (
"280 0 LINE",
"280 3104 LINE",
"1052 3104 LINE",
"1243.928 1568.38 LINE",
"1376 384 LINE",
"1609.976 384 LINE",
"1742.048 1568.38 LINE",
"1925.976 3104 LINE",
"2705.976 3104 LINE",
"2705.976 0 LINE",
"2825.976 0 LINE",
"2825.976 3200 LINE",
"1821.976 3200 LINE",
"1639.808 1642.428 LINE",
"1517.976 480 LINE",
"1468 480 LINE",
"1346.168 1642.428 LINE",
"1156 3200 LINE",
"160 3200 LINE",
"160 0 LINE"
);
},
{
closed = 1;
nodes = (
"772 0 LINE",
"748 1152.948 LINE",
"640 2720 LINE",
"680 2720 LINE",
"858.364 1154.156 LINE",
"984 0 LINE",
"2001.976 0 LINE",
"2127.612 1154.156 LINE",
"2305.976 2720 LINE",
"2345.976 2720 LINE",
"2237.976 1152.948 LINE",
"2213.976 0 LINE",
"2333.976 0 LINE",
"2357.976 1252.948 LINE",
"2449.976 2816 LINE",
"2217.976 2816 LINE",
"2025.392 1251.512 LINE",
"1893.976 96 LINE",
"1092 96 LINE",
"960.584 1251.512 LINE",
"768 2816 LINE",
"536 2816 LINE",
"628 1252.948 LINE",
"652 0 LINE"
);
},
{
closed = 1;
nodes = (
"520 0 LINE",
"508 1348.948 LINE",
"460 2912 LINE",
"856 2912 LINE",
"1052.98 1365.684 LINE",
"1180 192 LINE",
"1797.976 192 LINE",
"1932.996 1365.684 LINE",
"2133.976 2912 LINE",
"2525.976 2912 LINE",
"2477.976 1348.948 LINE",
"2465.976 0 LINE",
"2585.976 0 LINE",
"2597.976 1476.948 LINE",
"2637.976 3008 LINE",
"2033.976 3008 LINE",
"1833.96 1494.064 LINE",
"1701.976 288 LINE",
"1276 288 LINE",
"1152.016 1494.064 LINE",
"956 3008 LINE",
"348 3008 LINE",
"388 1476.948 LINE",
"400 0 LINE"
);
}
);
width = 2985.96;
},
{
anchors = (
{
name = bottom;
position = "{816, 0}";
},
{
name = top;
position = "{816, 3200}";
}
);
background = {
paths = (
{
closed = 1;
nodes = (
"320 0 LINE",
"320 900 LINE",
"320 3120 LINE",
"392 3120 LINE",
"628 904 LINE",
"716 20 LINE",
"912 20 LINE",
"1000 904 LINE",
"1236 3120 LINE",
"1308 3120 LINE",
"1308 928 LINE",
"1308 0 LINE",
"1388 0 LINE",
"1388 3200 LINE",
"1164 3200 LINE",
"1012 1836 LINE",
"840 100 LINE",
"788 100 LINE",
"616 1836 LINE",
"464 3200 LINE",
"240 3200 LINE",
"240 0 LINE"
);
}
);
};
layerId = "3D06B89B-468F-44E0-A3D7-A5BC6911123E";
paths = (
{
closed = 1;
nodes = (
"256 0 LINE",
"256 3184 LINE",
"428 3184 LINE",
"595.68 1416.564 LINE",
"724 64 LINE",
"800 64 LINE",
"928.084 1414.092 LINE",
"1096 3184 LINE",
"1268 3184 LINE",
"1268 0 LINE",
"1284 0 LINE",
"1284 3200 LINE",
"1084 3200 LINE",
"913.704 1428.904 LINE",
"784 80 LINE",
"736 80 LINE",
"607.888 1430.364 LINE",
"440 3200 LINE",
"240 3200 LINE",
"240 0 LINE"
);
},
{
closed = 1;
nodes = (
"320 0 LINE",
"320 1368 LINE",
"320 3120 LINE",
"372 3120 LINE",
"537.824 1372.144 LINE",
"668 0 LINE",
"856 0 LINE",
"986.336 1373.816 LINE",
"1152 3120 LINE",
"1204 3120 LINE",
"1204 1368 LINE",
"1204 0 LINE",
"1220 0 LINE",
"1220 1368 LINE",
"1220 3136 LINE",
"1136 3136 LINE",
"969.952 1385.756 LINE",
"840 16 LINE",
"680 16 LINE",
"550.512 1380.872 LINE",
"384 3136 LINE",
"304 3136 LINE",
"304 1368 LINE",
"304 0 LINE"
);
},
{
closed = 1;
nodes = (
"288 0 LINE",
"288 1368 LINE",
"288 3152 LINE",
"400 3152 LINE",
"566.664 1395.288 LINE",
"696 32 LINE",
"828 32 LINE",
"957.348 1395.396 LINE",
"1124 3152 LINE",
"1236 3152 LINE",
"1236 1368 LINE",
"1236 0 LINE",
"1252 0 LINE",
"1252 1369.732 LINE",
"1252 3168 LINE",
"1108 3168 LINE",
"940.908 1406.744 LINE",
"812 48 LINE",
"712 48 LINE",
"581.488 1405.32 LINE",
"412 3168 LINE",
"272 3168 LINE",
"272 1371.688 LINE",
"272 0 LINE"
);
}
);
width = 1524;
}
);
leftKerningGroup = H;
rightKerningGroup = H;
unicode = 004D;
},
{
glyphname = N;
layers = (
{
anchors = (
{
name = bottom;
position = "{924, 0}";
},
{
name = top;
position = "{952, 3200}";
}
);
background = {
paths = (
{
closed = 1;
nodes = (
"440 0 LINE",
"440 1204 LINE",
"440 3048 LINE",
"604 3048 LINE",
"864 1200 LINE",
"1036 0 LINE",
"1500 0 LINE",
"1500 3200 LINE",
"1340 3200 LINE",
"1340 2204 LINE",
"1340 152 LINE",
"1176 152 LINE",
"884 2192 LINE",
"740 3200 LINE",
"280 3200 LINE",
"280 0 LINE"
);
}
);
};
layerId = "3B122060-26E0-4730-9241-82784E6CB359";
paths = (
{
closed = 1;
nodes = (
"312 0 LINE",
"312 3172 LINE",
"712.36 3172 LINE",
"1147.108 112 LINE",
"1372 112 LINE",
"1372 1918.932 LINE",
"1372 3200 LINE",
"1340 3200 LINE",
"1340 1918.932 LINE",
"1340 140 LINE",
"1174.28 140 LINE",
"924.748 1906.74 LINE",
"740 3200 LINE",
"280 3200 LINE",
"280 0 LINE"
);
},
{
closed = 1;
nodes = (
"376 0 LINE",
"376 1363.168 LINE",
"376 3116 LINE",
"656.756 3116 LINE",
"1091.612 56 LINE",
"1436 56 LINE",
"1436 1918.932 LINE",
"1436 3200 LINE",
"1404 3200 LINE",
"1404 1918.932 LINE",
"1404 84 LINE",
"1119.36 84 LINE",
"684.464 3144 LINE",
"344 3144 LINE",
"344 1363.168 LINE",
"344 0 LINE"
);
},
{
closed = 1;
nodes = (
"440 0 LINE",
"440 1363.168 LINE",
"440 3060 LINE",
"601.252 3060 LINE",
"839.268 1375.656 LINE",
"1036 0 LINE",
"1500 0 LINE",
"1500 3200 LINE",
"1468 3200 LINE",
"1468 28 LINE",
"1063.864 28 LINE",
"629.008 3088 LINE",
"408 3088 LINE",
"408 1363.168 LINE",
"408 0 LINE"
);
}
);
width = 1780;
},
{
anchors = (
{
name = bottom;
position = "{1188, 0}";
},
{
name = top;
position = "{1188, 3200}";
}
);
background = {
paths = (
{
closed = 1;
nodes = (
"760 0 LINE",
"708 1228 LINE",
"604 2676 LINE",
"796 2676 LINE",
"960 1048 LINE",
"1200 0 LINE",
"2236 0 LINE",
"2236 3200 LINE",
"1632 3200 LINE",
"1680 1828 LINE",
"1792 528 LINE",
"1608 528 LINE",
"1388 2180 LINE",
"1148 3200 LINE",
"160 3200 LINE",
"160 0 LINE"
);
}
);
};
layerId = "1DFA7D5B-2E97-4B89-827F-FB43F8066DC1";
paths = (
{
closed = 1;
nodes = (
"280 0 LINE",
"280 3104 LINE",
"1080 3104 LINE",
"1592 384 LINE",
"1840 384 LINE",
"1732 1788.216 LINE",
"1732 3200 LINE",
"1608 3200 LINE",
"1628 1788.216 LINE",
"1744 480 LINE",
"1664 480 LINE",
"1440.828 1790.796 LINE",
"1180 3200 LINE",
"160 3200 LINE",
"160 0 LINE"
);
},
{
closed = 1;
nodes = (
"520 0 LINE",
"528 1372.608 LINE",
"460 2912 LINE",
"884 2912 LINE",
"1416 192 LINE",
"2012 192 LINE",
"1980 1788.216 LINE",
"1988 3200 LINE",
"1864 3200 LINE",
"1856 1788.216 LINE",
"1924 288 LINE",
"1508 288 LINE",
"984 3008 LINE",
"376 3008 LINE",
"408 1372.608 LINE",
"400 0 LINE"
);
},
{
closed = 1;
nodes = (
"772 0 LINE",
"748 1372.608 LINE",
"652 2720 LINE",
"732 2720 LINE",
"953.628 1384.572 LINE",
"1204 0 LINE",
"2212 0 LINE",
"2228 3200 LINE",
"2108 3200 LINE",
"2092 96 LINE",
"1316 96 LINE",
"804 2816 LINE",
"552 2816 LINE",
"652 1372.608 LINE",
"652 0 LINE"
);
}
);
width = 2388;
},
{
anchors = (
{
name = bottom;
position = "{1088, 0}";
},
{
name = top;
position = "{1088, 3200}";
}
);
background = {
paths = (
{
closed = 1;
nodes = (
"740 0 LINE",
"688 1228 LINE",
"584 2676 LINE",
"696 2676 LINE",
"860 1048 LINE",
"1100 0 LINE",
"2012 0 LINE",
"2012 3200 LINE",
"1432 3200 LINE",
"1480 1828 LINE",
"1592 528 LINE",
"1488 528 LINE",
"1268 2180 LINE",
"1028 3200 LINE",
"160 3200 LINE",
"160 0 LINE"
);
}
);
};
layerId = "5013C991-8699-46CB-BB1C-82E334DBD38B";
paths = (
{
closed = 1;
nodes = (
"280 0 LINE",
"280 3104 LINE",
"1064 3104 LINE",
"1412 384 LINE",
"1668 384 LINE",
"1560 1908.216 LINE",
"1536 3200 LINE",
"1416 3200 LINE",
"1440 1908.216 LINE",
"1556 480 LINE",
"1504 480 LINE",
"1330.488 1904.544 LINE",
"1168 3200 LINE",
"160 3200 LINE",
"160 0 LINE"
);
},
{
closed = 1;
nodes = (
"520 0 LINE",
"520 1372.608 LINE",
"452 2912 LINE",
"860 2912 LINE",
"1236 192 LINE",
"1828 192 LINE",
"1792 1908.216 LINE",
"1792 3200 LINE",
"1668 3200 LINE",
"1668 1908.216 LINE",
"1736 288 LINE",
"1332 288 LINE",
"968 3008 LINE",
"348 3008 LINE",
"400 1372.608 LINE",
"400 0 LINE"
);
},
{
closed = 1;
nodes = (
"772 0 LINE",
"748 1372.608 LINE",
"644 2720 LINE",
"684 2720 LINE",
"842.944 1375.596 LINE",
"1020 0 LINE",
"2016 0 LINE",
"2032 3200 LINE",
"1912 3200 LINE",
"1896 93 LINE",
"1136 93 LINE",
"772 2816 LINE",
"528 2816 LINE",
"628 1372.608 LINE",
"652 0 LINE"
);
}
);
width = 2192;
},
{
anchors = (
{
name = bottom;
position = "{644, 0}";
},
{
name = top;
position = "{672, 3200}";
}
);
background = {
paths = (
{
closed = 1;
nodes = (
"320 0 LINE",
"320 1196 LINE",
"320 3120 LINE",
"392 3120 LINE",
"664 1200 LINE",
"836 0 LINE",
"1060 0 LINE",
"1060 3200 LINE",
"980 3200 LINE",
"980 2216 LINE",
"980 80 LINE",
"908 80 LINE",
"604 2192 LINE",
"460 3200 LINE",
"240 3200 LINE",
"240 0 LINE"
);
}
);
};
layerId = "3D06B89B-468F-44E0-A3D7-A5BC6911123E";
paths = (
{
closed = 1;
nodes = (
"256 0 LINE",
"256 3184 LINE",
"424 3184 LINE",
"905.836 64 LINE",
"984 64 LINE",
"980 1907.948 LINE",
"976 3200 LINE",
"960 3200 LINE",
"964 1907.948 LINE",
"968 80 LINE",
"921.836 80 LINE",
"639.172 1894.508 LINE",
"440 3200 LINE",
"240 3200 LINE",
"240 0 LINE"
);
},
{
closed = 1;
nodes = (
"288 0 LINE",
"288 1368.62 LINE",
"288 3152 LINE",
"396 3152 LINE",
"876 32 LINE",
"1016 32 LINE",
"1011.264 1907.948 LINE",
"1008 3200 LINE",
"992 3200 LINE",
"996 1907.948 LINE",
"1000 48 LINE",
"892 48 LINE",
"412 3168 LINE",
"272 3168 LINE",
"272 1368.62 LINE",
"272 0 LINE"
);
},
{
closed = 1;
nodes = (
"320 0 LINE",
"320 1368.62 LINE",
"320 3120 LINE",
"368 3120 LINE",
"638.292 1374.548 LINE",
"844 0 LINE",
"1048 0 LINE",
"1040 3200 LINE",
"1024 3200 LINE",
"1032 16 LINE",
"860 16 LINE",
"384 3136 LINE",
"304 3136 LINE",
"304 1368.62 LINE",
"304 0 LINE"
);
}
);
width = 1288;
}
);
leftKerningGroup = H;
rightKerningGroup = H;
unicode = 004E;
},
{
glyphname = Eng;
layers = (
{
background = {
paths = (
{
closed = 0;
nodes = (
"1780 2.728 LINE",
"1780 3200 LINE",
"1620 3200 LINE",
"1620 2224 LINE",
"1620 152 LINE",
"1456 152 LINE",
"1164 2192 LINE",
"1020 3200 LINE",
"560 3200 LINE",
"560 0 LINE",
"720 0 LINE",
"720 1180 LINE",
"720 3048 LINE",
"884 3048 LINE",
"1144 1200 LINE",
"1316 0 LINE",
"1628 0 LINE",
"1628 -400 LINE SMOOTH",
"1628 -584 OFFCURVE",
"1572 -668 OFFCURVE",
"1324 -668 CURVE SMOOTH",
"1216 -668 OFFCURVE",
"1136 -664 OFFCURVE",
"1076 -656 CURVE",
"1076 -784 LINE"
);
},
{
closed = 0;
nodes = (
"1076 -784 LINE",
"1148 -800 OFFCURVE",
"1268 -808 OFFCURVE",
"1332 -808 CURVE SMOOTH",
"1684 -808 OFFCURVE",
"1780 -656 OFFCURVE",
"1780 -392 CURVE SMOOTH",
"1780 2.728 LINE"
);
}
);
};
layerId = "3B122060-26E0-4730-9241-82784E6CB359";
paths = (
{
closed = 1;
nodes = (
"312 0 LINE",
"312 3172 LINE",
"712.36 3172 LINE",
"1147.108 112 LINE",
"1372 112 LINE",
"1372 1917.436 LINE",
"1372 3200 LINE",
"1340 3200 LINE",
"1340 1917.436 LINE",
"1340 140 LINE",
"1174.28 140 LINE",
"740 3200 LINE",
"280 3200 LINE",
"280 0 LINE"
);
},
{
closed = 1;
nodes = (
"1326.284 -754.728 OFFCURVE",
"1436 -651.872 OFFCURVE",
"1436 -394.728 CURVE SMOOTH",
"1436 3200 LINE",
"1404 3200 LINE",
"1404 1917.436 LINE",
"1404 84 LINE",
"1119.36 84 LINE",
"684.464 3144 LINE",
"344 3144 LINE",
"344 0 LINE",
"376 0 LINE",
"376 1362.216 LINE",
"376 3116 LINE",
"656.756 3116 LINE",
"1091.612 56 LINE",
"1404 56 LINE",
"1404 -394.728 LINE SMOOTH",
"1404 -631.872 OFFCURVE",
"1303.428 -726.728 OFFCURVE",
"1052 -726.728 CURVE SMOOTH",
"972.472 -726.728 OFFCURVE",
"887.244 -718.156 OFFCURVE",
"813.356 -702.728 CURVE",
"813.356 -730.728 LINE",
"878.46 -746.156 OFFCURVE",
"963.692 -754.728 OFFCURVE",
"1052 -754.728 CURVE SMOOTH"
);
},
{
closed = 1;
nodes = (
"1280.572 -698.728 OFFCURVE",
"1372 -611.872 OFFCURVE",
"1372 -394.728 CURVE SMOOTH",
"1372 28 LINE",
"1063.864 28 LINE",
"629.008 3088 LINE",
"408 3088 LINE",
"408 1362.216 LINE",
"408 0 LINE",
"440 0 LINE",
"440 1362.216 LINE",
"440 3060 LINE",
"601.252 3060 LINE",
"1036 0 LINE",
"1340 0 LINE",
"1340 -394.728 LINE SMOOTH",
"1340 -591.872 OFFCURVE",
"1257.716 -670.728 OFFCURVE",
"1052 -670.728 CURVE SMOOTH",
"993.18 -670.728 OFFCURVE",
"907.952 -662.156 OFFCURVE",
"813.356 -646.728 CURVE",
"813.356 -674.728 LINE",
"897.348 -690.156 OFFCURVE",
"982.576 -698.728 OFFCURVE",
"1052 -698.728 CURVE SMOOTH"
);
},
{
closed = 1;
nodes = (
"1372 -810.728 OFFCURVE",
"1500 -691.872 OFFCURVE",
"1500 -394.728 CURVE SMOOTH",
"1500 3200 LINE",
"1468 3200 LINE",
"1468 -394.728 LINE SMOOTH",
"1468 -671.872 OFFCURVE",
"1349.144 -782.728 OFFCURVE",
"1052 -782.728 CURVE SMOOTH",
"957.636 -782.728 OFFCURVE",
"872.404 -774.156 OFFCURVE",
"813.356 -758.728 CURVE",
"813.356 -786.728 LINE",
"866.048 -802.156 OFFCURVE",
"951.28 -810.728 OFFCURVE",
"1052 -810.728 CURVE SMOOTH"
);
}
);
width = 1780;
},
{
background = {
paths = (
{
closed = 0;
nodes = (
"1226.68 34.748 LINE",
"1226.68 3200 LINE",
"622.68 3200 LINE",
"670.68 1828 LINE",
"782.68 528 LINE",
"598.68 528 LINE",
"378.68 2180 LINE",
"138.68 3200 LINE",
"-849.32 3200 LINE",
"-849.32 0 LINE",
"-249.32 0 LINE",
"-301.32 1228 LINE",
"-405.32 2676 LINE",
"-213.32 2676 LINE",
"-49.32 1048 LINE",
"190.68 0 LINE",
"702.68 0 LINE"
);
},
{
closed = 0;
nodes = (
"702.68 0 LINE",
"702.68 -188 LINE SMOOTH",
"702.68 -332 OFFCURVE",
"538.68 -388 OFFCURVE",
"326.68 -388 CURVE SMOOTH",
"250.68 -388 OFFCURVE",
"106.68 -384 OFFCURVE",
"34.68 -380 CURVE",
"34.68 -816 LINE"
);
},
{
closed = 0;
nodes = (
"34.68 -816 LINE",
"130.68 -832 OFFCURVE",
"234.68 -844 OFFCURVE",
"326.68 -844 CURVE SMOOTH",
"938.68 -844 OFFCURVE",
"1226.68 -640 OFFCURVE",
"1226.68 -132 CURVE SMOOTH",
"1226.68 34.748 LINE"
);
}
);
};
layerId = "1DFA7D5B-2E97-4B89-827F-FB43F8066DC1";
paths = (
{
closed = 1;
nodes = (
"280 0 LINE",
"280 3104 LINE",
"1156 3104 LINE",
"1496 384 LINE",
"1804 384 LINE",
"1736 1908 LINE",
"1736 3200 LINE",
"1616 3200 LINE",
"1616 1908 LINE",
"1692 480 LINE",
"1588 480 LINE",
"1260 3200 LINE",
"160 3200 LINE",
"160 0 LINE"
);
},
{
closed = 1;
nodes = (
"1803.428 -636 OFFCURVE",
"1992 -492 OFFCURVE",
"1992 -132 CURVE SMOOTH",
"1992 3200 LINE",
"1868 3200 LINE",
"1868 1908 LINE",
"1888 288 LINE",
"1404 288 LINE",
"1064 3008 LINE",
"400 3008 LINE",
"400 0 LINE",
"520 0 LINE",
"520 1368 LINE",
"504 2912 LINE",
"956 2912 LINE",
"1308 192 LINE",
"1872 192 LINE",
"1872 -132 LINE SMOOTH",
"1872 -417.716 OFFCURVE",
"1717.716 -532 OFFCURVE",
"1332 -532 CURVE SMOOTH",
"1269.4 -532 OFFCURVE",
"1192.568 -523.564 OFFCURVE",
"1089.32 -504 CURVE",
"1089.32 -608 LINE",
"1177.596 -624.36 OFFCURVE",
"1263.948 -636 OFFCURVE",
"1332 -636 CURVE SMOOTH"
);
},
{
closed = 1;
nodes = (
"1632 -428 OFFCURVE",
"1752 -343.428 OFFCURVE",
"1752 -132 CURVE SMOOTH",
"1752 96 LINE",
"1216 96 LINE",
"872 2816 LINE",
"584 2816 LINE",
"652 1368 LINE",
"652 0 LINE",
"772 0 LINE",
"772 1368 LINE",
"700 2720 LINE",
"784 2720 LINE",
"1100 0 LINE",
"1632 0 LINE",
"1632 -132 LINE SMOOTH",
"1632 -269.144 OFFCURVE",
"1546.284 -324 OFFCURVE",
"1332 -324 CURVE SMOOTH",
"1280.556 -324 OFFCURVE",
"1222.62 -321.996 OFFCURVE",
"1089.32 -296 CURVE",
"1089.32 -400 LINE",
"1207.572 -422.776 OFFCURVE",
"1274.932 -428 OFFCURVE",
"1332 -428 CURVE SMOOTH"
);
},
{
closed = 1;
nodes = (
"1974.856 -844 OFFCURVE",
"2232 -640.572 OFFCURVE",
"2232 -132 CURVE SMOOTH",
"2232 3200 LINE",
"2112 3200 LINE",
"2112 -132 LINE SMOOTH",
"2112 -566.284 OFFCURVE",
"1889.144 -740 OFFCURVE",
"1332 -740 CURVE SMOOTH",
"1255.912 -740 OFFCURVE",
"1162.648 -729.156 OFFCURVE",
"1089.32 -712 CURVE",
"1089.32 -816 LINE",
"1136 -832 OFFCURVE",
"1240 -844 OFFCURVE",
"1332 -844 CURVE SMOOTH"
);
}
);
width = 2392;
},
{
background = {
paths = (
{
closed = 1;
nodes = (
"1724 -844 OFFCURVE",
"2012 -640 OFFCURVE",
"2012 -132 CURVE SMOOTH",
"2012 3200 LINE",
"1432 3200 LINE",
"1480 1828 LINE",
"1592 528 LINE",
"1488 528 LINE",
"1268 2180 LINE",
"1028 3200 LINE",
"160 3200 LINE",
"160 0 LINE",
"740 0 LINE",
"688 1228 LINE",
"584 2676 LINE",
"696 2676 LINE",
"860 1048 LINE",
"1100 0 LINE",
"1488 0 LINE",
"1488 -188 LINE SMOOTH",
"1488 -332 OFFCURVE",
"1324 -388 OFFCURVE",
"1112 -388 CURVE SMOOTH",
"1036 -388 OFFCURVE",
"892 -384 OFFCURVE",
"820 -380 CURVE",
"820 -816 LINE",
"916 -832 OFFCURVE",
"1020 -844 OFFCURVE",
"1112 -844 CURVE SMOOTH"
);
}
);
};
layerId = "5013C991-8699-46CB-BB1C-82E334DBD38B";
paths = (
{
closed = 1;
nodes = (
"280 0 LINE",
"280 3104 LINE",
"1144 3104 LINE",
"1368 384 LINE",
"1616 384 LINE",
"1552 1908 LINE",
"1552 3200 LINE",
"1432 3200 LINE",
"1432 1908 LINE",
"1504 480 LINE",
"1460 480 LINE",
"1248 3200 LINE",
"160 3200 LINE",
"160 0 LINE"
);
},
{
closed = 1;
nodes = (
"1619.428 -604 OFFCURVE",
"1808 -469.144 OFFCURVE",
"1808 -132 CURVE SMOOTH",
"1808 3200 LINE",
"1684 3200 LINE",
"1684 1908 LINE",
"1704 288 LINE",
"1276 288 LINE",
"1040 3008 LINE",
"400 3008 LINE",
"400 0 LINE",
"520 0 LINE",
"520 1368 LINE",
"504 2912 LINE",
"932 2912 LINE",
"1180 192 LINE",
"1688 192 LINE",
"1688 -132 LINE SMOOTH",
"1688 -383.428 OFFCURVE",
"1533.716 -484 OFFCURVE",
"1148 -484 CURVE SMOOTH",
"1085.4 -484 OFFCURVE",
"1008.568 -476.464 OFFCURVE",
"905.32 -460.9 CURVE",
"905.32 -579.264 LINE",
"993.596 -595.624 OFFCURVE",
"1079.948 -604 OFFCURVE",
"1148 -604 CURVE SMOOTH"
);
},
{
closed = 1;
nodes = (
"1448 -364 OFFCURVE",
"1568 -297.716 OFFCURVE",
"1568 -132 CURVE SMOOTH",
"1568 96 LINE",
"1072 96 LINE",
"840 2816 LINE",
"592 2816 LINE",
"652 1368 LINE",
"652 0 LINE",
"772 0 LINE",
"772 1368 LINE",
"708 2720 LINE",
"752 2720 LINE",
"956 0 LINE",
"1448 0 LINE",
"1448 -132 LINE SMOOTH",
"1448 -212 OFFCURVE",
"1362.284 -244 OFFCURVE",
"1148 -244 CURVE SMOOTH",
"1096.556 -244 OFFCURVE",
"1038.62 -238.16 OFFCURVE",
"905.32 -224.164 CURVE",
"905.32 -342.532 LINE",
"1023.572 -357.308 OFFCURVE",
"1090.932 -364 OFFCURVE",
"1148 -364 CURVE SMOOTH"
);
},
{
closed = 1;
nodes = (
"1790.856 -844 OFFCURVE",
"2048 -640.572 OFFCURVE",
"2048 -132 CURVE SMOOTH",
"2048 3200 LINE",
"1928 3200 LINE",
"1928 -132 LINE SMOOTH",
"1928 -554.856 OFFCURVE",
"1705.144 -724 OFFCURVE",
"1148 -724 CURVE SMOOTH",
"1071.912 -724 OFFCURVE",
"978.648 -714.788 OFFCURVE",
"905.32 -697.632 CURVE",
"905.32 -816 LINE",
"952 -832 OFFCURVE",
"1056 -844 OFFCURVE",
"1148 -844 CURVE SMOOTH"
);
}
);
width = 2208;
},
{
background = {
paths = (
{
closed = 0;
nodes = (
"1060 -5.136 LINE",
"1060 3200 LINE",
"980 3200 LINE",
"980 2216 LINE",
"980 80 LINE",
"908 80 LINE",
"604 2192 LINE",
"460 3200 LINE",
"240 3200 LINE",
"240 0 LINE",
"320 0 LINE",
"320 1208 LINE",
"320 3120 LINE",
"392 3120 LINE",
"664 1200 LINE",
"836 0 LINE",
"980 0 LINE",
"980 -440 LINE SMOOTH",
"980 -660 OFFCURVE",
"920 -720 OFFCURVE",
"728 -720 CURVE SMOOTH",
"644 -720 OFFCURVE",
"580 -716 OFFCURVE",
"524 -704 CURVE",
"524 -780 LINE"
);
},
{
closed = 0;
nodes = (
"524 -780 LINE",
"576 -792 OFFCURVE",
"676 -800 OFFCURVE",
"736 -800 CURVE SMOOTH",
"976 -800 OFFCURVE",
"1060 -696 OFFCURVE",
"1060 -440 CURVE SMOOTH",
"1060 -5.136 LINE"
);
}
);
};
layerId = "3D06B89B-468F-44E0-A3D7-A5BC6911123E";
paths = (
{
closed = 1;
nodes = (
"256 0 LINE",
"256 3184 LINE",
"428 3184 LINE",
"904 64 LINE",
"984 64 LINE",
"980 1908 LINE",
"976 3200 LINE",
"960 3200 LINE",
"964 1908 LINE",
"968 80 LINE",
"916 80 LINE",
"440 3200 LINE",
"240 3200 LINE",
"240 0 LINE"
);
},
{
closed = 1;
nodes = (
"941.3 -768.096 OFFCURVE",
"1016 -684.68 OFFCURVE",
"1016 -440.096 CURVE SMOOTH",
"1008 3200 LINE",
"992 3200 LINE",
"996 1908 LINE",
"1000 48 LINE",
"892 48 LINE",
"412 3168 LINE",
"272 3168 LINE",
"272 0 LINE",
"288 0 LINE",
"288 1368 LINE",
"288 3152 LINE",
"400 3152 LINE",
"876 32 LINE",
"1000 32 LINE",
"1000 -440.096 LINE SMOOTH",
"1000 -675.688 OFFCURVE",
"931.648 -752.096 OFFCURVE",
"724 -752.096 CURVE SMOOTH",
"661.82 -752.096 OFFCURVE",
"566.78 -743.476 OFFCURVE",
"520.996 -733.328 CURVE",
"520.996 -748.916 LINE",
"568.9 -760.388 OFFCURVE",
"665.276 -768.096 OFFCURVE",
"724 -768.096 CURVE SMOOTH"
);
},
{
closed = 1;
nodes = (
"921.988 -736.096 OFFCURVE",
"984 -666.768 OFFCURVE",
"984 -440.096 CURVE SMOOTH",
"984 16.052 LINE",
"860 16 LINE",
"384 3136 LINE",
"304 3136 LINE",
"304 1368 LINE",
"304 0 LINE",
"320 0 LINE",
"320 1368 LINE",
"320 3120 LINE",
"372 3120 LINE",
"848 0 LINE",
"968 0 LINE",
"968 -440.096 LINE SMOOTH",
"968 -657.924 OFFCURVE",
"912.324 -720.096 OFFCURVE",
"724 -720.096 CURVE SMOOTH",
"661.04 -720.096 OFFCURVE",
"569.556 -711.276 OFFCURVE",
"520.996 -702.148 CURVE",
"520.996 -717.736 LINE",
"569.456 -727.676 OFFCURVE",
"662.748 -736.096 OFFCURVE",
"724 -736.096 CURVE SMOOTH"
);
},
{
closed = 1;
nodes = (
"964 -800.096 OFFCURVE",
"1048 -696.096 OFFCURVE",
"1048 -440.096 CURVE SMOOTH",
"1040 3200 LINE",
"1024 3200 LINE",
"1032 -440.096 LINE SMOOTH",
"1032 -692.388 OFFCURVE",
"949.612 -784.096 OFFCURVE",
"724 -784.096 CURVE SMOOTH",
"664.64 -784.096 OFFCURVE",
"566.452 -776.244 OFFCURVE",
"520.996 -764.508 CURVE",
"520.996 -780.096 LINE",
"564 -792.096 OFFCURVE",
"664 -800.096 OFFCURVE",
"724 -800.096 CURVE SMOOTH"
);
}
);
width = 1288;
}
);
leftKerningGroup = H;
leftMetricsKey = N;
rightKerningGroup = H;
rightMetricsKey = N;
unicode = 014A;
},
{
glyphname = O;
layers = (
{
anchors = (
{
name = bottom;
position = "{761, 0}";
},
{
name = center;
position = "{761, 1600}";
},
{
name = ogonek;
position = "{626.164, -20}";
},
{
name = top;
position = "{761, 3200}";
},
{
name = topleft;
position = "{325, 3200}";
},
{
name = topright;
position = "{1301, 3200}";
}
);
background = {
paths = (
{
closed = 1;
nodes = (
"1093 -20 OFFCURVE",
"1229 104 OFFCURVE",
"1233 420 CURVE SMOOTH",
"1245 1340 OFFCURVE",
"1245 1896 OFFCURVE",
"1233 2776 CURVE SMOOTH",
"1229 3092 OFFCURVE",
"1093 3220 OFFCURVE",
"761 3220 CURVE SMOOTH",
"429 3220 OFFCURVE",
"293 3092 OFFCURVE",
"289 2776 CURVE SMOOTH",
"277 1896 OFFCURVE",
"277 1340 OFFCURVE",
"289 420 CURVE SMOOTH",
"293 104 OFFCURVE",
"429 -20 OFFCURVE",
"761 -20 CURVE SMOOTH"
);
},
{
closed = 1;
nodes = (
"521 132 OFFCURVE",
"453 192 OFFCURVE",
"449 420 CURVE SMOOTH",
"433 1404 OFFCURVE",
"433 1844 OFFCURVE",
"449 2776 CURVE SMOOTH",
"453 3004 OFFCURVE",
"521 3068 OFFCURVE",
"761 3068 CURVE SMOOTH",
"1001 3068 OFFCURVE",
"1069 3004 OFFCURVE",
"1073 2776 CURVE SMOOTH",
"1089 1816 OFFCURVE",
"1089 1376 OFFCURVE",
"1073 420 CURVE SMOOTH",
"1069 192 OFFCURVE",
"1001 132 OFFCURVE",
"761 132 CURVE SMOOTH"
);
}
);
};
layerId = "3B122060-26E0-4730-9241-82784E6CB359";
paths = (
{
closed = 1;
nodes = (
"1094.164 -20 OFFCURVE",
"1229.02 105.716 OFFCURVE",
"1233 420 CURVE SMOOTH",
"1245 1340 OFFCURVE",
"1245 1896 OFFCURVE",
"1233 2776 CURVE SMOOTH",
"1228.984 3093.144 OFFCURVE",
"1094.128 3220 OFFCURVE",
"761 3220 CURVE SMOOTH",
"427.872 3220 OFFCURVE",
"293.016 3093.144 OFFCURVE",
"289 2776 CURVE SMOOTH",
"277 1896 OFFCURVE",
"277 1340 OFFCURVE",
"289 420 CURVE SMOOTH",
"292.98 105.716 OFFCURVE",
"427.836 -20 OFFCURVE",
"761 -20 CURVE SMOOTH"
);
},
{
closed = 1;
nodes = (
"450.692 8 OFFCURVE",
"324.976 125.716 OFFCURVE",
"321 420 CURVE SMOOTH",
"309 1340 OFFCURVE",
"309 1896 OFFCURVE",
"321 2776 CURVE SMOOTH",
"324.96 3073.144 OFFCURVE",
"450.676 3192 OFFCURVE",
"761 3192 CURVE SMOOTH",
"1071.324 3192 OFFCURVE",
"1197.04 3073.144 OFFCURVE",
"1201 2776 CURVE SMOOTH",
"1213 1896 OFFCURVE",
"1213 1340 OFFCURVE",
"1201 420 CURVE SMOOTH",
"1197.024 125.716 OFFCURVE",
"1071.308 8 OFFCURVE",
"761 8 CURVE SMOOTH"
);
},
{
closed = 1;
nodes = (
"1048.452 36 OFFCURVE",
"1165.024 145.716 OFFCURVE",
"1169 420 CURVE SMOOTH",
"1181 1340 OFFCURVE",
"1181 1896 OFFCURVE",
"1169 2776 CURVE SMOOTH",
"1165.04 3053.144 OFFCURVE",
"1048.468 3164 OFFCURVE",
"761 3164 CURVE SMOOTH",
"473.532 3164 OFFCURVE",
"356.96 3053.144 OFFCURVE",
"353 2776 CURVE SMOOTH",
"341 1896 OFFCURVE",
"341 1340 OFFCURVE",
"353 420 CURVE SMOOTH",
"356.976 145.716 OFFCURVE",
"473.548 36 OFFCURVE",
"761 36 CURVE SMOOTH"
);
},
{
closed = 1;
nodes = (
"496.34 64 OFFCURVE",
"388.912 165.716 OFFCURVE",
"385 420 CURVE SMOOTH",
"373 1340 OFFCURVE",
"373 1896 OFFCURVE",
"385 2776 CURVE SMOOTH",
"388.956 3033.144 OFFCURVE",
"496.384 3136 OFFCURVE",
"761 3136 CURVE SMOOTH",
"1025.616 3136 OFFCURVE",
"1133.044 3033.144 OFFCURVE",
"1137 2776 CURVE SMOOTH",
"1149 1896 OFFCURVE",
"1149 1340 OFFCURVE",
"1137 420 CURVE SMOOTH",
"1133.088 165.716 OFFCURVE",
"1025.66 64 OFFCURVE",
"761 64 CURVE SMOOTH"
);
},
{
closed = 1;
nodes = (
"1002.808 92 OFFCURVE",
"1101.096 185.716 OFFCURVE",
"1105 420 CURVE SMOOTH",
"1117 1340 OFFCURVE",
"1117 1896 OFFCURVE",
"1105 2776 CURVE SMOOTH",
"1101.048 3013.144 OFFCURVE",
"1002.76 3108 OFFCURVE",
"761 3108 CURVE SMOOTH",
"519.24 3108 OFFCURVE",
"420.952 3013.144 OFFCURVE",
"417 2776 CURVE SMOOTH",
"405 1896 OFFCURVE",
"405 1340 OFFCURVE",
"417 420 CURVE SMOOTH",
"420.904 185.716 OFFCURVE",
"519.192 92 OFFCURVE",
"761 92 CURVE SMOOTH"
);
},
{
closed = 1;
nodes = (
"542.02 120 OFFCURVE",
"452.876 206.856 OFFCURVE",
"449 424 CURVE SMOOTH",
"437 1344 OFFCURVE",
"437 1896 OFFCURVE",
"449 2772 CURVE SMOOTH",
"452.86 2992 OFFCURVE",
"542.004 3080 OFFCURVE",
"761 3080 CURVE SMOOTH",
"979.996 3080 OFFCURVE",
"1069.14 2992 OFFCURVE",
"1073 2772 CURVE SMOOTH",
"1085 1896 OFFCURVE",
"1085 1344 OFFCURVE",
"1073 424 CURVE SMOOTH",
"1069.124 206.856 OFFCURVE",
"979.98 120 OFFCURVE",
"761 120 CURVE SMOOTH"
);
}
);
width = 1522;
},
{
anchors = (
{
name = bottom;
position = "{1057, 0}";
},
{
name = center;
position = "{1057, 1600}";
},
{
name = ogonek;
position = "{849, 0}";
},
{
name = top;
position = "{1057, 3200}";
},
{
name = topleft;
position = "{121, 3200}";
},
{
name = topright;
position = "{2071.712, 3200}";
}
);
background = {
paths = (
{
closed = 1;
nodes = (
"1661 -40 OFFCURVE",
"1913 188 OFFCURVE",
"1933 764 CURVE SMOOTH",
"1957 1360 OFFCURVE",
"1957 1836 OFFCURVE",
"1933 2440 CURVE SMOOTH",
"1913 3012 OFFCURVE",
"1661 3240 OFFCURVE",
"1053 3240 CURVE SMOOTH",
"433 3240 OFFCURVE",
"181 3012 OFFCURVE",
"169 2440 CURVE SMOOTH",
"157 1840 OFFCURVE",
"157 1364 OFFCURVE",
"169 764 CURVE SMOOTH",
"181 188 OFFCURVE",
"433 -40 OFFCURVE",
"1053 -40 CURVE SMOOTH"
);
},
{
closed = 1;
nodes = (
"857 448 OFFCURVE",
"773 528 OFFCURVE",
"769 732 CURVE SMOOTH",
"741 1316 OFFCURVE",
"741 1888 OFFCURVE",
"769 2472 CURVE SMOOTH",
"773 2672 OFFCURVE",
"857 2752 OFFCURVE",
"1053 2752 CURVE SMOOTH",
"1249 2752 OFFCURVE",
"1329 2672 OFFCURVE",
"1333 2472 CURVE SMOOTH",
"1361 1888 OFFCURVE",
"1361 1316 OFFCURVE",
"1333 732 CURVE SMOOTH",
"1329 528 OFFCURVE",
"1249 448 OFFCURVE",
"1053 448 CURVE SMOOTH"
);
}
);
};
layerId = "1DFA7D5B-2E97-4B89-827F-FB43F8066DC1";
paths = (
{
closed = 1;
nodes = (
"1661.632 -40 OFFCURVE",
"1913.06 189.716 OFFCURVE",
"1933 764 CURVE SMOOTH",
"1957 1360 OFFCURVE",
"1957 1836 OFFCURVE",
"1933 2440 CURVE SMOOTH",
"1913.02 3011.428 OFFCURVE",
"1661.592 3240 OFFCURVE",
"1053 3240 CURVE SMOOTH",
"433.56 3240 OFFCURVE",
"180.988 3011.428 OFFCURVE",
"169 2440 CURVE SMOOTH",
"157 1840 OFFCURVE",
"157 1364 OFFCURVE",
"169 764 CURVE SMOOTH",
"180.964 189.716 OFFCURVE",
"433.536 -40 OFFCURVE",
"1053 -40 CURVE SMOOTH"
);
},
{
closed = 1;
nodes = (
"519.204 56 OFFCURVE",
"300.92 259.428 OFFCURVE",
"289 768 CURVE SMOOTH",
"277 1364 OFFCURVE",
"273 1840 OFFCURVE",
"289 2436 CURVE SMOOTH",
"300.948 2941.716 OFFCURVE",
"519.232 3144 OFFCURVE",
"1053 3144 CURVE SMOOTH",
"1579.928 3144 OFFCURVE",
"1797.072 2941.716 OFFCURVE",
"1813 2436 CURVE SMOOTH",
"1833 1840 OFFCURVE",
"1833 1360 OFFCURVE",
"1813 768 CURVE SMOOTH",
"1797.108 259.428 OFFCURVE",
"1579.964 56 OFFCURVE",
"1053 56 CURVE SMOOTH"
);
},
{
closed = 1;
nodes = (
"1492.776 152 OFFCURVE",
"1675.632 329.144 OFFCURVE",
"1693 772 CURVE SMOOTH",
"1717 1360 OFFCURVE",
"1717 1836 OFFCURVE",
"1693 2432 CURVE SMOOTH",
"1675.576 2872 OFFCURVE",
"1492.716 3048 OFFCURVE",
"1053 3048 CURVE SMOOTH",
"601.656 3048 OFFCURVE",
"417.656 2873.144 OFFCURVE",
"409 2436 CURVE SMOOTH",
"397 1840 OFFCURVE",
"397 1360 OFFCURVE",
"409 768 CURVE SMOOTH",
"417.712 328 OFFCURVE",
"601.712 152 OFFCURVE",
"1053 152 CURVE SMOOTH"
);
},
{
closed = 1;
nodes = (
"687.624 248 OFFCURVE",
"537.912 397.716 OFFCURVE",
"529 772 CURVE SMOOTH",
"513 1364 OFFCURVE",
"513 1836 OFFCURVE",
"529 2432 CURVE SMOOTH",
"537.952 2803.428 OFFCURVE",
"687.664 2952 OFFCURVE",
"1053 2952 CURVE SMOOTH",
"1411.06 2952 OFFCURVE",
"1559.632 2802.284 OFFCURVE",
"1573 2428 CURVE SMOOTH",
"1593 1836 OFFCURVE",
"1593 1364 OFFCURVE",
"1573 776 CURVE SMOOTH",
"1559.532 398.856 OFFCURVE",
"1410.96 248 OFFCURVE",
"1053 248 CURVE SMOOTH"
);
},
{
closed = 1;
nodes = (
"1328.504 344 OFFCURVE",
"1442.788 468.572 OFFCURVE",
"1453 780 CURVE SMOOTH",
"1477 1364 OFFCURVE",
"1477 1832 OFFCURVE",
"1453 2424 CURVE SMOOTH",
"1442.716 2732.572 OFFCURVE",
"1328.428 2856 OFFCURVE",
"1053 2856 CURVE SMOOTH",
"774.696 2856 OFFCURVE",
"659.268 2734.856 OFFCURVE",
"649 2432 CURVE SMOOTH",
"637 1840 OFFCURVE",
"637 1364 OFFCURVE",
"649 772 CURVE SMOOTH",
"659.364 466.284 OFFCURVE",
"774.792 344 OFFCURVE",
"1053 344 CURVE SMOOTH"
);
},
{
closed = 1;
nodes = (
"855.996 440 OFFCURVE",
"774.852 536 OFFCURVE",
"769 776 CURVE SMOOTH",
"753 1368 OFFCURVE",
"753 1840 OFFCURVE",
"769 2428 CURVE SMOOTH",
"774.928 2665.144 OFFCURVE",
"856.072 2760 OFFCURVE",
"1053 2760 CURVE SMOOTH",
"1247.148 2760 OFFCURVE",
"1327.148 2661.716 OFFCURVE",
"1333 2416 CURVE SMOOTH",
"1345 1832 OFFCURVE",
"1345 1364 OFFCURVE",
"1333 788 CURVE SMOOTH",
"1327.22 539.428 OFFCURVE",
"1247.22 440 OFFCURVE",
"1053 440 CURVE SMOOTH"
);
}
);
width = 2111;
},
{
anchors = (
{
name = bottom;
position = "{1016, 0}";
},
{
name = center;
position = "{1016, 1600}";
},
{
name = ogonek;
position = "{792.06, -40}";
},
{
name = top;
position = "{1016, 3200}";
},
{
name = topleft;
position = "{80, 3200}";
},
{
name = topright;
position = "{1948, 3200}";
}
);
background = {
paths = (
{
closed = 1;
nodes = (
"1600 -40 OFFCURVE",
"1832 188 OFFCURVE",
"1852 764 CURVE SMOOTH",
"1872 1288 OFFCURVE",
"1872 1908 OFFCURVE",
"1852 2440 CURVE SMOOTH",
"1832 3012 OFFCURVE",
"1600 3240 OFFCURVE",
"1012 3240 CURVE SMOOTH",
"424 3240 OFFCURVE",
"180 3012 OFFCURVE",
"168 2440 CURVE SMOOTH",
"156 1916 OFFCURVE",
"156 1288 OFFCURVE",
"168 764 CURVE SMOOTH",
"180 188 OFFCURVE",
"424 -40 OFFCURVE",
"1012 -40 CURVE SMOOTH"
);
},
{
closed = 1;
nodes = (
"860 448 OFFCURVE",
"772 520 OFFCURVE",
"768 652 CURVE SMOOTH",
"744 1196 OFFCURVE",
"744 2008 OFFCURVE",
"768 2552 CURVE SMOOTH",
"772 2680 OFFCURVE",
"860 2752 OFFCURVE",
"1012 2752 CURVE SMOOTH",
"1164 2752 OFFCURVE",
"1248 2680 OFFCURVE",
"1252 2552 CURVE SMOOTH",
"1276 2008 OFFCURVE",
"1276 1196 OFFCURVE",
"1252 652 CURVE SMOOTH",
"1248 520 OFFCURVE",
"1168 448 OFFCURVE",
"1012 448 CURVE SMOOTH"
);
}
);
};
layerId = "5013C991-8699-46CB-BB1C-82E334DBD38B";
paths = (
{
closed = 1;
nodes = (
"1592.06 -40 OFFCURVE",
"1832.06 189.716 OFFCURVE",
"1852 764 CURVE SMOOTH",
"1874.672 1358.036 OFFCURVE",
"1874.672 1836.892 OFFCURVE",
"1852 2440 CURVE SMOOTH",
"1832.02 3011.428 OFFCURVE",
"1592.02 3240 OFFCURVE",
"1012 3240 CURVE SMOOTH",
"421.132 3240 OFFCURVE",
"179.988 3011.428 OFFCURVE",
"168 2440 CURVE SMOOTH",
"154.292 1841.428 OFFCURVE",
"154.292 1362.572 OFFCURVE",
"168 764 CURVE SMOOTH",
"179.964 189.716 OFFCURVE",
"421.108 -40 OFFCURVE",
"1012 -40 CURVE SMOOTH"
);
},
{
closed = 1;
nodes = (
"505.412 56 OFFCURVE",
"298.544 259.036 OFFCURVE",
"287.972 766.624 CURVE SMOOTH",
"274.308 1363.32 OFFCURVE",
"274.308 1840.676 OFFCURVE",
"287.972 2437.368 CURVE SMOOTH",
"298.56 2942.104 OFFCURVE",
"505.424 3144 OFFCURVE",
"1012 3144 CURVE SMOOTH",
"1508.652 3144 OFFCURVE",
"1714.388 2941.612 OFFCURVE",
"1732.08 2435.648 CURVE SMOOTH",
"1754.636 1835.676 OFFCURVE",
"1754.636 1359.312 OFFCURVE",
"1732.08 768.372 CURVE SMOOTH",
"1714.412 259.536 OFFCURVE",
"1508.676 56 OFFCURVE",
"1012 56 CURVE SMOOTH"
);
},
{
closed = 1;
nodes = (
"1425.292 152 OFFCURVE",
"1596.764 329.356 OFFCURVE",
"1612.16 772.74 CURVE SMOOTH",
"1634.596 1360.584 OFFCURVE",
"1634.596 1834.46 OFFCURVE",
"1612.156 2431.3 CURVE SMOOTH",
"1596.756 2871.8 OFFCURVE",
"1425.284 3048 OFFCURVE",
"1012 3048 CURVE SMOOTH",
"589.72 3048 OFFCURVE",
"417.132 2872.78 OFFCURVE",
"407.944 2434.736 CURVE SMOOTH",
"394.32 1839.924 OFFCURVE",
"394.32 1364.072 OFFCURVE",
"407.944 769.248 CURVE SMOOTH",
"417.124 328.356 OFFCURVE",
"589.712 152 OFFCURVE",
"1012 152 CURVE SMOOTH"
);
},
{
closed = 1;
nodes = (
"674.024 248 OFFCURVE",
"535.712 397.676 OFFCURVE",
"527.912 771.868 CURVE SMOOTH",
"514.336 1364.82 OFFCURVE",
"514.336 1839.172 OFFCURVE",
"527.912 2432.104 CURVE SMOOTH",
"535.7 2803.46 OFFCURVE",
"674.008 2952 OFFCURVE",
"1012 2952 CURVE SMOOTH",
"1341.912 2952 OFFCURVE",
"1479.12 2801.988 OFFCURVE",
"1492.236 2426.952 CURVE SMOOTH",
"1514.556 1833.256 OFFCURVE",
"1514.56 1361.872 OFFCURVE",
"1492.24 777.108 CURVE SMOOTH",
"1479.112 399.172 OFFCURVE",
"1341.904 248 OFFCURVE",
"1012 248 CURVE SMOOTH"
);
},
{
closed = 1;
nodes = (
"1258.516 344 OFFCURVE",
"1361.468 468.996 OFFCURVE",
"1372.32 781.48 CURVE SMOOTH",
"1394.516 1363.132 OFFCURVE",
"1394.516 1832.024 OFFCURVE",
"1372.316 2422.596 CURVE SMOOTH",
"1361.492 2732.172 OFFCURVE",
"1258.544 2856 OFFCURVE",
"1012 2856 CURVE SMOOTH",
"758.308 2856 OFFCURVE",
"654.276 2734.136 OFFCURVE",
"647.884 2429.472 CURVE SMOOTH",
"634.348 1838.42 OFFCURVE",
"634.348 1365.572 OFFCURVE",
"647.884 774.492 CURVE SMOOTH",
"654.292 466.996 OFFCURVE",
"758.328 344 OFFCURVE",
"1012 344 CURVE SMOOTH"
);
},
{
closed = 1;
nodes = (
"842.628 440 OFFCURVE",
"772.876 536.32 OFFCURVE",
"767.856 777.116 CURVE SMOOTH",
"754.364 1366.32 OFFCURVE",
"754.364 1837.668 OFFCURVE",
"767.856 2426.84 CURVE SMOOTH",
"772.844 2664.812 OFFCURVE",
"842.6 2760 OFFCURVE",
"1012 2760 CURVE SMOOTH",
"1175.172 2760 OFFCURVE",
"1243.856 2662.356 OFFCURVE",
"1252.396 2418.248 CURVE SMOOTH",
"1274.48 1830.804 OFFCURVE",
"1274.48 1364.408 OFFCURVE",
"1252.4 785.852 CURVE SMOOTH",
"1243.82 538.816 OFFCURVE",
"1175.132 440 OFFCURVE",
"1012 440 CURVE SMOOTH"
);
}
);
width = 2028;
},
{
anchors = (
{
name = bottom;
position = "{604, 0}";
},
{
name = center;
position = "{604, 1600}";
},
{
name = ogonek;
position = "{485.832, -4}";
},
{
name = top;
position = "{604, 3200}";
},
{
name = topleft;
position = "{168, 3200}";
},
{
name = topright;
position = "{1040, 3200}";
}
);
background = {
paths = (
{
closed = 1;
nodes = (
"856 -20 OFFCURVE",
"956 84 OFFCURVE",
"956 340 CURVE SMOOTH",
"964 1240 OFFCURVE",
"964 1956 OFFCURVE",
"956 2856 CURVE SMOOTH",
"956 3116 OFFCURVE",
"856 3220 OFFCURVE",
"604 3220 CURVE SMOOTH",
"352 3220 OFFCURVE",
"256 3116 OFFCURVE",
"252 2856 CURVE SMOOTH",
"236 1956 OFFCURVE",
"236 1240 OFFCURVE",
"252 340 CURVE SMOOTH",
"256 84 OFFCURVE",
"352 -20 OFFCURVE",
"604 -20 CURVE SMOOTH"
);
},
{
closed = 1;
nodes = (
"404 60 OFFCURVE",
"336 128 OFFCURVE",
"332 340 CURVE SMOOTH",
"316 1256 OFFCURVE",
"312 1976 OFFCURVE",
"332 2856 CURVE SMOOTH",
"336 3072 OFFCURVE",
"404 3140 OFFCURVE",
"604 3140 CURVE SMOOTH",
"804 3140 OFFCURVE",
"872 3072 OFFCURVE",
"876 2856 CURVE SMOOTH",
"888 1976 OFFCURVE",
"896 1256 OFFCURVE",
"876 340 CURVE SMOOTH",
"872 128 OFFCURVE",
"804 60 OFFCURVE",
"604 60 CURVE SMOOTH"
);
}
);
};
layerId = "3D06B89B-468F-44E0-A3D7-A5BC6911123E";
paths = (
{
closed = 1;
nodes = (
"856 -20 OFFCURVE",
"956 84 OFFCURVE",
"956 340 CURVE SMOOTH",
"964 1240 OFFCURVE",
"964 1956 OFFCURVE",
"956 2856 CURVE SMOOTH",
"956 3116 OFFCURVE",
"856 3220 OFFCURVE",
"604 3220 CURVE SMOOTH",
"352 3220 OFFCURVE",
"256 3116 OFFCURVE",
"252 2856 CURVE SMOOTH",
"236 1956 OFFCURVE",
"236 1240 OFFCURVE",
"252 340 CURVE SMOOTH",
"256 84 OFFCURVE",
"352 -20 OFFCURVE",
"604 -20 CURVE SMOOTH"
);
},
{
closed = 1;
nodes = (
"364.144 -4 OFFCURVE",
"271.9 90.4 OFFCURVE",
"268 340.268 CURVE SMOOTH",
"252 1240.144 OFFCURVE",
"252 1955.856 OFFCURVE",
"268 2855.736 CURVE SMOOTH",
"271.896 3109.076 OFFCURVE",
"363.616 3204 OFFCURVE",
"604 3204 CURVE SMOOTH",
"846.36 3204 OFFCURVE",
"940 3107.112 OFFCURVE",
"940 2855.928 CURVE SMOOTH",
"948 1955.928 OFFCURVE",
"948 1240.072 OFFCURVE",
"940 340.072 CURVE SMOOTH",
"940 92.348 OFFCURVE",
"845.832 -4 OFFCURVE",
"604 -4 CURVE SMOOTH"
);
},
{
closed = 1;
nodes = (
"836.48 12 OFFCURVE",
"924 101.576 OFFCURVE",
"924 340.144 CURVE SMOOTH",
"932 1240.144 OFFCURVE",
"932 1955.856 OFFCURVE",
"924 2855.856 CURVE SMOOTH",
"924 3097.912 OFFCURVE",
"836.98 3188 OFFCURVE",
"604 3188 CURVE SMOOTH",
"371.652 3188 OFFCURVE",
"287.776 3101.068 OFFCURVE",
"283.996 2855.468 CURVE SMOOTH",
"268 1955.716 OFFCURVE",
"268 1240.284 OFFCURVE",
"283.996 340.536 CURVE SMOOTH",
"287.78 98.44 OFFCURVE",
"372.148 12 OFFCURVE",
"604 12 CURVE SMOOTH"
);
},
{
closed = 1;
nodes = (
"381.472 28 OFFCURVE",
"303.636 107.78 OFFCURVE",
"299.992 340.8 CURVE SMOOTH",
"284 1240.428 OFFCURVE",
"284 1955.572 OFFCURVE",
"299.992 2855.204 CURVE SMOOTH",
"303.632 3091.764 OFFCURVE",
"381.012 3172 OFFCURVE",
"604 3172 CURVE SMOOTH",
"828.928 3172 OFFCURVE",
"908 3090.068 OFFCURVE",
"908 2855.788 CURVE SMOOTH",
"916 1955.788 OFFCURVE",
"916 1240.212 OFFCURVE",
"908 340.212 CURVE SMOOTH",
"908 109.456 OFFCURVE",
"828.464 28 OFFCURVE",
"604 28 CURVE SMOOTH"
);
},
{
closed = 1;
nodes = (
"819.148 44 OFFCURVE",
"892 118.62 OFFCURVE",
"892 340.284 CURVE SMOOTH",
"900 1240.284 OFFCURVE",
"900 1955.716 OFFCURVE",
"892 2855.716 CURVE SMOOTH",
"892 3080.94 OFFCURVE",
"819.576 3156 OFFCURVE",
"604 3156 CURVE SMOOTH",
"390.356 3156 OFFCURVE",
"319.492 3082.504 OFFCURVE",
"315.992 2854.94 CURVE SMOOTH",
"300 1955.432 OFFCURVE",
"300 1240.568 OFFCURVE",
"315.992 341.068 CURVE SMOOTH",
"319.492 117.076 OFFCURVE",
"390.776 44 OFFCURVE",
"604 44 CURVE SMOOTH"
);
},
{
closed = 1;
nodes = (
"400.06 60 OFFCURVE",
"335.348 126.324 OFFCURVE",
"331.988 341.336 CURVE SMOOTH",
"316 1240.712 OFFCURVE",
"316 1955.288 OFFCURVE",
"331.988 2854.672 CURVE SMOOTH",
"335.352 3073.3 OFFCURVE",
"399.68 3140 OFFCURVE",
"604 3140 CURVE SMOOTH",
"810.244 3140 OFFCURVE",
"876 3071.856 OFFCURVE",
"876 2855.644 CURVE SMOOTH",
"884 1955.644 OFFCURVE",
"884 1240.356 OFFCURVE",
"876 340.356 CURVE SMOOTH",
"876 127.744 OFFCURVE",
"809.86 60 OFFCURVE",
"604 60 CURVE SMOOTH"
);
}
);
width = 1202;
}
);
leftKerningGroup = O;
rightKerningGroup = O;
unicode = 004F;
},
